<?xml version="1.0" encoding="utf-8"?>
<!-- Generator: Adobe Illustrator 22.1.0, SVG Export Plug-In . SVG Version: 6.00 Build 0)  -->
<svg version="1.1" id="katman_1" xmlns="http://www.w3.org/2000/svg" xmlns:xlink="http://www.w3.org/1999/xlink" x="0px" y="0px"
	 width="61.3px" height="53.9px" viewBox="0 0 61.3 53.9" style="enable-background:new 0 0 61.3 53.9;" xml:space="preserve">
<style type="text/css">
	.st0{fill:#FFFFFF;}
</style>
<g>
	<path class="st0" d="M23.2,18.5v12.4h2.2V18.5c0-0.8,0.7-1.4,1.4-1.4H41v-2.2H26.9C24.8,14.8,23.2,16.5,23.2,18.5z"/>
	<path class="st0" d="M57.6,14.8H46.1V4.7C46.1,2.1,44,0,41.4,0H4.7C2.1,0,0,2.1,0,4.7V31c0,2.6,2.1,4.7,4.7,4.7h2.8v10.2
		c0,0.5,0.3,0.9,0.7,1.1C8.3,47,8.4,47,8.5,47c0.3,0,0.7-0.1,0.9-0.4l8.7-10.9h5.1v6.9c0,2,1.7,3.7,3.7,3.7h19.6l5.7,7.3
		c0.2,0.3,0.5,0.4,0.9,0.4c0.1,0,0.2,0,0.4-0.1c0.4-0.2,0.8-0.6,0.8-1.1v-6.6h3.4c2,0,3.7-1.7,3.7-3.7v-24
		C61.3,16.5,59.6,14.8,57.6,14.8z M17.6,33.4c-0.3,0-0.7,0.2-0.9,0.4l-7.1,8.9v-8.2c0-0.6-0.5-1.1-1.1-1.1H4.7
		c-1.3,0-2.4-1.1-2.4-2.4V4.7c0-1.3,1.1-2.4,2.4-2.4h36.8c1.3,0,2.4,1.1,2.4,2.4V31c0,1.3-1.1,2.4-2.4,2.4H17.6z M59,42.5
		c0,0.8-0.7,1.4-1.4,1.4h-4.5c-0.6,0-1.1,0.5-1.1,1.1v4.5l-4.1-5.2C47.7,44.1,47.4,44,47,44H26.9c-0.8,0-1.4-0.6-1.4-1.4v-6.9h16
		c2.6,0,4.7-2.1,4.7-4.7V17h11.5c0.8,0,1.4,0.7,1.4,1.4V42.5z"/>
	<path class="st0" d="M10.5,17.9c2.2,0,0,0,2.2,0v-2.2h-2.2V17.9z"/>
	<path class="st0" d="M15.3,17.9c2.2,0,0,0,2.2,0v-2.2h-2.2V17.9z"/>
	<path class="st0" d="M36.3,26.5c2.2,0,0,0,2.2,0v-2.2h-2.2V26.5z"/>
	<path class="st0" d="M31.6,26.5c2.2,0,0,0,2.2,0v-2.2h-2.2V26.5z"/>
</g>
</svg>
