<?xml version="1.0" encoding="utf-8"?>
<!-- Generator: Adobe Illustrator 22.1.0, SVG Export Plug-In . SVG Version: 6.00 Build 0)  -->
<svg version="1.1" id="MILWAUKEE" xmlns="http://www.w3.org/2000/svg" xmlns:xlink="http://www.w3.org/1999/xlink" x="0px" y="0px"
	 width="338.5px" height="97.6px" viewBox="0 0 338.5 97.6" style="enable-background:new 0 0 338.5 97.6;" xml:space="preserve">
<style type="text/css">
	.st0{fill:#045D94;}
</style>
<path class="st0" d="M335.4,95.1c-1-0.8-2.3-1.8-3.8-2.9c-1.6-1.1-3.4-2.3-5.4-3.6c-0.5-0.3-1-0.7-1.6-1c-0.6-0.3-1.1-0.7-1.7-1
	c-1.2-0.7-2.4-1.4-3.6-2.1c-2.5-1.6-5.4-2.9-8.4-4.5c-0.3-0.1-0.5-0.3-0.8-0.4l1.9,0.6c-0.5-2.6-4.7-25.4-16.7-28.1
	c-0.1,0-0.1,0-0.2,0c-0.1,0-0.1,0-0.2,0c-5,1.1-8.2,3.9-10.3,7.1V38.5h-9.9V45l-12.4-3.2l-1.3,1.5V22.9h-3V20
	c-7.2,0-7.6,4.5-7.6,4.5v22.8h-4.3v-3.8h-6.1V39l-0.9-5.3h-4.7l-2.8,12.9V7.4h-3.4V4.1c-8.1,0-8.6,5.1-8.6,5.1v17h-13.6v7.9h-3.4
	l-11.3,2.5v6.8h-7.3v-4.9l-8.9-1.5v-18l-6.7-4.4h-8.6v23.3l-1.5-0.4l-1.5,0.1l-2.1-2.2h-4.2v-28l-7.9-7.2h-12.1v36.3
	c-0.1,0-0.2,0-0.3,0c-2.3-0.1-10.3-0.6-10.3-0.6s-0.5-5-0.5-5.4c0-0.3-0.2-0.3-0.3-0.3c-0.1,0-0.3,0-0.3,0.3c0,0.4-0.5,5.4-0.5,5.4
	s-7.9,0.5-10.3,0.6c-1.2,0.1-3.1-0.1-4.8-0.2V18.5h-2V7.1l-0.5-1l-0.8,1l-4.1-6.8L95.5,0l-0.2,0.3l-4.1,6.8l-0.8-1l-0.5,1v11.3h-2
	v29.2h-2V33.3l-4.4-2.5h-5.6v15.5v15.8c-0.5,0.1-1,0.3-1.5,0.4c-0.2,0-0.3,0.1-0.5,0.1V36.9l-0.5-0.3c0,0,0-0.1,0-0.1
	c0-0.2-0.1-0.3-0.3-0.3c-0.2,0-0.3,0.1-0.3,0.3c0,0,0,0.1,0,0.1l-0.3,0.2v-0.5H72l-0.9-2.5c0.1-0.1,0.2-0.2,0.2-0.2
	c0-0.2-0.3-0.4-0.3-0.4h0h-0.1h0c0,0-0.3,0.2-0.3,0.4c0,0.1,0.1,0.2,0.1,0.2h-1L69,32.8h0.2v-0.2H69v-1.2c0,0-0.2-0.4-0.5-0.5v-2
	h-0.1v2c-0.4,0.1-0.5,0.5-0.5,0.5v1.2h-0.2v0.2h0.2l-0.7,0.9h-1c0.1-0.1,0.1-0.1,0.1-0.2c0-0.2-0.3-0.4-0.3-0.4h0h-0.1h0
	c0,0-0.3,0.2-0.3,0.4c0,0.1,0.1,0.2,0.2,0.2l-0.9,2.5h-0.5v0.5L64,36.5c0,0,0-0.1,0-0.1c0-0.2-0.1-0.3-0.3-0.3
	c-0.2,0-0.3,0.1-0.3,0.3c0,0.1,0,0.1,0,0.1L63,36.9v18.4H49.4v4c-2.4-0.4-5.4-0.7-8.6-0.7c-3.4,0-6.6,0.3-9.1,0.8
	c-2.7,0.5-4,1.3-4,2.2c0,0.5,0.3,0.9,1,1.2c-0.5,0.1-1.1,0.4-1.8,0.7c0,0,0,0,0,0.1c0,0,0,0,0,0c0,0.3,0,13,0,16.6c0,0,0,0,0,0
	c0,0,0,0,0,0l0.5-0.2c-2.9,1.5-5.7,2.9-8.1,4.4c-1.3,0.7-2.5,1.5-3.6,2.1c-0.6,0.3-1.1,0.7-1.7,1c-0.5,0.4-1.1,0.7-1.6,1
	c-2,1.4-3.8,2.6-5.4,3.6c-1.5,1.1-2.8,2.1-3.8,2.9C1.1,96.7,0,97.6,0,97.6s1.2-0.7,3.4-2.1C4.5,94.8,5.9,94,7.5,93
	c1.7-0.9,3.5-1.9,5.7-3.1c0.5-0.3,1.1-0.6,1.6-0.9c0.6-0.3,1.2-0.6,1.8-0.8c1.2-0.6,2.5-1.2,3.8-1.8c2.6-1.3,5.5-2.5,8.6-3.8
	c6.2-2.6,13.3-5.2,21.1-7.7c2-0.6,4-1.2,6-1.8c1-0.3,2.1-0.6,3.1-0.9c1-0.3,2.1-0.6,3.2-0.9c2.2-0.6,4.3-1.1,6.6-1.7
	c1.1-0.3,2.2-0.6,3.4-0.9c1.1-0.3,2.3-0.5,3.4-0.8c2.3-0.5,4.6-1,7-1.5c0.6-0.1,1.2-0.2,1.8-0.3h1.4v-0.3c1.4-0.3,2.7-0.5,4.1-0.8
	c4.9-1,9.9-1.7,15-2.5c2.5-0.4,5.1-0.7,7.7-1c2.6-0.3,5.2-0.7,7.8-0.9c5.3-0.5,10.6-1.1,16-1.4c2.7-0.2,5.4-0.4,8.1-0.5
	c2.7-0.1,5.4-0.2,8.1-0.3c1.4,0,2.7-0.1,4.1-0.2l4.1-0.1c2.8,0,5.5-0.1,8.3-0.1c2.7,0,5.5,0.1,8.2,0.1l4.1,0.1
	c1.4,0,2.7,0.1,4.1,0.2c2.7,0.1,5.5,0.2,8.2,0.3c2.7,0.1,5.4,0.4,8.1,0.5c5.4,0.3,10.7,0.9,16,1.4c2.6,0.2,5.2,0.6,7.8,0.9
	c2.6,0.3,5.2,0.6,7.7,1c2.5,0.4,5.1,0.8,7.6,1.2c1.2,0.2,2.5,0.4,3.7,0.6c1.2,0.2,2.5,0.5,3.7,0.7c2.4,0.5,4.8,0.9,7.2,1.3
	c2.4,0.5,4.7,1,7,1.6c1.2,0.3,2.3,0.5,3.4,0.8c1.1,0.3,2.2,0.6,3.4,0.9c2.2,0.6,4.4,1.1,6.6,1.7c1.1,0.3,2.1,0.6,3.2,0.9
	c1,0.3,2.1,0.6,3.1,0.9c2.1,0.6,4.1,1.2,6,1.8c7.8,2.6,15,5.1,21.1,7.7c3.1,1.3,6,2.5,8.6,3.8c1.3,0.6,2.6,1.2,3.8,1.8
	c0.6,0.3,1.2,0.6,1.8,0.8c0.6,0.3,1.1,0.6,1.6,0.9c2.1,1.2,4,2.2,5.7,3.1c1.6,1,3,1.8,4.1,2.5c2.2,1.4,3.4,2.1,3.4,2.1
	S337.4,96.7,335.4,95.1z M70.9,33.7L70.9,33.7L70.9,33.7L70.9,33.7z M66,33.7L66,33.7L66,33.7L66,33.7z M28.5,61.6
	c0,0,0-0.7,3.4-1.4c0.1,0,0.2,0,0.3-0.1c-0.7,0.3-1.1,0.6-1.1,1c0,0,0,0,0,0v1.5c-0.1,0-0.5-0.1-1,0C28.5,62.1,28.5,61.6,28.5,61.6z
	 M130.5,39v2.3h-3.2v11.5c-1.8,0.2-3.5,0.4-5.3,0.6c0-0.6-0.7-7.3-0.7-7.3C123.2,43.6,127.7,40.7,130.5,39z M103.9,56
	c-0.2,0-0.5,0.1-0.7,0.1V37.7c1.1,0,2.2,0,2.2,0s8.7,4.8,11.5,8.4c0,0-0.7,6.9-0.7,7.3c0,0-3.2,0.2-4.1,1.4
	C109.3,55.2,106.6,55.6,103.9,56z"/>
</svg>
