<?xml version="1.0" encoding="utf-8"?>
<!-- Generator: Adobe Illustrator 22.1.0, SVG Export Plug-In . SVG Version: 6.00 Build 0)  -->
<svg version="1.1" id="Layer_1" xmlns="http://www.w3.org/2000/svg" xmlns:xlink="http://www.w3.org/1999/xlink" x="0px" y="0px"
	 width="69.8px" height="69.8px" viewBox="-226.2 401.4 69.8 69.8" style="enable-background:new -226.2 401.4 69.8 69.8;"
	 xml:space="preserve">
<style type="text/css">
	.st0{fill:#045D95;}
	.st1{fill:#092C56;}
	.st2{fill:#FFFFFF;}
</style>
<circle class="st1" cx="-191.3" cy="436.2" r="34.9"/>
<path id="Facebook_3_" class="st2" d="M-194.5,429c0,0.6,0,3.2,0,3.2h-2.4v4h2.4v12h5.1v-12h3.3c0,0,0.3-1.9,0.5-4
	c-0.4,0-3.7,0-3.7,0s0-2.3,0-2.7c0-0.4,0.5-1,1-1c0.5,0,1.6,0,2.7,0c0-0.5,0-2.4,0-4.3c-1.3,0-3,0-3.7,0
	C-194.6,424.3-194.5,428.4-194.5,429z"/>
</svg>
