<?xml version="1.0" encoding="utf-8"?>
<!-- Generator: Adobe Illustrator 22.1.0, SVG Export Plug-In . SVG Version: 6.00 Build 0)  -->
<svg version="1.1" id="Layer_1" xmlns="http://www.w3.org/2000/svg" xmlns:xlink="http://www.w3.org/1999/xlink" x="0px" y="0px"
	 width="69.8px" height="69.8px" viewBox="-322.4 401.4 69.8 69.8" style="enable-background:new -322.4 401.4 69.8 69.8;"
	 xml:space="preserve">
<style type="text/css">

</style>
<circle class="st1" cx="-287.5" cy="436.2" r="34.9"/>
<path class="st2" d="M-275.1,428.5c-0.9,0.4-1.9,0.7-2.9,0.8c1.1-0.6,1.9-1.6,2.2-2.8c-1,0.6-2.1,1-3.2,1.2c-0.9-1-2.3-1.6-3.7-1.6
	c-2.8,0-5.1,2.3-5.1,5.1c0,0.4,0,0.8,0.1,1.2c-4.3-0.2-8-2.2-10.5-5.3c-0.4,0.8-0.7,1.6-0.7,2.6c0,1.8,0.9,3.3,2.3,4.3
	c-0.8,0-1.6-0.3-2.3-0.6c0,0,0,0,0,0.1c0,2.5,1.8,4.5,4.1,5c-0.4,0.1-0.9,0.2-1.3,0.2c-0.3,0-0.7,0-1-0.1c0.7,2,2.5,3.5,4.8,3.6
	c-1.8,1.4-4,2.2-6.4,2.2c-0.4,0-0.8,0-1.2-0.1c2.3,1.5,5,2.3,7.8,2.3c9.4,0,14.6-7.8,14.6-14.6c0-0.2,0-0.4,0-0.7
	C-276.6,430.4-275.8,429.5-275.1,428.5z"/>
</svg>
