<?xml version="1.0" encoding="utf-8"?>
<!-- Generator: Adobe Illustrator 22.1.0, SVG Export Plug-In . SVG Version: 6.00 Build 0)  -->
<svg version="1.1" id="Layer_1" xmlns="http://www.w3.org/2000/svg" xmlns:xlink="http://www.w3.org/1999/xlink" x="0px" y="0px"
	 width="262.2px" height="18.7px" viewBox="269.3 870.9 262.2 18.7" style="enable-background:new 269.3 870.9 262.2 18.7;"
	 xml:space="preserve">
<style type="text/css">
	.st0{fill:#045D95;}
	.st1{fill:#092C56;}
	.st2{fill:#FFFFFF;}
</style>
<g>
	<g>
		<path class="st1" d="M325,870.9h1v1c0,0.7-0.4,1.1-1.2,1.1h-1v-1C323.8,871.2,324.2,870.9,325,870.9z M323.8,875.9
			c0-0.7,0.4-1.1,1.2-1.1h1v10.8h-1c-0.8,0-1.2-0.4-1.2-1.1V875.9z"/>
		<path class="st1" d="M331.4,883.3c0.3,0.2,0.6,0.4,1,0.4v1c0,0.5-0.2,0.8-0.7,0.9c-0.4,0.1-0.7,0.1-1.1-0.1
			c-0.6-0.3-1-0.7-1.4-1.2c-0.4-0.6-0.6-1.3-0.6-2.2V872c0-0.7,0.4-1.1,1.2-1.1h1v11.2C330.9,882.6,331.1,883.1,331.4,883.3z"/>
		<path class="st1" d="M342.4,875.7c1.1,0.9,1.6,2,1.6,3.2v6.7h-0.6c-0.5,0-0.9-0.3-1.2-0.9c-0.9,0.9-2.1,1.2-3.3,1.2
			c-1.4,0-2.6-0.4-3.6-1.3c-1.1-0.9-1.6-1.9-1.6-3.2v-2.5c0-1.3,0.5-2.4,1.6-3.2c1-0.8,2.2-1.3,3.6-1.3
			C340.2,874.4,341.4,874.8,342.4,875.7z M338.9,876.5c-0.9,0-1.6,0.3-2.2,0.8c-0.5,0.4-0.8,1-0.8,1.6v2.5c0,0.6,0.3,1.1,0.8,1.6
			c0.6,0.5,1.3,0.7,2.2,0.7s1.6-0.3,2.2-0.7c0.5-0.4,0.8-1,0.8-1.6v-2.5c0-0.6-0.3-1.1-0.8-1.6C340.5,876.8,339.7,876.5,338.9,876.5
			z"/>
		<path class="st1" d="M359.5,875.9c0-0.7,0.4-1.1,1.2-1.1h1v6.7c0,1.4-0.4,2.5-1.1,3.3c-0.8,0.8-1.9,1.2-3.2,1.2
			c-1.4,0-2.4-0.5-3.3-1.4c-0.8,0.9-1.9,1.4-3.3,1.4c-1.4,0-2.4-0.4-3.2-1.2c-0.8-0.8-1.1-1.9-1.1-3.3v-5.5c0-0.7,0.4-1.1,1.2-1.1h1
			v6.7c0,0.8,0.2,1.4,0.6,1.8c0.3,0.4,0.9,0.6,1.6,0.6c0.7,0,1.2-0.2,1.6-0.6c0.4-0.4,0.6-1,0.6-1.7v-5.5c0-0.7,0.4-1.1,1.2-1.1h1
			v6.7c0,0.7,0.2,1.3,0.6,1.7c0.4,0.4,0.9,0.6,1.6,0.6c0.7,0,1.3-0.2,1.6-0.6c0.4-0.4,0.6-1,0.6-1.8L359.5,875.9L359.5,875.9z"/>
		<path class="st1" d="M373.6,874.7l-4.2,11.9c-0.1,0.3-0.2,0.5-0.3,0.8c-0.1,0.2-0.2,0.5-0.3,0.7c-0.3,0.4-0.7,0.8-1.2,1.1
			c-0.4,0.2-0.8,0.2-1.1,0.1c-0.4-0.1-0.6-0.4-0.6-0.9v-1c0.3,0,0.5-0.1,0.7-0.2c0.3-0.1,0.5-0.3,0.5-0.5l0.4-1.1
			c-0.7-0.2-1.1-0.5-1.3-1l-3.2-8.9c-0.1-0.3-0.1-0.5,0-0.7c0.1-0.2,0.3-0.3,0.6-0.3h1.3l3.2,8.9h0l2.9-8.1c0.2-0.5,0.6-0.8,1.1-0.8
			L373.6,874.7L373.6,874.7z"/>
		<path class="st1" d="M382.4,874.9c0.5,0.3,1,0.7,1.3,1.1c0.4,0.6,0.6,1.2,0.6,1.9c0,0.6-0.1,1.1-0.4,1.6c-0.2,0.4-0.5,0.7-0.9,1
			c-0.4,0.3-0.8,0.5-1.3,0.6c-0.4,0.1-0.9,0.2-1.4,0.2h-2.6c-0.2,0-0.3,0-0.4,0c-0.1,0-0.3-0.1-0.3-0.2v0.9c0,0.5,0.3,0.9,0.8,1.2
			c0.4,0.3,0.9,0.4,1.5,0.4c0.5,0.1,1,0,1.6-0.1c0.4-0.1,0.7-0.2,1-0.4c0.1-0.1,0.2-0.1,0.3-0.3c0.3-0.4,0.7-0.4,1.3-0.2l1,0.5
			c-0.2,0.4-0.5,0.9-0.8,1.2c-0.5,0.5-1.1,0.9-1.8,1.1c-0.6,0.2-1.3,0.3-2.1,0.3c-0.6,0-1.2-0.1-1.7-0.2c-0.6-0.1-1.1-0.4-1.6-0.7
			c-0.5-0.4-0.9-0.8-1.2-1.4c-0.3-0.6-0.4-1.2-0.4-1.9v-3.5c0-0.5,0.1-1.1,0.4-1.6c0.4-0.8,1-1.3,1.8-1.7c0.7-0.4,1.6-0.5,2.5-0.5
			C380.5,874.4,381.5,874.5,382.4,874.9z M381.6,879c0.3-0.2,0.5-0.5,0.6-0.9c0-0.4-0.1-0.7-0.4-1c-0.4-0.3-1-0.5-1.6-0.5
			c-0.6,0-1.2,0-1.6,0.1c-0.4,0.1-0.8,0.3-1.1,0.5c-0.3,0.3-0.5,0.6-0.5,1v1h3.6C381,879.2,381.3,879.1,381.6,879z"/>
		<path class="st1" d="M386.3,878.5c0-1.3,0.4-2.3,1.2-2.9c0.7-0.6,1.5-0.9,2.4-0.9h1.4v1c0,0.8-0.4,1.2-1.1,1.2H390
			c-0.4,0-0.7,0.1-1,0.4c-0.3,0.3-0.5,0.7-0.5,1.3v7h-1c-0.8,0-1.2-0.4-1.2-1.1L386.3,878.5L386.3,878.5z"/>
		<path class="st1" d="M405.4,877.1c-0.4-0.4-0.9-0.6-1.6-0.6c-0.7,0-1.2,0.2-1.6,0.6c-0.4,0.4-0.6,1-0.6,1.7v6.7h-1
			c-0.8,0-1.2-0.4-1.2-1.1v-5.5c0-0.7-0.2-1.3-0.6-1.7c-0.4-0.4-0.9-0.6-1.6-0.6c-0.7,0-1.3,0.2-1.6,0.6c-0.4,0.4-0.6,1-0.6,1.8v6.7
			h-1c-0.8,0-1.2-0.4-1.2-1.1v-5.5c0-1.4,0.4-2.4,1.1-3.3c0.8-0.8,1.8-1.2,3.2-1.2c1.1,0,2.1,0.3,2.8,1c0.1,0.1,0.2,0.2,0.4,0.4
			c0.1-0.1,0.3-0.3,0.4-0.4c0.7-0.7,1.7-1,2.9-1c1.3,0,2.4,0.4,3.2,1.2c0.8,0.8,1.1,1.9,1.1,3.3v6.7h-1c-0.8,0-1.2-0.4-1.2-1.1v-5.5
			C405.9,878.1,405.8,877.5,405.4,877.1z"/>
		<path class="st1" d="M418.9,875.7c1.1,0.9,1.6,2,1.6,3.2v6.7h-0.6c-0.5,0-0.9-0.3-1.2-0.9c-0.9,0.9-2.1,1.2-3.3,1.2
			c-1.4,0-2.6-0.4-3.6-1.3c-1.1-0.9-1.6-1.9-1.6-3.2v-2.5c0-1.3,0.5-2.4,1.6-3.2c1-0.8,2.2-1.3,3.6-1.3
			C416.7,874.4,417.9,874.8,418.9,875.7z M415.3,876.5c-0.9,0-1.6,0.3-2.2,0.8c-0.5,0.4-0.8,1-0.8,1.6v2.5c0,0.6,0.3,1.1,0.8,1.6
			c0.6,0.5,1.3,0.7,2.2,0.7s1.6-0.3,2.2-0.7c0.5-0.4,0.8-1,0.8-1.6v-2.5c0-0.6-0.3-1.1-0.8-1.6C416.9,876.8,416.2,876.5,415.3,876.5
			z"/>
		<path class="st1" d="M422.9,878.5c0-1.3,0.4-2.3,1.2-2.9c0.7-0.6,1.5-0.9,2.4-0.9h1.4v1c0,0.8-0.4,1.2-1.1,1.2h-0.3
			c-0.4,0-0.7,0.1-1,0.4c-0.3,0.3-0.5,0.7-0.5,1.3v7h-1c-0.8,0-1.2-0.4-1.2-1.1V878.5z"/>
		<path class="st1" d="M429.7,872c0-0.7,0.4-1.1,1.2-1.1h1v8.4h0.8c0.4,0,0.8,0,1.1-0.4l2-3.3c0.3-0.5,0.8-0.8,1.3-0.8h1.7l-2.6,4.2
			c-0.1,0.2-0.3,0.4-0.4,0.6c0.7,0.3,1.3,0.9,1.6,1.8l1.9,4.2h-1.4c-0.6,0-1.1-0.2-1.3-0.7l-1.2-2.7c-0.2-0.5-0.6-0.8-1.2-0.8h-2.3
			v4.2h-1c-0.8,0-1.2-0.4-1.2-1.1L429.7,872L429.7,872z"/>
		<path class="st1" d="M448,874.9c0.5,0.3,1,0.7,1.3,1.1c0.4,0.6,0.6,1.2,0.6,1.9c0,0.6-0.1,1.1-0.4,1.6c-0.2,0.4-0.5,0.7-0.9,1
			c-0.4,0.3-0.8,0.5-1.3,0.6c-0.4,0.1-0.9,0.2-1.4,0.2h-2.6c-0.2,0-0.3,0-0.4,0c-0.1,0-0.3-0.1-0.3-0.2v0.9c0,0.5,0.3,0.9,0.8,1.2
			c0.4,0.3,0.9,0.4,1.5,0.4c0.5,0.1,1,0,1.6-0.1c0.4-0.1,0.7-0.2,1-0.4c0.1-0.1,0.2-0.1,0.3-0.3c0.3-0.4,0.7-0.4,1.3-0.2l1,0.5
			c-0.2,0.4-0.5,0.9-0.8,1.2c-0.5,0.5-1.1,0.9-1.8,1.1c-0.6,0.2-1.3,0.3-2.1,0.3c-0.6,0-1.2-0.1-1.7-0.2c-0.6-0.1-1.1-0.4-1.6-0.7
			c-0.5-0.4-0.9-0.8-1.2-1.4c-0.3-0.6-0.4-1.2-0.4-1.9v-3.5c0-0.5,0.1-1.1,0.4-1.6c0.4-0.8,1-1.3,1.8-1.7c0.7-0.4,1.6-0.5,2.5-0.5
			C446.1,874.4,447.2,874.5,448,874.9z M447.3,879c0.3-0.2,0.5-0.5,0.6-0.9c0-0.4-0.1-0.7-0.4-1c-0.4-0.3-1-0.5-1.6-0.5
			c-0.6,0-1.2,0-1.6,0.1c-0.4,0.1-0.8,0.3-1.1,0.5c-0.3,0.3-0.5,0.6-0.5,1v1h3.6C446.6,879.2,447,879.1,447.3,879z"/>
		<path class="st1" d="M456.7,874.7v1c0,0.8-0.4,1.2-1.1,1.2h-1.4v5.2c0,0.6,0.2,1,0.5,1.3c0.3,0.2,0.6,0.4,1,0.4v1
			c0,0.5-0.2,0.8-0.6,0.9c-0.4,0.1-0.7,0.1-1.1-0.1c-0.6-0.3-1-0.7-1.4-1.2c-0.4-0.6-0.6-1.3-0.6-2.2V872c0-0.7,0.4-1.1,1.2-1.1h1
			v3.9H456.7z"/>
		<path class="st1" d="M459.7,870.9h1v1c0,0.7-0.4,1.1-1.2,1.1h-1v-1C458.5,871.2,458.9,870.9,459.7,870.9z M458.5,875.9
			c0-0.7,0.4-1.1,1.2-1.1h1v10.8h-1c-0.8,0-1.2-0.4-1.2-1.1V875.9z"/>
		<path class="st1" d="M464.8,875.6c1-0.8,2.1-1.2,3.4-1.2c1.3,0,2.5,0.4,3.4,1.2c1,0.9,1.5,1.9,1.5,3.1v6.8h-1
			c-0.8,0-1.2-0.4-1.2-1.1v-5.7c0-0.6-0.3-1-0.7-1.4c-0.6-0.5-1.2-0.7-2-0.7c-0.8,0-1.5,0.2-2,0.7c-0.5,0.4-0.7,0.9-0.7,1.4v6.8h-1
			c-0.8,0-1.2-0.4-1.2-1.1v-5.7C463.3,877.5,463.8,876.5,464.8,875.6z"/>
		<path class="st1" d="M484,875.7c1.1,0.9,1.6,2,1.6,3.2v6.6c0,0.7-0.1,1.3-0.4,1.8c-0.5,1.1-1.6,1.8-2.7,2.1
			c-0.6,0.2-1.2,0.3-1.9,0.3c-0.6,0-1.1-0.1-1.7-0.2c-0.5-0.1-0.8-0.3-1-0.6c-0.1-0.2-0.1-0.5,0-0.9l0.2-0.9
			c0.5,0.2,1.1,0.3,1.9,0.4c0.7,0,1.3-0.1,1.9-0.2c1-0.3,1.6-0.9,1.6-1.8V885c-0.9,0.6-1.9,0.9-3,0.9c-1.4,0-2.6-0.4-3.6-1.3
			c-1.1-0.9-1.6-1.9-1.6-3.2v-2.5c0-1.3,0.5-2.4,1.6-3.2c1-0.8,2.2-1.3,3.6-1.3C481.8,874.4,483,874.8,484,875.7z M480.4,876.5
			c-0.9,0-1.6,0.3-2.2,0.8c-0.5,0.4-0.8,1-0.8,1.6v2.5c0,0.6,0.3,1.1,0.8,1.6c0.6,0.5,1.3,0.7,2.2,0.7s1.6-0.3,2.2-0.7
			c0.5-0.4,0.8-1,0.8-1.6v-2.5c0-0.6-0.3-1.1-0.8-1.6C482,876.8,481.3,876.5,480.4,876.5z"/>
		<path class="st1" d="M489.4,883.1h1v1.3c0,0.7-0.4,1.1-1.2,1.1h-1v-1.3C488.2,883.5,488.6,883.1,489.4,883.1z"/>
		<path class="st1" d="M492.7,878.7c0-1.2,0.5-2.2,1.5-3.1c1-0.8,2.1-1.2,3.4-1.2s2.5,0.4,3.4,1.2c0.6,0.5,1,1,1.3,1.7l-0.9,0.5
			c-0.6,0.3-1,0.2-1.4-0.3c-0.1-0.1-0.2-0.2-0.3-0.3c-0.6-0.5-1.3-0.7-2.1-0.7c-0.8,0-1.5,0.2-2,0.7c-0.5,0.4-0.7,0.9-0.7,1.4v2.9
			c0,0.6,0.3,1,0.7,1.4c0.6,0.4,1.2,0.7,2,0.7c0.8,0,1.5-0.2,2.1-0.7c0.1-0.1,0.1-0.1,0.3-0.3c0.4-0.4,0.9-0.5,1.4-0.3l0.9,0.5
			c-0.3,0.7-0.7,1.2-1.3,1.7c-1,0.8-2.1,1.2-3.4,1.2c-1.3,0-2.5-0.4-3.4-1.2c-1-0.8-1.5-1.9-1.5-3.1V878.7z"/>
		<path class="st1" d="M512.6,875.7c1.1,0.9,1.6,2,1.6,3.2v2.5c0,1.3-0.5,2.3-1.6,3.2c-1,0.8-2.2,1.3-3.6,1.3
			c-1.4,0-2.6-0.4-3.6-1.3c-1.1-0.9-1.6-1.9-1.6-3.2v-2.5c0-1.3,0.5-2.4,1.6-3.2c1-0.8,2.2-1.3,3.6-1.3
			C510.4,874.4,511.6,874.8,512.6,875.7z M509,876.5c-0.9,0-1.6,0.3-2.2,0.8c-0.5,0.4-0.8,1-0.8,1.6v2.5c0,0.6,0.3,1.1,0.8,1.6
			c0.6,0.5,1.3,0.7,2.2,0.7s1.6-0.3,2.2-0.7c0.5-0.4,0.8-1,0.8-1.6v-2.5c0-0.6-0.3-1.1-0.8-1.6C510.6,876.8,509.9,876.5,509,876.5z"
			/>
		<path class="st1" d="M528.8,877.1c-0.4-0.4-0.9-0.6-1.6-0.6c-0.7,0-1.2,0.2-1.6,0.6c-0.4,0.4-0.6,1-0.6,1.7v6.7h-1
			c-0.8,0-1.2-0.4-1.2-1.1v-5.5c0-0.7-0.2-1.3-0.6-1.7c-0.4-0.4-0.9-0.6-1.6-0.6c-0.7,0-1.3,0.2-1.6,0.6c-0.4,0.4-0.6,1-0.6,1.8v6.7
			h-1c-0.8,0-1.2-0.4-1.2-1.1v-5.5c0-1.4,0.4-2.4,1.1-3.3c0.8-0.8,1.8-1.2,3.2-1.2c1.1,0,2.1,0.3,2.8,1c0.1,0.1,0.2,0.2,0.4,0.4
			c0.1-0.1,0.3-0.3,0.4-0.4c0.7-0.7,1.7-1,2.9-1c1.3,0,2.4,0.4,3.2,1.2c0.8,0.8,1.1,1.9,1.1,3.3v6.7h-1c-0.8,0-1.2-0.4-1.2-1.1v-5.5
			C529.4,878.1,529.2,877.5,528.8,877.1z"/>
	</g>
	<g>
		<path class="st1" d="M273.5,878.8c0-0.9-0.1-1.8-1.1-1.8c-0.6,0-1.1,0.3-1.1,1c0,0.8,0.5,1.1,1.1,1.5c0.6,0.4,1.8,1.2,2.4,1.7
			c0.7,0.6,0.9,1.3,0.9,2.2c0,2-1.3,3-3.2,3c-2.3,0-3.2-1.3-3.2-3.2v-0.8h1.9v0.6c0,1,0.3,1.7,1.2,1.7c0.8,0,1.2-0.4,1.2-1.2
			c0-0.6-0.3-1-0.8-1.4c-1-0.8-2.3-1.4-3.1-2.4c-0.3-0.5-0.5-1-0.5-1.6c0-1.8,1-2.7,3-2.7c3.1,0,3,2.4,3,3.4H273.5z"/>
		<path class="st1" d="M277.8,886v-10.4h1.9V886H277.8z"/>
		<path class="st1" d="M281.5,875.6h6.5v1.5h-2.3v8.8h-1.9v-8.8h-2.3L281.5,875.6L281.5,875.6z"/>
		<path class="st1" d="M289.6,886v-10.4h5.4v1.5h-3.5v2.6h3.2v1.5h-3.2v3.2h3.5v1.5H289.6z"/>
		<path class="st1" d="M301.1,886v-10.4h3.1c0.8,0,1.6,0.1,2.2,0.8c0.4,0.6,0.5,1.2,0.5,1.9c0,0.9-0.2,1.8-1.2,2.2v0
			c1.1,0.2,1.5,1.1,1.5,2.4c0,0.4,0,0.9-0.1,1.3c-0.4,1.3-1.2,1.9-2.5,1.9L301.1,886L301.1,886z M303.4,879.8c0.5,0,1.1,0,1.4-0.4
			c0.2-0.3,0.2-0.6,0.2-1.1c0-0.8-0.2-1.2-1.1-1.2h-0.9v2.7H303.4z M303.5,884.5c0.4,0,0.8,0,1.2-0.1c0.5-0.2,0.6-0.9,0.6-1.4
			c0-1.1-0.2-1.6-1.4-1.6h-0.7v3.1L303.5,884.5L303.5,884.5z"/>
		<path class="st1" d="M311.8,878.4c0.2,0.5,0.4,1,0.5,1.6h0c0.1-0.8,0.4-1.4,0.6-2l0.9-2.4h2.1l-2.7,6v4.4h-1.9v-4.4l-2.7-6h2.1
			L311.8,878.4z"/>
	</g>
</g>
</svg>
