
<svg version="1.1" id="Layer_1" xmlns="http://www.w3.org/2000/svg" xmlns:xlink="http://www.w3.org/1999/xlink" x="0px" y="0px"
	 width="69.8px" height="69.8px" viewBox="-129.9 401.4 69.8 69.8" style="enable-background:new -129.9 401.4 69.8 69.8;"
	 xml:space="preserve">
<style type="text/css">

</style>
<circle class="st1" cx="-95.1" cy="436.2" r="34.9"/>
<path id="LinkedIn_3_" class="st2" d="M-82.4,436.8v8.6h-4.9v-8c0-2-0.8-3.4-2.6-3.4c-1.4,0-2.3,0.9-2.6,1.8
	c-0.1,0.3-0.2,0.8-0.2,1.2v8.4h-4.9c0,0,0.1-13.7,0-15h4.9v2.1c0,0,0.1-0.1,0.1-0.1h-0.1v0.1c0.8-1,1.9-2.5,4.6-2.5
	C-84.9,430-82.4,432.1-82.4,436.8z M-102.9,423.1c-1.7,0-2.8,1.1-2.8,2.6c0,1.4,1.1,2.6,2.8,2.6h0c1.7,0,2.8-1.1,2.8-2.6
	C-100.1,424.2-101.2,423.1-102.9,423.1z M-105.4,445.4h4.9v-15h-4.9V445.4z"/>
</svg>
