<svg version="1.1" id="Layer_1" xmlns="http://www.w3.org/2000/svg" xmlns:xlink="http://www.w3.org/1999/xlink" x="0px" y="0px"
	 width="69.8px" height="69.8px" viewBox="-415.3 401.4 69.8 69.8" style="enable-background:new -415.3 401.4 69.8 69.8;"
	 xml:space="preserve">
<style type="text/css">
	
</style>
<circle class="st0" cx="-380.4" cy="436.2" r="34.9"/>
<g>
	<path class="st2" d="M-397.4,436.3c-0.2-5.9,4.9-11.3,10.8-11.4c3-0.3,5.9,0.9,8.2,2.8c-0.9,1-1.9,2-2.9,3c-2-1.2-4.4-2.1-6.7-1.3
		c-3.8,1.1-6,5.5-4.6,9.2c1.2,3.8,5.8,6,9.5,4.3c1.9-0.7,3.1-2.4,3.7-4.3c-2.2,0-4.3,0-6.5-0.1c0-1.3,0-2.6,0-3.9
		c3.6,0,7.3,0,10.9,0c0.2,3.2-0.2,6.6-2.3,9.1c-2.8,3.6-8,4.7-12.3,3.3C-394.2,445.5-397.5,441-397.4,436.3z"/>
	<path class="st2" d="M-368.1,431.2c1.1,0,2.2,0,3.2,0c0,1.2,0.1,2.2,0.1,3.3c1.1,0,2.2,0.1,3.3,0.1c0,1.1,0,2.2,0,3.2
		c-1.2,0-2.3,0-3.3,0c0,1.1-0.1,2.2-0.1,3.3c-1.1,0-2.2,0-3.3,0c0-1.1,0-2.2,0-3.2c-1.1,0-2.4,0-3.2,0c0-1.1,0-2.2,0-3.2
		c0.8,0,2.1-0.1,3.2-0.1C-368.1,433.5-368.1,432.4-368.1,431.2z"/>
</g>
</svg>
