<?xml version="1.0" encoding="utf-8"?>
<!-- Generator: Adobe Illustrator 22.1.0, SVG Export Plug-In . SVG Version: 6.00 Build 0)  -->
<svg version="1.1" id="Layer_1" xmlns="http://www.w3.org/2000/svg" xmlns:xlink="http://www.w3.org/1999/xlink" x="0px" y="0px"
	 width="221.3px" height="31.6px" viewBox="0 0 221.3 31.6" style="enable-background:new 0 0 221.3 31.6;" xml:space="preserve">
<style type="text/css">
	.st0{fill:url(#SVGID_1_);}
	.st1{fill:url(#SVGID_2_);}
	.st2{fill:url(#SVGID_3_);}
	.st3{fill:url(#SVGID_4_);}
	.st4{fill:url(#SVGID_5_);}
	.st5{fill:url(#SVGID_6_);}
	.st6{fill:url(#SVGID_7_);}
	.st7{fill:url(#SVGID_8_);}
	.st8{fill:url(#SVGID_9_);}
	.st9{fill:url(#SVGID_10_);}
	.st10{fill:url(#SVGID_11_);}
	.st11{fill:url(#SVGID_12_);}
	.st12{fill:url(#SVGID_13_);}
	.st13{fill:url(#SVGID_14_);}
	.st14{fill:url(#SVGID_15_);}
	.st15{fill:url(#SVGID_16_);}
	.st16{fill:url(#SVGID_17_);}
	.st17{fill:url(#SVGID_18_);}
	.st18{fill:url(#SVGID_19_);}
	.st19{fill:url(#SVGID_20_);}
	.st20{fill:url(#SVGID_21_);}
	.st21{fill:url(#SVGID_22_);}
	.st22{fill:url(#SVGID_23_);}
	.st23{fill:url(#SVGID_24_);}
	.st24{fill:url(#SVGID_25_);}
	.st25{fill:url(#SVGID_26_);}
	.st26{fill:url(#SVGID_27_);}
	.st27{fill:url(#SVGID_28_);}
	.st28{fill:url(#SVGID_29_);}
	.st29{fill:url(#SVGID_30_);}
	.st30{fill:url(#SVGID_31_);}
	.st31{fill:url(#SVGID_32_);}
	.st32{fill:url(#SVGID_33_);}
	.st33{fill:url(#SVGID_34_);}
	.st34{fill:url(#SVGID_35_);}
	.st35{fill:url(#SVGID_36_);}
	.st36{fill:url(#SVGID_37_);}
	.st37{fill:url(#SVGID_38_);}
	.st38{fill:url(#SVGID_39_);}
	.st39{fill:url(#SVGID_40_);}
	.st40{fill:url(#SVGID_41_);}
	.st41{fill:url(#SVGID_42_);}
	.st42{fill:url(#SVGID_43_);}
	.st43{fill:url(#SVGID_44_);}
	.st44{fill:url(#SVGID_45_);}
	.st45{fill:url(#SVGID_46_);}
	.st46{fill:url(#SVGID_47_);}
	.st47{fill:url(#SVGID_48_);}
	.st48{fill:url(#SVGID_49_);}
	.st49{fill:url(#SVGID_50_);}
	.st50{fill:url(#SVGID_51_);}
	.st51{fill:url(#SVGID_52_);}
	.st52{fill:url(#SVGID_53_);}
	.st53{fill:url(#SVGID_54_);}
	.st54{fill:url(#SVGID_55_);}
	.st55{fill:url(#SVGID_56_);}
	.st56{fill:url(#SVGID_57_);}
	.st57{fill:url(#SVGID_58_);}
	.st58{fill:url(#SVGID_59_);}
	.st59{fill:url(#SVGID_60_);}
	.st60{fill:url(#SVGID_61_);}
	.st61{fill:url(#SVGID_62_);}
	.st62{fill:url(#SVGID_63_);}
	.st63{fill:url(#SVGID_64_);}
	.st64{fill:url(#SVGID_65_);}
	.st65{fill:url(#SVGID_66_);}
	.st66{fill:url(#SVGID_67_);}
	.st67{fill:url(#SVGID_68_);}
	.st68{fill:url(#SVGID_69_);}
	.st69{fill:url(#SVGID_70_);}
	.st70{fill:url(#SVGID_71_);}
	.st71{fill:url(#SVGID_72_);}
	.st72{fill:url(#SVGID_73_);}
	.st73{fill:url(#SVGID_74_);}
	.st74{fill:url(#SVGID_75_);}
	.st75{fill:url(#SVGID_76_);}
	.st76{fill:url(#SVGID_77_);}
	.st77{fill:url(#SVGID_78_);}
	.st78{fill:url(#SVGID_79_);}
	.st79{fill:url(#SVGID_80_);}
	.st80{fill:url(#SVGID_81_);}
	.st81{fill:url(#SVGID_82_);}
	.st82{fill:url(#SVGID_83_);}
	.st83{fill:url(#SVGID_84_);}
	.st84{fill:url(#SVGID_85_);}
	.st85{fill:url(#SVGID_86_);}
	.st86{fill:url(#SVGID_87_);}
	.st87{fill:url(#SVGID_88_);}
	.st88{fill:url(#SVGID_89_);}
	.st89{fill:url(#SVGID_90_);}
	.st90{fill:url(#SVGID_91_);}
	.st91{fill:url(#SVGID_92_);}
	.st92{fill:url(#SVGID_93_);}
	.st93{fill:url(#SVGID_94_);}
	.st94{fill:#BA2B2B;}
	.st95{fill:#045D95;}
	.st96{fill:url(#SVGID_95_);}
	.st97{fill:url(#SVGID_96_);}
	.st98{fill:url(#SVGID_97_);}
	.st99{fill:url(#SVGID_98_);}
</style>
<g>
	<path class="st94" d="M221.3,16.7c0-0.1-0.2-0.1-0.5-0.1c-0.3,0-220,0-220.3,0c-0.3,0-0.5,0.1-0.5,0.2c0,0.3,0,0.6,0,0.9
		c0,0.1,0.2,0.2,0.5,0.2c0.3,0,220.1,0,220.4,0c0.3,0,0.4-0.1,0.4-0.1L221.3,16.7z"/>
	<g>
		<path class="st95" d="M98.4,28.8c-1,0-1.9,0-2.8,0c0.1-0.1,0.1-0.3,0.2-0.3c0.3-0.1,0.4-0.3,0.4-0.6c0-1.1,0-2.1,0-3.2
			c0-0.5-0.1-0.6-0.5-0.7c-0.1,0.4-0.1,0.9-0.6,1.1c-0.5,0.2-0.8-0.3-1.2-0.5c-0.2,0.1-0.3,0.3-0.3,0.5c0,0.9,0,1.8,0,2.7
			c0,0.3,0.1,0.5,0.4,0.6c0.1,0,0.2,0.1,0.2,0.2c-0.5,0.2-1,0.1-1.5,0.2c-0.5,0-1,0-1.5,0c0.1-0.2,0.2-0.3,0.2-0.3
			c0.3-0.1,0.4-0.4,0.4-0.6c0-1,0-2,0-2.9c0-0.4-0.1-0.8-0.5-1c0,0-0.1-0.1-0.1-0.2c0.1,0,0.1-0.1,0.2-0.1c0.7-0.1,1.4-0.2,2.1-0.4
			c0,0.2,0.1,0.4,0.1,0.7c0.3-0.3,0.4-0.7,0.9-0.8c0.4-0.1,0.8,0.1,1,0.4c0.8-0.1,1.6-0.3,2.5-0.4c0,0.2,0.1,0.3,0.1,0.6
			c0.2-0.1,0.3-0.2,0.5-0.3c0.4-0.3,0.8-0.4,1.3-0.3c0.6,0,1,0.3,1.1,0.9c0.1,0.3,0.1,0.5,0.1,0.8c0,0.9,0,1.8,0,2.6
			c0,0.4,0,0.8,0.5,1c0,0,0,0.1,0.1,0.2c-0.5,0.2-0.9,0.1-1.4,0.1c-0.5,0-0.9,0-1.5,0c0.1-0.2,0.1-0.3,0.2-0.3
			c0.3-0.1,0.3-0.3,0.3-0.6c0-1,0-2.1,0-3.1c0-0.1,0-0.1,0-0.2c0-0.4-0.2-0.6-0.5-0.6c-0.3,0-0.6,0.3-0.6,0.5c0,0.2,0,0.4,0,0.7
			c0,0.8,0,1.7,0,2.5c0,0.3,0,0.6,0.3,0.8C98.4,28.6,98.4,28.7,98.4,28.8z"/>
		<path class="st95" d="M137.6,20.9c0.4-0.2,1.8-0.3,3.5-0.2c0.1,0,0.3,0,0.4,0.2c-0.1,0.1-0.2,0.1-0.4,0.2
			c-0.4,0.2-0.5,0.2-0.5,0.7c0,0.3,0,0.5,0,0.8c0,1.6,0,3.2,0,4.8c0,0.2,0,0.3,0,0.5c0,0.5,0.2,0.6,0.7,0.6c0.5,0,0.9-0.2,1.2-0.5
			c0.6-0.5,0.9-1.1,1.2-1.8c0.1-0.2,0.1-0.4,0.4-0.5c0,0.2,0,0.3,0,0.4c-0.1,0.8-0.3,1.6-0.4,2.4c0,0.2-0.2,0.3-0.4,0.3
			c-0.1,0-0.3,0-0.4,0c-1.5,0-3.1,0-4.6,0c-0.2,0-0.4,0-0.6,0c-0.1-0.2,0-0.3,0.2-0.3c0.6-0.2,0.6-0.2,0.6-0.8c0-1.9,0-3.9,0-5.8
			c0-0.6,0-0.6-0.5-0.8C137.8,21.1,137.7,21,137.6,20.9z"/>
		<path class="st95" d="M74.1,28.7c0.1-0.1,0.2-0.1,0.3-0.2c0.4-0.1,0.4-0.2,0.3-0.6c-0.2-0.5-0.3-1-0.5-1.5
			C74.2,26.1,74,26,73.8,26c-0.4,0-0.8,0-1.3,0c-0.2,0-0.4,0.1-0.4,0.3c-0.1,0.3-0.2,0.7-0.2,1c0,0.5,0.1,0.9,0.6,1.1
			c0.1,0,0.2,0.1,0.3,0.2c-0.3,0.2-2.2,0.2-2.8,0.1c0-0.1,0.1-0.2,0.1-0.2c0.7-0.3,1.1-0.9,1.3-1.6c0.4-1,0.7-1.9,1-2.9
			c0.1-0.3,0.2-0.6,0.3-0.9c0.2-0.4,0.3-0.8-0.3-1.1c0.4-0.3,0.7-0.5,1-0.7c0.3-0.3,0.5-0.6,0.8-0.9c0.1,0.2,0.2,0.3,0.2,0.5
			c0.7,2.1,1.4,4.1,2.2,6.2c0.2,0.6,0.4,1.2,1,1.4c0,0,0,0.1,0.1,0.2c-0.4,0.2-0.8,0.1-1.2,0.1c-0.4,0-0.8,0-1.3,0
			C75,28.8,74.6,28.9,74.1,28.7z M72.4,25.6c0.6,0.2,1.3,0.1,1.6,0c-0.1-0.8-0.5-1.9-0.8-2.2C72.9,24.1,72.6,24.8,72.4,25.6z"/>
		<path class="st95" d="M123.9,22.1c0.3-0.2,0.7-0.4,0.9-0.7c0.3-0.2,0.5-0.5,0.8-0.9c0.1,0.2,0.2,0.3,0.2,0.4c0.7,2,1.4,4,2.1,6
			c0.1,0.2,0.2,0.5,0.3,0.7c0.1,0.4,0.3,0.8,0.8,0.9c0,0,0.1,0.1,0.1,0.1c0,0,0,0.1,0,0.1c-0.3,0.1-3.1,0.2-3.6,0
			c-0.1-0.2,0.1-0.2,0.2-0.3c0.3-0.1,0.4-0.2,0.3-0.5c-0.2-0.6-0.4-1.1-0.5-1.7c-0.1-0.2-0.2-0.2-0.3-0.2c-0.5,0-0.9,0-1.4,0
			c-0.2,0-0.3,0.1-0.4,0.3c-0.1,0.3-0.2,0.6-0.2,0.9c-0.1,0.6,0.1,1,0.6,1.3c0.1,0,0.1,0.1,0.2,0.2c-0.4,0.2-2.3,0.2-2.8,0
			c0.1-0.1,0.1-0.2,0.1-0.2c0.6-0.2,1-0.7,1.2-1.3c0.2-0.6,0.5-1.2,0.7-1.8c0.3-0.8,0.5-1.6,0.8-2.4c0.1-0.4,0.2-0.6-0.2-0.9
			C123.9,22.2,123.9,22.2,123.9,22.1z M123.7,25.6c0.6,0.1,1.1,0.1,1.6,0c0-0.5-0.5-1.9-0.8-2.3C124.2,24.1,123.9,24.8,123.7,25.6z"
			/>
		<path class="st95" d="M155,28.9c-0.1-0.2-0.2-0.3-0.3-0.5c-0.3-0.8-0.6-1.5-0.8-2.3c-0.1-0.1-0.1-0.3-0.2-0.5
			c-0.5,1.1-0.9,2.2-1.4,3.3c-0.3,0-0.4-0.3-0.4-0.4c-0.5-1.2-0.9-2.3-1.4-3.5c-0.1-0.3-0.2-0.6-0.3-0.8c-0.1-0.2-0.3-0.4-0.5-0.7
			c0.3-0.2,0.6-0.1,0.9-0.1c0.3,0,0.6,0,1,0c0.3,0,0.6-0.1,0.9,0.1c-0.1,0.1-0.1,0.2-0.2,0.3c0,0.1-0.1,0.3-0.1,0.4
			c0.2,0.7,0.5,1.3,0.7,2c0.4-0.4,0.6-1,0.5-1.4c-0.2-0.5-0.4-0.9-0.6-1.4c0.4-0.2,2.2-0.2,2.6,0.1c-0.1,0.1-0.1,0.2-0.2,0.2
			c-0.1,0.1-0.2,0.3-0.1,0.4c0.2,0.7,0.5,1.4,0.8,2.1c0.3-0.6,0.6-1.1,0.6-1.7c0-0.3,0-0.5-0.3-0.7c-0.1-0.1-0.1-0.1-0.2-0.2
			c0.4-0.2,1.5-0.2,1.9,0c-0.1,0.1-0.1,0.1-0.2,0.2c-0.5,0.2-0.7,0.6-0.9,1.1c-0.5,1.3-1,2.5-1.5,3.7c-0.1,0.1-0.2,0.3-0.2,0.4
			C155.1,28.9,155,28.9,155,28.9z"/>
		<path class="st95" d="M149.2,28.3c0.2-0.2,0.4-0.3,0.5-0.4c0.1,0.3,0,0.6-0.4,0.9c-0.7,0.4-1.4,0.3-2.1-0.4
			c-0.1,0.1-0.3,0.2-0.4,0.3c-0.4,0.2-0.8,0.4-1.2,0.3c-0.5,0-0.9-0.2-1-0.7c-0.2-0.5-0.1-1,0.3-1.3c0.2-0.2,0.5-0.4,0.8-0.5
			c0.4-0.2,0.8-0.4,1.2-0.5c0.2-0.1,0.3-0.2,0.3-0.5c0-0.4,0-0.8,0-1.3c0-0.2,0-0.4-0.2-0.4c-0.2,0-0.5,0.2-0.5,0.4
			c0,0.1,0,0.2,0,0.4c0,0.2,0,0.5,0,0.7c-0.1,0.7-0.8,1.1-1.4,0.7c-0.3-0.2-0.4-0.5-0.3-0.9c0.1-0.4,0.3-0.6,0.6-0.9
			c0.7-0.6,1.6-0.9,2.5-0.8c0.9,0.1,1.3,0.5,1.3,1.4c0,1,0,2,0,2.9C149.1,27.8,149.2,28,149.2,28.3z M147.1,26.2
			c-0.2,0.1-0.2,0.1-0.3,0.1c-0.4,0.3-0.6,1.2-0.3,1.6c0.1,0.1,0.2,0.2,0.3,0.1c0.1-0.1,0.3-0.2,0.3-0.3
			C147.2,27.3,147.1,26.8,147.1,26.2z"/>
		<path class="st95" d="M85.4,26.2c0-1.6,1.2-2.8,2.7-2.9c1.5,0,2.8,1.2,2.8,2.8c0,1.6-1.2,2.9-2.7,2.9C86.7,29,85.4,27.8,85.4,26.2
			z M87.4,26.1C87.4,26.1,87.5,26.1,87.4,26.1c0.1,0.4,0.1,0.8,0.1,1.3c0,0.3,0.1,0.6,0.2,0.8c0.1,0.2,0.2,0.4,0.5,0.4
			c0.2,0,0.4-0.2,0.4-0.4c0.1-0.2,0.2-0.5,0.2-0.7c0-0.9,0-1.7,0-2.6c0-0.2,0-0.4-0.1-0.5c-0.1-0.4-0.3-0.6-0.5-0.6
			c-0.3,0-0.5,0.2-0.5,0.6C87.5,24.9,87.5,25.5,87.4,26.1z"/>
		<path class="st95" d="M106.6,26.7c0,0.1,0,0.3,0,0.4c-0.3,1.7-2.3,2.5-3.7,1.4c-1.5-1.1-1.4-4.1,0.5-5c1.2-0.6,3-0.1,3.2,1.8
			c0,0.3,0,0.4-0.4,0.4c-0.6,0-1.2,0-1.8,0c-0.2,0-0.4,0-0.5,0c-0.1,0.6,0.2,1.3,0.6,1.6c0.4,0.2,0.8,0.3,1.2,0
			c0.3-0.2,0.6-0.5,0.8-0.8C106.5,26.7,106.6,26.7,106.6,26.7z M104.8,25.4c0.1-0.5,0.1-0.9-0.1-1.3c-0.1-0.2-0.2-0.4-0.4-0.3
			c-0.2,0-0.3,0.2-0.4,0.3c-0.2,0.4-0.2,0.9-0.1,1.3C104.1,25.4,104.5,25.4,104.8,25.4z"/>
		<path class="st95" d="M110.1,26.5c0.4-0.6,0.6-1.2,0.6-1.8c0-0.4,0-0.7-0.4-1c-0.1,0-0.1-0.1-0.1-0.2c0.3-0.2,1.5-0.2,1.9,0
			c0,0.1,0,0.1-0.1,0.2c-0.5,0.4-0.7,0.9-0.9,1.5c-0.6,1.6-1.2,3.2-1.8,4.8c-0.2,0.4-0.4,0.8-0.6,1.2c-0.2,0.4-0.6,0.5-1,0.5
			c-0.4,0-0.7-0.3-0.8-0.8c-0.1-0.4,0.1-0.8,0.4-1c0.3-0.2,0.7-0.1,1,0.2c0.1,0.1,0.2,0.3,0.3,0.4c0.5-0.5,0.7-1.3,0.5-1.9
			c-0.6-1.4-1.1-2.8-1.7-4.1c-0.1-0.3-0.3-0.5-0.5-0.7c0-0.1-0.1-0.1-0.2-0.2c0.1-0.1,0.2-0.1,0.2-0.1c0.6-0.1,2.3,0,2.5,0.1
			c0,0.1-0.1,0.2-0.1,0.3c0,0.1-0.1,0.3-0.1,0.4C109.5,24.9,109.8,25.7,110.1,26.5z"/>
		<path class="st95" d="M112.5,26.4c0.1,0.2,0.1,0.4,0.2,0.6c0.2,0.4,0.3,0.8,0.5,1.1c0.2,0.4,0.6,0.6,1,0.6c0.4,0,0.7-0.2,0.8-0.5
			c0.1-0.3,0-0.6-0.4-0.9c-0.2-0.1-0.5-0.2-0.8-0.4c-0.2-0.1-0.5-0.2-0.7-0.3c-1-0.5-1.1-1.7-0.5-2.5c0.3-0.5,0.8-0.8,1.4-0.8
			c0.6-0.1,1.1,0,1.6,0.2c0.2,0.1,0.4,0.2,0.4,0.5c0,0.4,0,0.9,0,1.4c-0.2-0.1-0.3-0.1-0.3-0.2c-0.1-0.1-0.1-0.3-0.2-0.4
			c-0.1-0.4-0.4-0.7-0.7-0.9c-0.3-0.2-0.6-0.3-1-0.2c-0.2,0.1-0.4,0.3-0.4,0.5c0,0.2,0.1,0.4,0.3,0.5c0.2,0.2,0.5,0.2,0.7,0.4
			c0.3,0.1,0.6,0.2,0.9,0.4c1.2,0.7,1.4,2.2,0.3,3.1c-0.3,0.2-0.7,0.4-1.1,0.5c-0.7,0.1-1.3,0-2-0.2c-0.1-0.1-0.3-0.2-0.3-0.3
			c0-0.6,0-1.2,0-1.8C112.3,26.6,112.3,26.5,112.5,26.4z"/>
		<path class="st95" d="M77.6,24.1c0.8-0.8,1.6-1.6,2.4-2.4c0,0.6,0,1.1,0.1,1.7c0.4,0,0.7,0.1,1.1,0.1c0,0.6-0.1,0.7-0.6,0.7
			c-0.1,0-0.2,0-0.3,0c-0.2,0-0.3,0.1-0.3,0.3c0,1.1,0,2.2,0,3.3c0,0.2,0.1,0.4,0.3,0.5c0.2,0.1,0.4,0,0.5-0.2
			c0.1-0.2,0.3-0.4,0.4-0.6c0,0,0.1,0,0.1,0c0,0.1,0.1,0.2,0,0.3c-0.1,0.4-0.3,0.8-0.7,1c-0.6,0.3-1.2,0.3-1.8,0.1
			c-0.5-0.2-0.7-0.6-0.7-1.1c0-0.6,0-1.1,0-1.7c0-0.5,0-0.9,0-1.4C78.2,24.3,78.1,24.1,77.6,24.1z"/>
		<path class="st95" d="M82,24.2c-0.2-0.1-0.3-0.1-0.5-0.2c0.8-0.8,1.5-1.5,2.3-2.4c0,0.6,0,1.1,0.1,1.7c0.4,0,0.7,0.1,1.1,0.1
			c0,0.6-0.1,0.7-0.6,0.7c-0.1,0-0.3,0-0.4,0c0,0-0.1,0-0.1,0.1c0,0.1,0,0.3,0,0.4c0,0.9,0,1.9,0,2.8c0,0,0,0.1,0,0.1
			c0,0.3,0,0.5,0.3,0.6c0.3,0.1,0.5-0.1,0.7-0.4c0.1-0.1,0.2-0.3,0.2-0.4c0,0,0.1,0,0.1,0c0,0.1,0.1,0.2,0,0.3
			c-0.1,0.4-0.3,0.8-0.7,1c-0.6,0.3-1.2,0.3-1.9,0.1c-0.3-0.1-0.5-0.4-0.6-0.7c0-0.2-0.1-0.5-0.1-0.7c0-0.9,0-1.8,0-2.6
			C82,24.6,82,24.4,82,24.2z"/>
		<path class="st95" d="M131.3,24.2c0,0.2,0,0.3,0,0.4c0,1,0,1.9,0,2.9c0,0.1,0,0.2,0,0.3c0,0.2,0.1,0.4,0.3,0.5
			c0.2,0.1,0.4,0,0.6-0.2c0.1-0.1,0.2-0.3,0.2-0.4c0-0.1,0.1-0.2,0.1-0.2c0.1,0,0.1,0.1,0.2,0.1c0,0.1,0.1,0.2,0,0.4
			c-0.1,0.5-0.4,0.8-0.9,1c-0.5,0.2-1,0.2-1.5,0.1c-0.4-0.1-0.7-0.4-0.7-0.9c0-0.2,0-0.4,0-0.6c0-0.9,0-1.8,0-2.6c0-0.2,0-0.4,0-0.5
			c-0.2-0.1-0.3-0.1-0.5-0.2c0.8-0.8,1.5-1.5,2.3-2.3c0.2,0.5,0,1.1,0.1,1.6c0.4,0,0.7,0.1,1,0.1c0.1,0.5,0,0.7-0.5,0.7
			C131.7,24.1,131.5,24.1,131.3,24.2z"/>
	</g>
	<g>
		<g>
			<path class="st95" d="M12,12.8c0.6,0,1.1-0.3,1.5-0.6c0.6-0.6,1-1.3,1.4-2.1c0.5-1.3,1-2.6,1.6-3.9c0.3-0.8,0.6-1.6,0.9-2.4
				c0.2-0.6,0.2-0.7-0.4-1c-0.1,0-0.2-0.1-0.2-0.1c0-0.3,0.2-0.3,0.3-0.4c0.7-0.4,1.4-0.8,2-1.4c0.2-0.2,0.3-0.4,0.5-0.6
				c0.1-0.1,0.2-0.2,0.3-0.4C19.9,0.2,20,0.4,20,0.5c1.2,3.1,2.5,6.2,3.7,9.3c0.2,0.5,0.4,1,0.6,1.6c0.3,0.6,0.6,1.2,1.4,1.3
				c0.1,0,0.3,0.1,0.2,0.3c0,0.1-0.2,0.1-0.3,0.2c-0.1,0-0.2,0-0.3,0c-1.8,0-3.6,0-5.4,0c-0.1,0-0.3,0-0.4,0c-0.1,0-0.2-0.1-0.2-0.2
				c0-0.1,0.1-0.2,0.2-0.3c0.1-0.1,0.3,0,0.4-0.1c0.5-0.1,0.7-0.3,0.6-0.8c-0.1-0.3-0.2-0.6-0.3-0.8c-0.2-0.7-0.5-1.3-0.7-2
				c-0.1-0.2-0.2-0.4-0.5-0.4c-0.9,0-1.9,0-2.8,0c-0.2,0-0.4,0-0.5,0.3c-0.2,0.7-0.5,1.3-0.5,2c0,0.8,0.4,1.3,1.1,1.6
				c0.2,0.1,0.5,0.1,0.5,0.5c-0.1,0-0.3,0.1-0.4,0.1c-1.4,0-2.8,0-4.2,0c-0.2,0-0.4,0-0.6,0c-0.2,0-0.3-0.1-0.4-0.2
				c-0.3-0.5-0.4-0.5-0.9-0.4C10,12.7,9.5,13,9,13.1c-2.2,0.7-4.3,0.5-6.3-0.8c-1.5-1-2.3-2.4-2.6-4.1C-0.1,7,0,5.7,0.4,4.5
				C1.2,2.3,2.8,0.9,5,0.3c1.5-0.4,3-0.2,4.5,0.5c0.3,0.2,0.6,0.3,1,0.4c0.5,0.1,0.6,0.1,0.8-0.4c0-0.1,0.1-0.2,0.1-0.3
				c0.1-0.2,0.4-0.1,0.5,0.1c0,0.1,0.1,0.3,0.1,0.4c0,1.4,0,2.7,0,4.1c0,0.1,0,0.2,0,0.3c0,0.1-0.1,0.2-0.2,0.2
				c-0.1,0-0.2-0.1-0.3-0.2c-0.1-0.1-0.1-0.3-0.2-0.4c-0.5-1.3-1.2-2.4-2.1-3.4c-0.5-0.5-1.1-0.9-1.8-1C6.6,0.6,6,0.8,5.4,1.4
				C5.1,1.8,4.8,2.3,4.7,2.8c-0.3,1-0.5,2-0.5,3.1c-0.1,1.4,0,2.8,0.2,4.2c0.1,0.5,0.2,1.1,0.5,1.6c0.5,1.2,1.5,1.6,2.9,1.2
				c1-0.3,1.7-1,2.4-1.7c0.5-0.6,1-1.3,1.2-2.1c0.1-0.2,0.1-0.6,0.4-0.5c0.3,0.1,0.2,0.4,0.2,0.6c0,1,0,2.1,0,3.1
				C12,12.4,12,12.6,12,12.8z M19.2,8.2c0-0.2-0.1-0.3-0.1-0.4c-0.4-1.1-0.9-2.3-1.3-3.4c0,0,0,0,0,0c0,0,0,0-0.1,0
				c-0.5,1.2-1,2.5-1.5,3.8C17.2,8.2,18.2,8.2,19.2,8.2z"/>
			<path class="st95" d="M61.6,0.1c2.2,0.1,4.2,0.9,5.6,2.7c1,1.3,1.4,2.9,1.2,4.6c-0.3,3.6-3.2,5.8-6.2,6c-1.8,0.1-3.5-0.3-5-1.3
				c-1.6-1.2-2.5-2.9-2.6-4.9c-0.1-1.6,0.3-3,1.2-4.3c1.3-1.7,3-2.5,5-2.7C61.1,0.1,61.3,0.1,61.6,0.1z M58.7,6.8
				c0,0.8,0.1,1.7,0.1,2.5c0.1,0.6,0.2,1.3,0.4,1.9c0.2,0.7,0.7,1.3,1.4,1.5c1.5,0.4,2.6-0.1,3.1-1.5c0.2-0.6,0.3-1.2,0.4-1.9
				c0.2-1.7,0.2-3.5,0-5.3c-0.1-0.8-0.2-1.6-0.6-2.3c-0.5-0.8-1.2-1.2-2.2-1.2c-0.9,0-1.6,0.4-2,1.2c-0.2,0.3-0.3,0.6-0.4,1
				C58.8,4.2,58.8,5.5,58.7,6.8z"/>
			<path class="st95" d="M52.5,7.6c0-0.1,0-0.2,0-0.2c0-1.3,0-2.7,0-4c0-0.3,0-0.6-0.1-0.9c-0.1-0.8-0.6-1.2-1.4-1.4
				c-0.2,0-0.3-0.1-0.4-0.2c-0.1,0-0.2-0.2-0.1-0.3c0-0.1,0.1-0.2,0.2-0.2c0.1,0,0.3,0,0.4,0c0.5,0,1.1,0,1.6,0c0.7,0,1.3,0,2,0
				c0.1,0,0.3,0,0.4,0c0.2,0,0.3,0.1,0.3,0.2c0,0.1-0.1,0.2-0.2,0.3C55,1,54.9,1,54.8,1.1c-0.7,0.2-1.2,0.7-1.4,1.4
				c-0.1,0.4-0.1,0.9-0.1,1.3c0,3,0,6.1,0,9.1c0,0.2,0,0.3,0,0.5c0,0.2-0.2,0.3-0.4,0.2c-0.1-0.1-0.2-0.2-0.3-0.3
				c-2.6-3.1-5.2-6.2-7.8-9.4c-0.1-0.2-0.3-0.3-0.5-0.5c0,0.2-0.1,0.3-0.1,0.4c0,2.2,0,4.3,0,6.5c0,0.3,0.1,0.7,0.2,1
				c0.2,0.6,0.5,1,1.1,1.1c0.2,0.1,0.4,0.1,0.5,0.2c0.1,0.1,0.2,0.2,0.2,0.3c0,0.2-0.2,0.2-0.3,0.3c-0.1,0-0.2,0-0.2,0
				c-1.2,0-2.5,0-3.7,0c-0.3,0-0.5-0.1-0.6-0.3c0-0.3,0.2-0.3,0.4-0.4c0.1,0,0.2-0.1,0.2-0.1c0.8-0.2,1.2-0.8,1.3-1.6
				c0-0.3,0.1-0.6,0.1-0.9c0-2.3,0-4.6,0-6.9c0-0.5-0.2-0.9-0.5-1.2c-0.4-0.4-0.8-0.7-1.3-0.9c-0.2-0.1-0.5-0.1-0.4-0.4
				c0.1-0.3,0.3-0.2,0.5-0.2c1.5,0,2.9,0,4.4,0c0.2,0,0.4,0.1,0.5,0.3c1.1,1.3,2.2,2.7,3.3,4c0.7,0.9,1.5,1.8,2.2,2.7
				c0.1,0.1,0.1,0.2,0.2,0.2C52.5,7.7,52.5,7.6,52.5,7.6z"/>
			<path class="st95" d="M70.6,3.5c0,0.1,0,0.3,0,0.4c0,2.1,0,4.2,0,6.3c0,0.4,0.1,0.9,0.2,1.3c0.2,0.5,0.5,0.8,1,1
				c0.2,0.1,0.4,0.1,0.5,0.2c0.1,0.1,0.2,0.2,0.2,0.3c0,0.2-0.2,0.2-0.3,0.3c-0.1,0-0.2,0-0.2,0c-1.2,0-2.5,0-3.7,0
				c-0.3,0-0.5-0.1-0.6-0.3c0-0.3,0.2-0.3,0.4-0.4c0.3-0.1,0.6-0.2,0.8-0.4c0.5-0.3,0.7-0.8,0.7-1.3c0-0.3,0.1-0.5,0.1-0.8
				c0-2.4,0-4.8,0-7.2c0-0.4-0.1-0.7-0.4-1c-0.4-0.4-0.8-0.8-1.4-1c0,0-0.1,0-0.1,0c-0.2-0.1-0.4-0.1-0.3-0.4c0-0.2,0.3-0.2,0.4-0.2
				c0.9,0,1.7,0,2.6,0c0.5,0,1.1,0,1.6,0c0.4,0,0.7,0.1,0.9,0.4C75,3,76.8,5.1,78.6,7.3c0.1,0.1,0.2,0.2,0.4,0.4
				C79,7.5,79,7.4,79,7.3c0-1.3,0-2.7,0-4c0-0.3-0.1-0.5-0.1-0.8c-0.2-0.8-0.7-1.2-1.4-1.4C77.3,1,77.2,1,77,0.9
				c-0.1,0-0.1-0.2-0.1-0.3c0-0.1,0.1-0.2,0.2-0.2c0.1,0,0.3,0,0.4,0c0.6,0,1.1,0,1.7,0c0.7,0,1.3,0,2,0c0.1,0,0.3,0,0.4,0
				c0.1,0,0.2,0.1,0.3,0.2c0,0.1-0.1,0.2-0.2,0.3C81.5,1,81.4,1,81.3,1c-1.1,0.3-1.5,1-1.6,2c0,0.2,0,0.4,0,0.5c0,3.1,0,6.3,0,9.4
				c0,0.1,0,0.3,0,0.4c0,0.3-0.2,0.4-0.5,0.2c-0.1-0.1-0.2-0.2-0.3-0.3c-2.5-3.1-5.1-6.1-7.6-9.2C71.1,3.9,70.9,3.7,70.6,3.5
				C70.7,3.5,70.7,3.5,70.6,3.5z"/>
			<path class="st95" d="M29.3,3.5c0,0.2,0,0.3,0,0.5c0,2,0,4.1,0,6.1c0,0.4,0.1,0.9,0.2,1.3c0.1,0.6,0.5,1,1.1,1.1
				c0.2,0.1,0.4,0.1,0.6,0.2c0.1,0,0.2,0.2,0.2,0.3c0,0.1-0.1,0.2-0.2,0.2c-0.1,0-0.2,0-0.4,0c-1.2,0-2.5,0-3.7,0c0,0,0,0,0,0
				c-0.3,0-0.6-0.1-0.6-0.3c0-0.3,0.2-0.3,0.5-0.4c0.2-0.1,0.4-0.1,0.6-0.2c0.5-0.2,0.8-0.7,0.9-1.3c0.1-0.4,0.1-0.8,0.1-1.2
				c0-2.3,0-4.7,0-7c0-0.3-0.1-0.5-0.2-0.7c-0.4-0.5-0.9-1-1.6-1.2c0,0-0.1,0-0.1,0c-0.2-0.1-0.3-0.1-0.3-0.4c0-0.2,0.2-0.2,0.4-0.2
				c0.8,0,1.5,0,2.3,0c0.7,0,1.3,0.1,2,0c0.4,0,0.6,0.1,0.8,0.4c1.8,2.2,3.5,4.3,5.3,6.4c0.1,0.1,0.2,0.2,0.4,0.4
				c0-0.2,0.1-0.3,0.1-0.4c0-1.4,0-2.7,0-4.1c0-0.2,0-0.3,0-0.5c-0.1-0.8-0.6-1.4-1.4-1.6C36,1,35.8,1,35.7,0.9
				c-0.1,0-0.1-0.2-0.1-0.3c0-0.1,0.1-0.2,0.2-0.2c0.1,0,0.3,0,0.4,0c0.6,0,1.3,0,1.9,0c0.6,0,1.2,0,1.8,0c0.1,0,0.3,0,0.4,0
				c0.1,0,0.2,0.1,0.2,0.2c0,0.1-0.1,0.2-0.1,0.3C40.2,1,40,1,39.9,1.1c-0.9,0.2-1.3,0.8-1.5,1.6c-0.1,0.3-0.1,0.7-0.1,1
				c0,3.1,0,6.2,0,9.3c0,0.2,0,0.3,0,0.5c0,0.2-0.2,0.3-0.4,0.2c-0.1-0.1-0.3-0.2-0.4-0.4c-1.6-1.9-3.2-3.8-4.8-5.8
				c-1-1.2-2-2.5-3.1-3.7c-0.1-0.1-0.2-0.2-0.3-0.4C29.4,3.5,29.3,3.5,29.3,3.5z"/>
		</g>
		<path class="st95" d="M93.9,12.2c-0.3,0.2-0.6,0.4-0.9,0.6c-1.8,1-3.7,1.1-5.6,0.2c-2.2-1-2.8-3.8-1.2-5.6c0.4-0.4,0.9-0.7,1.4-1
			c0.2-0.1,0.3-0.1,0.5-0.2C88,6.1,87.9,6,87.9,5.8c-1.4-2.1-0.4-4.8,2.1-5.5c0.7-0.2,1.4-0.2,2.2,0c1.2,0.4,2.1,1.6,2,2.8
			C94.1,4,93.7,4.6,93,5c-0.1,0.1-0.3,0.2-0.4,0.3C93,5.7,93.4,6,93.7,6.3c0.4,0.3,0.7,0.7,1.1,1.1c0.3,0.4,0.6,0.7,1,1.1
			c0.5-0.7,0.5-2,0-2.6c-0.1-0.1-0.3-0.2-0.5-0.3c-0.1-0.1-0.3-0.1-0.4-0.1c-0.2-0.1-0.4-0.1-0.4-0.3c0-0.2,0.2-0.2,0.4-0.2
			c1.4,0,2.8,0,4.2,0c0.1,0,0.2,0,0.2,0c0.1,0,0.1,0.1,0.1,0.2c0,0.1,0,0.2-0.1,0.2c-0.1,0.1-0.3,0.1-0.4,0.2
			c-0.9,0.3-1.5,0.8-1.9,1.6c-0.3,0.5-0.6,1.1-0.9,1.6c-0.1,0.2-0.1,0.3,0.1,0.5c0.5,0.7,0.9,1.4,1.4,2.1c0.1,0.2,0.2,0.3,0.4,0.5
			c0.5,0.5,1.1,0.3,1.4-0.2c0.1-0.2,0.1-0.4,0.2-0.5c0.1-0.2,0-0.4,0.3-0.4c0.3,0,0.2,0.3,0.2,0.5c0,0.6-0.2,1.1-0.6,1.5
			c-0.5,0.5-1.1,0.8-1.7,0.9c-1.4,0.3-2.7,0-3.8-1C94,12.3,94,12.3,93.9,12.2z M88.8,7c0,0.1-0.1,0.1-0.1,0.1c0,0.1,0,0.1-0.1,0.2
			c-0.2,1.2-0.1,2.5,0.5,3.6c0.9,1.6,2.6,2.1,4.1,1.2c0.1-0.1,0.2-0.2,0.3-0.2C92.1,10,90.5,8.4,88.8,7z M92,5
			c0.3-0.2,0.5-0.5,0.6-0.8c0.3-0.9,0.2-1.8-0.1-2.6c-0.1-0.2-0.2-0.3-0.3-0.4c-0.4-0.5-0.9-0.5-1.5-0.4C90.2,0.9,90,1.4,90,1.9
			C89.9,2.5,90,3,90.4,3.5C90.8,4.1,91.4,4.6,92,5z"/>
		<g>
			<path class="st95" d="M140.8,7.7c0-0.1,0-0.3,0-0.4c0-1.3,0-2.6,0-3.8c0-0.4-0.1-0.8-0.2-1.1c-0.2-0.6-0.5-0.9-1.1-1.1
				c-0.2-0.1-0.4-0.1-0.6-0.2c-0.1-0.1-0.3-0.2-0.2-0.3c0-0.1,0.2-0.2,0.3-0.2c0.1,0,0.3,0,0.4,0c1.2,0,2.4,0,3.5,0c0,0,0.1,0,0.1,0
				c0.7,0.2,1.5,0,2.2,0c0.7,0,1.5,0,2.2,0c0.7,0,1.5,0,2.2,0c0.5,0,1,0,1.5,0c0.8,0,1.5,0.2,2.2,0.5c1.3,0.6,1.9,1.6,1.9,3
				c0,1.5-0.8,2.5-2.1,3.1c-0.8,0.3-1.6,0.5-2.4,0.5c-0.4,0-0.9,0-1.3,0c-0.2,0-0.3,0-0.5,0c0,0.2,0,0.3,0,0.5c0,1.1,0,2.3,0,3.4
				c0,0.7,0.2,0.9,0.9,1c0.1,0,0.2,0,0.3,0.1c0.2,0,0.3,0.1,0.3,0.3c0,0.2-0.2,0.2-0.3,0.3c-0.1,0-0.2,0-0.3,0c-1.8,0-3.6,0-5.5,0
				c-0.1,0-0.3,0-0.4,0c-0.1,0-0.3-0.1-0.3-0.2c0-0.1,0.1-0.3,0.2-0.3c0.2-0.1,0.4-0.1,0.6-0.1c0.5-0.1,0.7-0.3,0.7-0.8
				c0-0.1,0-0.3,0-0.4c0-3,0-6,0-9c0,0,0-0.1,0-0.1c0-0.9-0.1-1.1-1-1.2c-0.2,0-0.4-0.1-0.5-0.2c-0.2,0.1-0.5,0.2-0.7,0.3
				c-0.9,0.2-1.3,0.9-1.4,1.7c0,0.3,0,0.5,0,0.8c0,3.1,0,6.3,0,9.4c0,0.2,0,0.3,0,0.5c0,0.3-0.2,0.4-0.4,0.2
				c-0.1-0.1-0.3-0.2-0.4-0.4c-1.5-1.8-3.1-3.7-4.6-5.5c-1.1-1.3-2.2-2.6-3.3-3.9c-0.1-0.1-0.2-0.2-0.4-0.4c0,0.2,0,0.4,0,0.6
				c0,2.1,0,4.1,0,6.2c0,0.3,0,0.7,0.1,1c0.1,0.7,0.6,1.1,1.3,1.4c0.1,0,0.3,0.1,0.4,0.1c0.2,0.1,0.3,0.2,0.3,0.3
				c0,0.2-0.2,0.2-0.4,0.2c-0.1,0-0.2,0-0.2,0c-1.2,0-2.5,0-3.7,0c-0.1,0-0.2,0-0.3,0c-0.1,0-0.2-0.1-0.2-0.2c0-0.1,0.1-0.2,0.1-0.3
				c0.1-0.1,0.2-0.1,0.4-0.1c0.9-0.2,1.4-0.8,1.5-1.7c0-0.2,0-0.4,0-0.6c0-2.4,0-4.8,0-7.2c0-0.4-0.1-0.6-0.3-0.9
				c-0.4-0.6-1-0.9-1.7-1.1c-0.5-0.1-1.1,0.2-1.5,0.7c-0.3,0.5-0.4,1.1-0.4,1.7c0,1.9,0,3.9,0,5.8c0,0.4,0,0.9-0.1,1.3
				c0,0.3-0.1,0.6-0.3,0.9c-0.5,1.1-1.3,1.6-2.4,1.9c-1.6,0.4-3.2,0.4-4.8-0.1c-0.3-0.1-0.5-0.2-0.8-0.3c-1.2-0.6-1.8-1.5-1.8-2.9
				c0-2.5,0-4.9,0-7.4c0-0.2,0-0.4,0-0.5c0-0.7-0.2-0.9-0.9-1c-0.1,0-0.3,0-0.4-0.1c-0.1-0.1-0.2-0.2-0.2-0.3c0-0.1,0.1-0.2,0.2-0.2
				c0.1,0,0.2,0,0.3,0c1.9,0,3.8,0,5.7,0c0.1,0,0.2,0,0.3,0c0.1,0,0.2,0.1,0.2,0.2c0,0.1-0.1,0.2-0.1,0.3C122.7,1,122.5,1,122.4,1
				c-0.7,0.1-0.9,0.3-0.9,1c0,2.8,0,5.6,0,8.3c0,0.3,0,0.6,0.1,0.8c0.2,0.8,0.8,1.3,1.6,1.5c1.3,0.3,2.8-0.2,3.5-1.4
				c0.3-0.5,0.4-1,0.4-1.6c0-2.2,0-4.3,0-6.5c0-0.3,0-0.6-0.1-0.9c-0.2-0.7-0.5-1.1-1.2-1.3c-0.1,0-0.3-0.1-0.4-0.1
				c-0.1,0-0.2-0.2-0.1-0.2c0-0.1,0.1-0.2,0.2-0.2c0.1,0,0.2,0,0.3,0c1.4,0,2.8,0,4.3,0c1.4,0,2.9,0,4.3,0c0.3,0,0.5,0.2,0.7,0.4
				c1.6,2,3.2,3.9,4.9,5.9C140.1,7,140.4,7.4,140.8,7.7C140.7,7.7,140.8,7.7,140.8,7.7z M149,7c1.2,0.3,1.9-0.2,2.1-1
				c0.1-0.4,0.2-0.9,0.2-1.3c0-0.9,0.1-1.7-0.2-2.6c-0.3-0.9-0.8-1.2-1.8-1.1c-0.1,0-0.2,0.1-0.2,0.2c0,0.1,0,0.2,0,0.3
				c0,1.7,0,3.3,0,5C149,6.7,149,6.8,149,7z"/>
			<path class="st95" d="M160.6,6c1.2,0,2.4,0,3.6,0c0-0.2,0-0.4,0-0.5c0-1.1,0-2.1,0-3.2c0-0.1,0-0.3,0-0.4
				c-0.1-0.6-0.2-0.7-0.8-0.9c-0.1,0-0.2,0-0.2-0.1c-0.1-0.1-0.1-0.2-0.1-0.3c0-0.1,0.1-0.2,0.2-0.2c0.1,0,0.2,0,0.3,0
				c2.1,0,4.2,0,6.3,0c1.5,0,2.9,0,4.4,0c0.4,0,0.9,0,1.3,0c0.1,0,0.3,0,0.4,0c0.2,0,0.4,0,0.4,0.2c0,0.2-0.2,0.2-0.4,0.3
				c-0.8,0.2-1,0.6-0.6,1.3c0.6,1.2,1.2,2.3,1.8,3.5c0.1,0.1,0.1,0.2,0.2,0.4c0.1-0.1,0.2-0.2,0.2-0.3c0.4-0.7,0.8-1.5,1.2-2.2
				c0.3-0.5,0.5-1,0.5-1.6c0-0.6-0.1-0.9-0.7-1.1c-0.2-0.1-0.4-0.1-0.4-0.3c0-0.3,0.3-0.3,0.5-0.3c0.3,0,0.5,0,0.8,0
				c0.7,0,1.5,0,2.2,0c0.2,0,0.3,0,0.5,0c0.2,0,0.2,0.2,0.1,0.4c0,0-0.1,0.1-0.2,0.1c-0.8,0.3-1.4,1-1.9,1.7c-0.7,1.1-1.3,2.2-2,3.2
				c-0.4,0.6-0.5,1.2-0.5,1.8c0,1.3,0,2.5,0,3.8c0,0.2,0,0.4,0,0.5c0.1,0.3,0.2,0.5,0.6,0.6c0.2,0,0.4,0.1,0.6,0.1
				c0.2,0,0.3,0.1,0.3,0.3c0,0.2-0.2,0.2-0.3,0.3c-0.1,0-0.2,0-0.3,0c-1.8,0-3.7,0-5.5,0c-0.1,0-0.2,0-0.3,0c-0.2,0-0.3-0.1-0.3-0.2
				c0-0.2,0.1-0.3,0.3-0.3c0.2,0,0.3-0.1,0.5-0.1c0.5-0.1,0.7-0.3,0.7-0.9c0-1.4,0-2.7,0-4.1c0-0.2-0.1-0.3-0.1-0.5
				c-1-1.8-2-3.6-3.1-5.3c-0.2-0.3-0.4-0.5-0.7-0.7c-0.3-0.2-0.6-0.3-0.9-0.1c-0.2,0.1-0.4,0.1-0.6,0.1c-0.5,0.1-0.7,0.3-0.7,0.8
				c0,0.6,0,1.1,0,1.7c0,2.6,0,5.2,0,7.8c0,0.9,0.1,1,1,1.2c0.1,0,0.3,0,0.4,0.1c0.1,0.1,0.2,0.2,0.2,0.3c0,0.1-0.1,0.2-0.2,0.2
				c-0.1,0-0.3,0-0.4,0c-0.8,0-1.6,0-2.4,0c-0.9,0-1.8,0-2.8,0c-0.1,0-0.3,0-0.4,0c-0.1,0-0.2-0.1-0.2-0.2c0-0.1,0.1-0.2,0.2-0.3
				c0.1-0.1,0.3-0.1,0.4-0.1c0.3-0.1,0.5-0.2,0.5-0.6c0-0.2,0-0.4,0.1-0.6c0-1.4,0-2.9,0-4.3c0-0.1,0-0.2,0-0.2
				c0-0.2-0.1-0.3-0.3-0.3c-0.1,0-0.1,0-0.2,0c-0.9,0-1.8,0-2.6,0c-0.5,0-0.5,0-0.5,0.5c0,1.5,0,3.1,0,4.6c0,0.6,0.1,0.8,0.7,1
				c0.1,0,0.2,0,0.2,0.1c0.1,0.1,0.2,0.2,0.2,0.3c0,0.1-0.1,0.2-0.2,0.2c-0.1,0-0.3,0-0.4,0c-0.7,0-1.5,0-2.2,0c-1,0-2,0-3,0
				c-0.1,0-0.3,0-0.4,0c-0.1,0-0.2-0.1-0.2-0.2c0-0.1,0.1-0.2,0.2-0.3c0.2-0.1,0.4-0.1,0.6-0.1c0.5-0.1,0.7-0.3,0.7-0.8
				c0-0.1,0-0.3,0-0.4c0-3,0-6.1,0-9.1c0,0,0-0.1,0-0.1c0-0.8-0.2-1-1-1.1c-0.4-0.1-0.5-0.2-0.5-0.4c0-0.2,0.2-0.3,0.6-0.3
				c1.8,0,3.5,0,5.3,0c0.1,0,0.2,0,0.3,0c0.1,0,0.2,0.1,0.2,0.2c0,0.1-0.1,0.2-0.1,0.3C161.5,1,161.4,1,161.3,1
				c-0.4,0.1-0.6,0.3-0.7,0.8c0,0.1,0,0.2,0,0.2c0,1.1,0,2.3,0,3.4C160.6,5.6,160.6,5.8,160.6,6z"/>
			<path class="st95" d="M107,0.4c1.1,0,2.1,0,3.2,0c1,0,2.1,0.2,3,0.7c1.5,0.7,2.5,1.9,3,3.6c0.4,1.3,0.4,2.6,0.1,3.9
				c-0.6,2.3-2.1,3.8-4.4,4.3c-0.8,0.2-1.5,0.2-2.3,0.3c-1.2,0-2.4,0-3.5,0c-0.8,0-1.6,0-2.4,0c-0.2,0-0.4,0.1-0.5-0.2
				c0-0.2,0.1-0.3,0.4-0.4c1-0.2,1.1-0.3,1.1-1.2c0-3.1,0-6.1,0-9.2c0-0.1,0-0.2,0-0.2c0-0.6-0.2-0.8-0.8-0.9c-0.1,0-0.3,0-0.4,0
				c-0.2,0-0.3-0.1-0.3-0.4c0-0.2,0.2-0.2,0.4-0.2c0.2,0,0.5,0,0.7,0C105.1,0.4,106.1,0.4,107,0.4z M108.4,0.9c0,0.2,0,0.4,0,0.5
				c0,3.5,0,7,0,10.5c0,0.6,0.3,0.8,0.8,0.9c1.2,0.1,2.2-0.4,2.6-1.5c0.2-0.6,0.4-1.2,0.5-1.8c0.3-1.8,0.2-3.5,0-5.3
				c-0.1-0.7-0.3-1.4-0.6-2.1c-0.3-0.5-0.6-0.9-1.2-1.1C109.8,0.8,109.1,0.9,108.4,0.9z"/>
			<path class="st95" d="M190.4,10.6c0-0.7,0-1.4,0-2.1c0-0.1,0-0.2,0-0.3c0-0.2,0-0.3,0.2-0.4c0.2-0.1,0.3,0.1,0.4,0.3
				c0.1,0.3,0.2,0.6,0.2,0.8c0.3,1.3,0.9,2.4,2,3.2c0.8,0.7,1.8,1,2.9,0.6c0.9-0.3,1.3-0.9,1.4-1.8c0.1-0.8-0.2-1.5-0.9-2
				c-0.4-0.3-0.9-0.5-1.4-0.6c-0.7-0.3-1.5-0.4-2.2-0.7c-0.4-0.1-0.8-0.3-1.2-0.6c-0.8-0.5-1.3-1.3-1.4-2.3c-0.2-2.3,1.2-4,3.5-4.5
				c1.2-0.3,2.3-0.1,3.4,0.2c0.3,0.1,0.5,0.2,0.8,0.2c0.4,0.1,0.5,0.1,0.7-0.3c0-0.1,0-0.1,0.1-0.2c0.1-0.2,0.3-0.2,0.4,0
				c0,0.1,0.1,0.2,0.1,0.4c0.1,1.2,0.1,2.4,0.2,3.6c0,0,0,0.1,0,0.1c0,0.2,0,0.4-0.2,0.4c-0.1,0-0.2-0.1-0.3-0.3
				c-0.3-0.6-0.5-1.2-0.9-1.8c-0.4-0.7-0.9-1.3-1.6-1.7c-0.8-0.5-1.6-0.5-2.5-0.2c-0.7,0.3-1,0.8-1.1,1.6c-0.1,0.7,0.3,1.2,0.9,1.5
				c0.5,0.2,1,0.4,1.5,0.6c0.7,0.2,1.4,0.4,2.1,0.7c0.3,0.1,0.6,0.2,0.9,0.4c1.7,0.8,2.3,2.2,2.1,4c-0.3,2-1.6,3.1-3.5,3.7
				c-1.5,0.4-3,0.3-4.4-0.2c-0.3-0.1-0.6-0.2-0.9-0.2c-0.3-0.1-0.5,0-0.7,0.3c0,0,0,0.1-0.1,0.1c-0.1,0.1-0.2,0.1-0.3,0.1
				c-0.1,0-0.1-0.1-0.2-0.2c0-0.1,0-0.3,0-0.4C190.4,12.1,190.4,11.4,190.4,10.6z"/>
			<path class="st95" d="M216.5,3.1c0,0.7,0,1.3,0,2c0,0.1,0,0.2,0,0.3c0,0.1-0.1,0.3-0.2,0.3c-0.2,0.1-0.3-0.1-0.3-0.2
				c-0.3-0.6-0.5-1.2-0.8-1.7c-0.5-0.9-1-1.6-1.8-2.3c-0.6-0.4-1.2-0.8-1.9-0.7c-0.5,0-0.9,0.2-1.3,0.5c-0.6,0.5-0.9,1.3-1.1,2
				c-0.4,1.4-0.4,2.9-0.4,4.4c0,1,0.1,2,0.4,3c0.1,0.3,0.2,0.6,0.3,0.9c0.6,1.3,1.8,1.8,3.1,1.3c0.8-0.3,1.4-0.8,2-1.4
				c0.7-0.7,1.2-1.5,1.5-2.5c0,0,0-0.1,0.1-0.1c0.1-0.2,0.1-0.3,0.3-0.3c0.2,0,0.2,0.2,0.2,0.3c0,1.3,0,2.6,0,4
				c0,0.1-0.1,0.3-0.2,0.3c-0.2,0.1-0.3-0.1-0.4-0.2c-0.3-0.4-0.3-0.5-0.8-0.3c-0.5,0.1-0.9,0.3-1.4,0.5c-1.8,0.6-3.5,0.6-5.2-0.1
				c-1.8-0.7-3-2-3.6-3.8c-0.6-1.8-0.6-3.6,0.3-5.3c1.1-2.2,2.9-3.4,5.4-3.7c1.2-0.1,2.2,0.1,3.3,0.6c0.3,0.1,0.6,0.3,0.9,0.4
				c0.1,0.1,0.3,0.1,0.4,0.1c0.4,0,0.5,0,0.6-0.4c0.1-0.2,0.1-0.4,0.4-0.4c0.2,0,0.3,0.2,0.3,0.5C216.5,1.7,216.5,2.4,216.5,3.1z"/>
			<path class="st95" d="M200.9,11.3c0-1.1,0.9-2,2-2c1.1,0,2,0.9,2,2c0,1.1-0.9,2-2,2C201.7,13.3,200.9,12.5,200.9,11.3z"/>
			<path class="st95" d="M221.3,11.4c0,1.1-0.9,2-2,2c-1.1,0-1.9-0.9-1.9-2c0-1.1,0.9-2,1.9-2C220.4,9.3,221.3,10.2,221.3,11.4z"/>
			<path class="st95" d="M185.3,5.4c-1.4,0-2.5-1.2-2.5-2.6c0-1.4,1.1-2.6,2.5-2.6c1.4,0,2.5,1.2,2.5,2.6
				C187.8,4.2,186.6,5.4,185.3,5.4z M187.2,2.8c0-1.1-0.9-2.1-2-2.1c-1,0-2,0.8-2,2c0,1.1,0.9,2,2,2C186.3,4.9,187.2,4,187.2,2.8z"
				/>
			<path class="st95" d="M184.2,1.4c0.6,0,1.1-0.1,1.7,0c0.4,0.1,0.6,0.7,0.4,1c-0.1,0.1-0.2,0.2-0.3,0.3c0.2,0.4,0.4,0.8,0.7,1.2
				c-0.4,0.2-0.6,0.2-0.8-0.1c-0.1-0.2-0.2-0.3-0.3-0.5c-0.1-0.2-0.2-0.3-0.3-0.5c-0.3,0.5-0.1,0.8,0,1.2c-0.3,0-0.6,0-1,0
				c0.3-0.7,0.1-1.5,0.1-2.2C184.4,1.8,184.2,1.6,184.2,1.4z M185,2.1c0,0,0,0.1,0,0.1c0,0.2,0,0.3,0.2,0.4c0.2,0,0.4-0.1,0.4-0.3
				c0-0.1,0-0.3,0-0.5c-0.1-0.2-0.2-0.3-0.4-0.2C185,1.7,185,1.8,185,2C185,2,185,2.1,185,2.1z"/>
		</g>
	</g>
</g>
</svg>
