<?xml version="1.0" encoding="utf-8"?>
<!-- Generator: Adobe Illustrator 22.1.0, SVG Export Plug-In . SVG Version: 6.00 Build 0)  -->
<svg version="1.1" id="Layer_1" xmlns="http://www.w3.org/2000/svg" xmlns:xlink="http://www.w3.org/1999/xlink" x="0px" y="0px"
	 width="298px" height="102.1px" viewBox="0 0 298 102.1" style="enable-background:new 0 0 298 102.1;" xml:space="preserve">
<style type="text/css">
	.st0{fill:url(#SVGID_1_);}
	.st1{fill:url(#SVGID_2_);}
	.st2{fill:url(#SVGID_3_);}
	.st3{fill:url(#SVGID_4_);}
	.st4{fill:url(#SVGID_5_);}
	.st5{fill:url(#SVGID_6_);}
	.st6{fill:url(#SVGID_7_);}
	.st7{fill:url(#SVGID_8_);}
	.st8{fill:url(#SVGID_9_);}
	.st9{fill:url(#SVGID_10_);}
	.st10{fill:url(#SVGID_11_);}
	.st11{fill:url(#SVGID_12_);}
	.st12{fill:url(#SVGID_13_);}
	.st13{fill:url(#SVGID_14_);}
	.st14{fill:url(#SVGID_15_);}
	.st15{fill:url(#SVGID_16_);}
	.st16{fill:url(#SVGID_17_);}
	.st17{fill:url(#SVGID_18_);}
	.st18{fill:url(#SVGID_19_);}
	.st19{fill:url(#SVGID_20_);}
	.st20{fill:url(#SVGID_21_);}
	.st21{fill:url(#SVGID_22_);}
	.st22{fill:url(#SVGID_23_);}
	.st23{fill:url(#SVGID_24_);}
	.st24{fill:url(#SVGID_25_);}
	.st25{fill:url(#SVGID_26_);}
	.st26{fill:url(#SVGID_27_);}
	.st27{fill:url(#SVGID_28_);}
	.st28{fill:url(#SVGID_29_);}
	.st29{fill:url(#SVGID_30_);}
	.st30{fill:url(#SVGID_31_);}
	.st31{fill:url(#SVGID_32_);}
	.st32{fill:url(#SVGID_33_);}
	.st33{fill:url(#SVGID_34_);}
	.st34{fill:url(#SVGID_35_);}
	.st35{fill:url(#SVGID_36_);}
	.st36{fill:url(#SVGID_37_);}
	.st37{fill:url(#SVGID_38_);}
	.st38{fill:url(#SVGID_39_);}
	.st39{fill:url(#SVGID_40_);}
	.st40{fill:url(#SVGID_41_);}
	.st41{fill:url(#SVGID_42_);}
	.st42{fill:url(#SVGID_43_);}
	.st43{fill:url(#SVGID_44_);}
	.st44{fill:url(#SVGID_45_);}
	.st45{fill:url(#SVGID_46_);}
	.st46{fill:url(#SVGID_47_);}
	.st47{fill:url(#SVGID_48_);}
	.st48{fill:url(#SVGID_49_);}
	.st49{fill:url(#SVGID_50_);}
	.st50{fill:url(#SVGID_51_);}
	.st51{fill:url(#SVGID_52_);}
	.st52{fill:url(#SVGID_53_);}
	.st53{fill:url(#SVGID_54_);}
	.st54{fill:url(#SVGID_55_);}
	.st55{fill:url(#SVGID_56_);}
	.st56{fill:url(#SVGID_57_);}
	.st57{fill:url(#SVGID_58_);}
	.st58{fill:url(#SVGID_59_);}
	.st59{fill:url(#SVGID_60_);}
	.st60{fill:url(#SVGID_61_);}
	.st61{fill:url(#SVGID_62_);}
	.st62{fill:url(#SVGID_63_);}
	.st63{fill:url(#SVGID_64_);}
	.st64{fill:url(#SVGID_65_);}
	.st65{fill:url(#SVGID_66_);}
	.st66{fill:url(#SVGID_67_);}
	.st67{fill:url(#SVGID_68_);}
	.st68{fill:url(#SVGID_69_);}
	.st69{fill:url(#SVGID_70_);}
	.st70{fill:url(#SVGID_71_);}
	.st71{fill:url(#SVGID_72_);}
	.st72{fill:url(#SVGID_73_);}
	.st73{fill:url(#SVGID_74_);}
	.st74{fill:url(#SVGID_75_);}
	.st75{fill:url(#SVGID_76_);}
	.st76{fill:url(#SVGID_77_);}
	.st77{fill:url(#SVGID_78_);}
	.st78{fill:url(#SVGID_79_);}
	.st79{fill:url(#SVGID_80_);}
	.st80{fill:url(#SVGID_81_);}
	.st81{fill:url(#SVGID_82_);}
	.st82{fill:url(#SVGID_83_);}
	.st83{fill:url(#SVGID_84_);}
	.st84{fill:url(#SVGID_85_);}
	.st85{fill:url(#SVGID_86_);}
	.st86{fill:url(#SVGID_87_);}
	.st87{fill:url(#SVGID_88_);}
	.st88{fill:url(#SVGID_89_);}
	.st89{fill:url(#SVGID_90_);}
	.st90{fill:url(#SVGID_91_);}
	.st91{fill:url(#SVGID_92_);}
	.st92{fill:url(#SVGID_93_);}
	.st93{fill:url(#SVGID_94_);}
	.st94{fill:#BA2B2B;}
	.st95{fill:#045D95;}
	.st96{fill:url(#SVGID_95_);}
	.st97{fill:url(#SVGID_96_);}
	.st98{fill:url(#SVGID_97_);}
	.st99{fill:url(#SVGID_98_);}
</style>
<g>
	<path class="st94" d="M149,73.6c-49,0-98,0-147,0c-0.4,0-0.9,0-1.3,0c-0.4,0-0.6-0.2-0.6-0.4c0-0.8,0-1.7,0-2.5
		c0-0.3,0.2-0.4,0.6-0.4c0.4,0,0.8,0,1.2,0c37.9,0,75.8,0,113.7,0c60.1,0,120.2,0,180.4,0c0.4,0,0.9,0,1.3,0c0.4,0,0.7,0.1,0.7,0.4
		c0,0.9,0,1.7,0,2.6c0,0.2-0.2,0.4-0.6,0.4c-0.4,0-0.9,0-1.3,0C247,73.6,198,73.6,149,73.6z"/>
	<path class="st95" d="M124.9,49.1c0-0.3,0.1-0.6,0.1-0.9c0-2.7,0-5.4,0-8.1c0-0.8-0.2-1.6-0.4-2.4c-0.3-1.2-1.1-2-2.3-2.4
		c-0.4-0.1-0.8-0.2-1.3-0.4c-0.3-0.1-0.5-0.4-0.4-0.7c0.1-0.2,0.4-0.4,0.6-0.5c0.2-0.1,0.5,0,0.8,0c2.5,0,5,0,7.5,0
		c0.1,0,0.1,0,0.2,0c1.6,0.3,3.1,0,4.7,0c1.6,0.1,3.2,0,4.8,0s3.2,0,4.8,0c1.1,0,2.2,0,3.2,0c1.6,0.1,3.2,0.4,4.7,1.1
		c2.7,1.3,4.1,3.4,4.1,6.4c-0.1,3.1-1.6,5.3-4.5,6.5c-1.6,0.7-3.4,1-5.1,1.1c-0.9,0-1.9,0.1-2.8,0.1c-0.3,0-0.7,0-1.1,0.1
		c0,0.4-0.1,0.7-0.1,1.1c0,2.4,0,4.9,0,7.3c0,1.5,0.3,1.9,1.8,2.1c0.2,0,0.5,0.1,0.7,0.1c0.4,0.1,0.7,0.3,0.6,0.7
		c0,0.4-0.4,0.5-0.7,0.5c-0.2,0-0.5,0-0.7,0c-3.9,0-7.7,0-11.6,0c-0.3,0-0.6,0-0.8,0c-0.2-0.1-0.6-0.3-0.6-0.5
		c0-0.2,0.2-0.6,0.4-0.7c0.4-0.2,0.8-0.2,1.2-0.2c1.1-0.2,1.5-0.6,1.6-1.8c0-0.3,0-0.6,0-0.9c0-6.3,0-12.6,0-19c0-0.1,0-0.2,0-0.3
		c0-1.9-0.3-2.3-2.2-2.6c-0.4-0.1-0.8-0.2-1.1-0.3c-0.5,0.2-1,0.4-1.5,0.5c-1.8,0.5-2.7,1.8-2.9,3.6c-0.1,0.5-0.1,1.1-0.1,1.6
		c0,6.6,0,13.2,0,19.9c0,0.3,0,0.7,0,1c-0.1,0.5-0.5,0.8-0.9,0.5c-0.3-0.2-0.6-0.5-0.8-0.8c-3.2-3.9-6.5-7.8-9.7-11.7
		c-2.3-2.8-4.6-5.6-6.9-8.4c-0.2-0.2-0.4-0.5-0.8-0.9c0,0.5-0.1,0.8-0.1,1.2c0,4.4,0,8.7,0,13.1c0,0.7,0.1,1.5,0.3,2.2
		c0.3,1.5,1.2,2.4,2.7,2.9c0.3,0.1,0.6,0.2,0.9,0.3c0.4,0.1,0.6,0.3,0.6,0.7c-0.1,0.4-0.4,0.5-0.7,0.5c-0.2,0-0.3,0-0.5,0
		c-2.6,0-5.2,0-7.8,0c-0.2,0-0.5,0-0.7,0c-0.2-0.1-0.5-0.3-0.5-0.4c0-0.2,0.1-0.5,0.3-0.7c0.2-0.2,0.5-0.2,0.7-0.3
		c2-0.4,3-1.8,3.2-3.7c0.1-0.4,0.1-0.9,0.1-1.3c0-5.1,0-10.2,0-15.3c0-0.8-0.2-1.4-0.7-1.9c-0.9-1.2-2.1-2-3.6-2.3
		c-1-0.3-2.4,0.4-3.1,1.5c-0.7,1.1-0.8,2.4-0.8,3.6c0,4.1,0,8.2,0,12.3c0,0.9-0.1,1.8-0.2,2.7c-0.1,0.7-0.3,1.3-0.6,1.9
		c-1,2.2-2.8,3.4-5.1,4c-3.4,0.8-6.8,0.8-10.2-0.2c-0.6-0.2-1.1-0.4-1.6-0.6C77.3,59,76,56.9,76,54.1c0-5.2,0-10.5,0-15.7
		c0-0.4,0-0.7,0-1.1c0-1.4-0.4-1.9-1.9-2.1c-0.3,0-0.6,0-0.9-0.2c-0.2-0.1-0.4-0.4-0.4-0.6c0-0.2,0.3-0.4,0.5-0.5
		c0.2-0.1,0.4,0,0.6,0c4,0,8,0,12.1,0c0.2,0,0.5,0,0.7,0.1c0.2,0.1,0.4,0.3,0.4,0.5c0,0.2-0.1,0.5-0.3,0.6c-0.3,0.1-0.6,0.2-1,0.2
		c-1.5,0.2-1.9,0.7-1.9,2.1c0,5.9,0,11.8,0,17.6c0,0.6,0.1,1.2,0.2,1.8c0.5,1.7,1.6,2.8,3.3,3.2c2.8,0.7,6-0.5,7.5-2.9
		c0.6-1,0.9-2.2,1-3.4c0-4.6,0-9.2,0-13.8c0-0.7-0.1-1.4-0.3-2c-0.3-1.4-1.1-2.4-2.6-2.7c-0.3-0.1-0.6-0.1-0.9-0.3
		c-0.2-0.1-0.3-0.3-0.3-0.5c0.1-0.2,0.2-0.4,0.4-0.5c0.2-0.1,0.4,0,0.6,0c3,0,6,0,9,0c3,0,6.1,0.1,9.1,0c0.7,0,1,0.3,1.4,0.8
		c3.4,4.2,6.9,8.4,10.3,12.5c0.6,0.7,1.2,1.4,1.7,2.1C124.7,49.2,124.8,49.2,124.9,49.1z M142.3,47.7c2.5,0.6,4-0.5,4.4-2.2
		c0.2-0.9,0.3-1.9,0.4-2.8c0.1-1.8,0.1-3.6-0.4-5.4c-0.5-2-1.8-2.5-3.9-2.3c-0.3,0-0.5,0.2-0.5,0.5c0,0.2,0,0.4,0,0.6
		c0,3.5,0,7.1,0,10.6C142.3,47.1,142.3,47.4,142.3,47.7z"/>
	<path class="st95" d="M166.9,45.6c2.6,0,5.1,0,7.6,0c0-0.4,0.1-0.8,0.1-1.2c0-2.2,0-4.5,0-6.7c0-0.3,0-0.5,0-0.8
		c-0.1-1.3-0.3-1.5-1.6-1.8c-0.2,0-0.4-0.1-0.5-0.2c-0.2-0.2-0.3-0.4-0.3-0.7c0-0.2,0.3-0.3,0.5-0.4c0.2-0.1,0.4,0,0.6,0
		c4.4,0,8.8,0,13.3,0c3.1,0,6.2,0,9.3,0c0.9,0,1.8,0,2.7,0c0.3,0,0.5,0,0.8,0c0.4,0,0.8,0,0.9,0.5c0,0.5-0.4,0.5-0.8,0.6
		c-1.8,0.5-2.1,1.2-1.2,2.8c1.3,2.5,2.6,4.9,3.9,7.4c0.1,0.3,0.3,0.5,0.5,0.9c0.2-0.2,0.4-0.4,0.5-0.6c0.9-1.6,1.8-3.1,2.6-4.7
		c0.6-1,1-2.1,1.1-3.3c0-1.3-0.3-1.8-1.5-2.3c-0.4-0.1-0.9-0.1-0.9-0.7c0-0.6,0.6-0.5,1-0.6c0.6,0,1.1,0,1.7,0c1.6,0,3.2,0,4.8,0
		c0.3,0,0.7,0,1,0.1c0.4,0.1,0.5,0.5,0.2,0.8c-0.1,0.1-0.2,0.1-0.3,0.2c-1.8,0.7-3,2-4,3.6c-1.4,2.2-2.7,4.6-4.2,6.8
		c-0.8,1.2-1.1,2.5-1,3.9c0.1,2.7,0,5.3,0,8c0,0.4,0,0.7,0.1,1.1c0.1,0.7,0.5,1.2,1.2,1.3c0.4,0.1,0.9,0.1,1.3,0.2
		c0.4,0.1,0.7,0.3,0.6,0.7c0,0.4-0.4,0.5-0.7,0.5c-0.2,0-0.4,0-0.6,0c-3.9,0-7.8,0-11.7,0c-0.2,0-0.5,0-0.7,0
		c-0.3,0-0.6-0.1-0.7-0.5c0-0.4,0.2-0.6,0.6-0.7c0.4-0.1,0.7-0.1,1.1-0.2c1.1-0.2,1.5-0.7,1.5-1.8c0-2.9,0-5.7,0-8.6
		c0-0.4-0.1-0.7-0.3-1c-2.2-3.8-4.3-7.6-6.5-11.3c-0.3-0.6-0.9-1.1-1.4-1.5c-0.5-0.4-1.2-0.6-1.9-0.3c-0.4,0.2-0.9,0.1-1.3,0.2
		c-1.1,0.2-1.4,0.7-1.4,1.8c0,1.2,0,2.4,0,3.6c0,5.5,0,11.1,0,16.6c0,1.9,0.2,2.1,2,2.5c0.3,0,0.6,0.1,0.8,0.2
		c0.2,0.1,0.3,0.4,0.3,0.6c0,0.1-0.3,0.4-0.5,0.4c-0.2,0.1-0.5,0-0.8,0c-1.7,0-3.4-0.1-5.1-0.1c-2,0-3.9,0-5.9,0.1
		c-0.3,0-0.6,0.1-0.8,0c-0.2-0.1-0.5-0.3-0.5-0.5c0-0.2,0.2-0.5,0.4-0.6c0.2-0.2,0.6-0.2,0.9-0.3c0.6-0.1,1-0.5,1.1-1.2
		c0-0.4,0.1-0.9,0.1-1.3c0-3,0-6.1,0-9.1c0-0.2,0-0.3,0-0.5c0-0.5-0.2-0.7-0.7-0.7c-0.1,0-0.3,0-0.4,0c-1.9,0-3.7,0-5.6,0
		c-1,0-1.1,0.1-1.1,1.1c0,3.2,0,6.5,0,9.7c0,1.4,0.3,1.7,1.6,2.1c0.2,0,0.4,0,0.5,0.2c0.2,0.2,0.3,0.4,0.3,0.7
		c0,0.2-0.3,0.4-0.5,0.4c-0.2,0.1-0.5,0.1-0.8,0.1c-1.6,0-3.1-0.1-4.7-0.1c-2.1,0-4.2,0-6.3,0.1c-0.3,0-0.6,0-0.8,0
		c-0.2-0.1-0.5-0.3-0.5-0.5c0-0.2,0.2-0.5,0.4-0.6c0.4-0.2,0.9-0.2,1.3-0.3c1-0.2,1.4-0.7,1.5-1.7c0-0.3,0-0.5,0-0.8
		c0-6.4,0-12.8,0-19.3c0-0.1,0-0.2,0-0.3c0-1.7-0.4-2.2-2.1-2.4c-0.8-0.1-1.1-0.3-1.1-0.7c0-0.4,0.3-0.6,1.2-0.6c3.7,0,7.4,0,11.1,0
		c0.2,0,0.5,0,0.7,0c0.2,0.1,0.5,0.3,0.5,0.4c0,0.2-0.1,0.5-0.3,0.7c-0.2,0.1-0.4,0.1-0.7,0.2c-0.9,0.2-1.3,0.6-1.4,1.6
		c0,0.2,0,0.3,0,0.5c0,2.4,0,4.9,0,7.3C166.9,44.9,166.9,45.2,166.9,45.6z"/>
	<path class="st95" d="M86.6,27c1.4,0,2.3-0.6,3.1-1.3c1.4-1.2,2.2-2.7,2.9-4.4c1.1-2.7,2.2-5.5,3.3-8.2c0.7-1.7,1.3-3.3,2-5
		C98.3,6.9,98.2,6.7,97,6c-0.2-0.1-0.3-0.2-0.5-0.3c0-0.6,0.4-0.6,0.7-0.8c1.5-0.8,3-1.6,4.1-2.9c0.4-0.4,0.7-0.9,1.1-1.3
		c0.2-0.2,0.4-0.4,0.7-0.8c0.2,0.5,0.4,0.8,0.6,1.1c2.6,6.6,5.2,13.2,7.8,19.8c0.4,1.1,0.9,2.2,1.3,3.3c0.6,1.4,1.3,2.5,2.9,2.8
		c0.3,0.1,0.6,0.3,0.5,0.6c-0.1,0.2-0.4,0.3-0.6,0.4c-0.2,0.1-0.4,0-0.6,0c-3.8,0-7.6,0-11.5,0c-0.3,0-0.6,0-0.8,0
		c-0.2,0-0.4-0.2-0.4-0.4c0-0.2,0.2-0.5,0.3-0.5c0.3-0.1,0.6-0.1,0.9-0.1c1.1-0.2,1.4-0.6,1.2-1.7c-0.1-0.6-0.3-1.2-0.5-1.7
		c-0.5-1.4-1-2.8-1.5-4.2c-0.2-0.5-0.5-0.8-1-0.8c-2,0-3.9,0-5.9,0c-0.4,0-0.8,0.1-1,0.6c-0.5,1.4-1.1,2.8-1,4.3
		c0.1,1.6,0.8,2.8,2.3,3.3c0.4,0.2,1,0.2,1.1,1c-0.3,0.1-0.6,0.2-0.9,0.2c-3,0-5.9,0-8.9,0c-0.4,0-0.8-0.1-1.2-0.1
		c-0.4,0-0.6-0.2-0.8-0.5c-0.5-1-0.8-1.1-1.9-0.7c-1.1,0.3-2.2,0.8-3.3,1.1c-4.7,1.4-9.2,1-13.3-1.7c-3.1-2-4.8-5.1-5.4-8.7
		c-0.5-2.6-0.4-5.3,0.5-7.8c1.7-4.7,5-7.6,9.8-8.8c3.3-0.9,6.4-0.5,9.5,1C82,2,82.7,2.3,83.4,2.5c1,0.3,1.3,0.1,1.7-0.8
		c0.1-0.2,0.1-0.4,0.3-0.5c0.3-0.3,0.8-0.3,1,0.2c0.1,0.3,0.1,0.6,0.1,0.9c0,2.9,0,5.7,0,8.6c0,0.2,0,0.4,0,0.6
		c-0.1,0.2-0.2,0.5-0.4,0.5c-0.2,0-0.4-0.2-0.5-0.3c-0.2-0.2-0.2-0.6-0.3-0.8c-1-2.7-2.4-5.1-4.5-7.1c-1.1-1-2.3-1.8-3.7-2.1
		c-1.6-0.3-3,0.1-4.1,1.4c-0.8,0.9-1.3,1.9-1.6,3c-0.7,2.1-1,4.3-1,6.5c-0.1,2.9-0.1,5.9,0.5,8.8c0.2,1.1,0.5,2.2,1,3.3
		c1.1,2.5,3.3,3.5,6.1,2.6c2.1-0.6,3.6-2,5-3.6c1.1-1.3,2-2.8,2.5-4.5c0.1-0.4,0.2-1.2,0.9-1c0.6,0.1,0.5,0.8,0.5,1.3
		c0,2.2,0,4.4,0,6.6C86.6,26.2,86.6,26.6,86.6,27z M102,17.3c-0.1-0.4-0.1-0.6-0.2-0.8c-0.9-2.4-1.9-4.8-2.8-7.3c0,0-0.1,0-0.1,0
		c0,0-0.1,0-0.2,0c-1.1,2.6-2.2,5.3-3.2,8.1C97.7,17.3,99.8,17.3,102,17.3z"/>
	<path class="st95" d="M53.4,33.8c2.2,0,4.5,0,6.7,0c2.2,0.1,4.4,0.5,6.4,1.5c3.3,1.5,5.4,4.1,6.4,7.6c0.8,2.7,0.9,5.5,0.2,8.3
		c-1.2,5-4.4,8-9.3,9.2c-1.6,0.4-3.3,0.5-4.9,0.6c-2.5,0.1-5,0-7.5,0c-1.7,0-3.4,0-5.2,0.1c-0.4,0-0.9,0.1-1.1-0.5
		c-0.1-0.4,0.2-0.7,0.9-0.8c2-0.4,2.2-0.6,2.2-2.6c0-6.5,0-13,0-19.5c0-0.2,0-0.3,0-0.5c0-1.3-0.5-1.8-1.7-2c-0.3,0-0.5,0-0.8-0.1
		C45.3,35,45,34.8,45,34.3c0-0.4,0.4-0.5,0.8-0.5c0.5,0,1,0,1.5,0C49.3,33.8,51.3,33.8,53.4,33.8z M56.2,34.8c0,0.4-0.1,0.7-0.1,1.1
		c0,7.4,0,14.9,0,22.3c0,1.4,0.5,1.8,1.7,1.9c2.6,0.2,4.6-0.8,5.5-3.2c0.5-1.2,0.8-2.6,1-3.9c0.5-3.7,0.5-7.5,0-11.2
		c-0.2-1.5-0.5-3.1-1.3-4.4c-0.6-1-1.4-1.8-2.5-2.2C59.2,34.6,57.7,34.8,56.2,34.8z"/>
	<path class="st95" d="M22.5,58.8c-0.7,0.4-1.2,0.8-1.9,1.2c-3.9,2.1-7.9,2.2-11.9,0.4c-4.6-2.1-5.8-8.1-2.6-11.8
		c0.8-0.9,1.8-1.6,3-2c0.3-0.1,0.7-0.3,1.1-0.4c-0.2-0.3-0.4-0.6-0.5-0.8c-3-4.4-0.8-10.2,4.5-11.7c1.5-0.4,3.1-0.5,4.6,0
		c2.5,0.8,4.5,3.3,4.3,5.9c-0.1,1.8-1,3.1-2.5,4.1c-0.3,0.2-0.6,0.4-1,0.6c0.9,0.7,1.7,1.3,2.5,2c0.8,0.7,1.6,1.5,2.3,2.3
		c0.7,0.8,1.4,1.5,2.1,2.3c1-1.5,1-4.3-0.1-5.6c-0.2-0.3-0.6-0.5-1-0.7c-0.3-0.1-0.6-0.2-0.9-0.3c-0.3-0.1-0.8-0.1-0.8-0.6
		c0.1-0.4,0.5-0.3,0.8-0.3c3,0,5.9,0,8.9,0c0.2,0,0.4,0,0.5,0.1c0.1,0.1,0.3,0.2,0.3,0.3c0,0.1-0.1,0.3-0.2,0.4
		c-0.3,0.2-0.5,0.3-0.8,0.4c-1.8,0.6-3.2,1.8-4.1,3.4c-0.6,1.1-1.2,2.3-1.8,3.4c-0.2,0.4-0.2,0.7,0.1,1.1c1,1.4,2,2.9,3,4.3
		c0.2,0.4,0.5,0.7,0.8,1c1,1,2.4,0.7,3-0.5c0.2-0.4,0.2-0.8,0.3-1.2c0.1-0.4,0.1-0.9,0.7-0.8c0.6,0.1,0.5,0.6,0.4,1
		c0,1.2-0.5,2.2-1.3,3.1c-1,1.1-2.3,1.7-3.7,2c-3,0.6-5.8,0-8-2.2C22.8,59,22.7,58.9,22.5,58.8z M11.6,47.7
		c-0.1,0.1-0.2,0.2-0.2,0.2c-0.1,0.1-0.1,0.3-0.1,0.4c-0.4,2.6-0.2,5.2,1.1,7.6c1.8,3.4,5.5,4.4,8.6,2.6c0.2-0.1,0.4-0.3,0.6-0.5
		C18.7,54.1,15.2,50.8,11.6,47.7z M18.6,43.6c0.7-0.4,1-1,1.2-1.7c0.7-1.9,0.5-3.7-0.2-5.5c-0.1-0.3-0.4-0.7-0.6-0.9
		c-0.9-1-2-1.2-3.2-0.8c-1.1,0.3-1.6,1.2-1.7,2.3c-0.2,1.3,0.1,2.4,0.9,3.4C16,41.6,17.2,42.6,18.6,43.6z"/>
	<path class="st95" d="M191.7,0.3c4.7,0.1,8.9,1.8,11.8,5.8c2.2,2.8,2.9,6.1,2.6,9.6c-0.6,7.7-6.8,12.3-13.2,12.8
		c-3.8,0.3-7.4-0.5-10.5-2.8c-3.5-2.6-5.3-6.1-5.5-10.4c-0.2-3.3,0.6-6.4,2.6-9.2c2.6-3.5,6.3-5.3,10.6-5.8
		C190.6,0.3,191.1,0.3,191.7,0.3z M185.6,14.5c0.1,1.7,0.1,3.5,0.3,5.4c0.2,1.4,0.4,2.7,0.8,4c0.5,1.5,1.4,2.8,3.1,3.2
		c3.3,0.8,5.6-0.2,6.6-3.2c0.4-1.3,0.7-2.6,0.8-3.9c0.4-3.7,0.4-7.4,0-11.1c-0.2-1.7-0.5-3.4-1.3-5c-1-1.8-2.6-2.5-4.5-2.4
		c-1.9,0.1-3.4,0.8-4.2,2.6c-0.3,0.7-0.6,1.4-0.8,2.1C185.7,8.8,185.7,11.5,185.6,14.5z"/>
	<path class="st95" d="M172.5,16.1c0-0.2,0-0.3,0-0.5c0-2.8,0-5.7,0-8.5c0-0.6-0.1-1.2-0.2-1.8c-0.3-1.6-1.3-2.6-2.9-3
		c-0.3-0.1-0.7-0.2-0.9-0.3c-0.2-0.1-0.3-0.4-0.3-0.6c0-0.2,0.3-0.4,0.4-0.5c0.2-0.1,0.5-0.1,0.8-0.1c1.1,0,2.3,0.1,3.4,0.1
		c1.4,0,2.8-0.1,4.1-0.1c0.3,0,0.5,0,0.8,0c0.3,0,0.7,0.2,0.6,0.5c0,0.2-0.3,0.5-0.5,0.7c-0.2,0.1-0.5,0.2-0.8,0.3
		c-1.6,0.4-2.6,1.4-2.9,3c-0.2,0.9-0.3,1.9-0.3,2.8c0,6.5,0,12.9,0,19.4c0,0.3,0,0.7,0,1c-0.1,0.5-0.4,0.7-0.9,0.4
		c-0.3-0.2-0.5-0.5-0.7-0.7c-5.5-6.6-10.9-13.2-16.4-19.8c-0.3-0.3-0.6-0.6-1-1.1c-0.1,0.4-0.2,0.6-0.2,0.9c0,4.6,0,9.2,0,13.8
		c0,0.7,0.1,1.4,0.3,2.1c0.3,1.2,1.1,2,2.4,2.4c0.4,0.1,0.8,0.2,1.1,0.4c0.2,0.1,0.5,0.4,0.5,0.6c0,0.4-0.3,0.5-0.7,0.6
		c-0.2,0-0.3,0-0.5,0c-2.6,0-5.3,0-7.9,0c-0.7,0-1.1-0.2-1.2-0.5c-0.1-0.7,0.5-0.7,0.9-0.9c0.2-0.1,0.3-0.1,0.5-0.2
		c1.8-0.5,2.6-1.7,2.8-3.4c0.1-0.6,0.1-1.2,0.1-1.8c0-4.9,0-9.8,0-14.7c0-1-0.3-1.8-1-2.5c-0.8-0.8-1.7-1.5-2.7-1.8
		c-0.4-0.1-1.1-0.2-0.9-0.9c0.1-0.5,0.7-0.5,1.1-0.5c3.1,0,6.2,0.1,9.3,0.1c0.5,0,0.8,0.2,1.1,0.6c2.3,2.8,4.7,5.7,7,8.5
		c1.6,1.9,3.1,3.8,4.7,5.7c0.1,0.2,0.2,0.3,0.3,0.5C172.3,16.2,172.4,16.2,172.5,16.1z"/>
	<path class="st95" d="M210.7,7.4c0,0.3-0.1,0.6-0.1,0.9c0,4.4,0,8.9,0,13.3c0,0.9,0.2,1.9,0.5,2.8c0.3,1.1,1.1,1.7,2.2,2.1
		c0.4,0.1,0.8,0.2,1.1,0.4c0.2,0.1,0.5,0.4,0.5,0.6c0,0.4-0.3,0.5-0.7,0.6c-0.2,0-0.3,0-0.5,0c-2.6,0-5.3,0-7.9,0
		c-0.7,0-1.2-0.2-1.2-0.5c0-0.6,0.5-0.7,0.9-0.9c0.6-0.2,1.2-0.4,1.8-0.8c1-0.6,1.4-1.6,1.6-2.7c0.1-0.5,0.1-1.1,0.1-1.6
		c0-5.1,0-10.1,0-15.2c0-0.8-0.2-1.5-0.8-2.1c-0.8-0.9-1.7-1.7-3-2.1c-0.1,0-0.1,0-0.2-0.1c-0.4-0.2-0.8-0.3-0.7-0.8
		c0.1-0.4,0.5-0.5,0.9-0.5c1.8,0,3.6,0,5.5,0.1c1.1,0,2.3,0.1,3.4,0c0.9,0,1.4,0.3,2,0.9c3.7,4.5,7.4,9,11.1,13.5
		c0.2,0.3,0.4,0.5,0.8,0.9c0.1-0.4,0.1-0.6,0.1-0.8c0-2.8,0-5.7,0-8.5c0-0.6-0.1-1.1-0.2-1.7c-0.3-1.6-1.4-2.6-3-3
		c-0.3-0.1-0.7-0.2-0.9-0.4c-0.2-0.1-0.3-0.4-0.2-0.6c0-0.1,0.2-0.3,0.4-0.4c0.2-0.1,0.5-0.1,0.8-0.1c1.2,0,2.4,0.1,3.5,0.1
		c1.4,0,2.8-0.1,4.2-0.1c0.3,0,0.6,0,0.8,0.1c0.2,0.1,0.5,0.3,0.5,0.5c0,0.2-0.2,0.5-0.4,0.6c-0.2,0.1-0.4,0.2-0.7,0.2
		c-2.3,0.5-3.1,2.1-3.3,4.2c0,0.4,0,0.7,0,1.1c0,6.7,0,13.3,0,20c0,0.3,0,0.6,0,0.9c-0.1,0.6-0.5,0.8-1,0.5
		c-0.2-0.2-0.4-0.4-0.6-0.6c-5.4-6.5-10.7-13-16.1-19.4c-0.4-0.5-0.9-1-1.3-1.5C210.9,7.4,210.8,7.4,210.7,7.4z"/>
	<path class="st95" d="M123.2,7.5c0,0.3-0.1,0.6-0.1,1c0,4.3,0,8.6,0,12.9c0,0.9,0.1,1.8,0.4,2.7c0.3,1.2,1.1,2,2.4,2.4
		c0.4,0.1,0.9,0.3,1.3,0.5c0.2,0.1,0.3,0.4,0.3,0.6c0,0.2-0.2,0.4-0.4,0.5c-0.2,0.1-0.5,0.1-0.8,0.1c-2.6,0-5.2,0-7.8,0
		c0,0-0.1,0-0.1,0c-0.7,0-1.2-0.2-1.2-0.5c0-0.6,0.5-0.7,1-0.8c0.4-0.1,0.8-0.3,1.2-0.4c1.1-0.5,1.7-1.5,2-2.7
		c0.2-0.8,0.3-1.7,0.3-2.5c0-5,0-9.9,0-14.9c0-0.6-0.2-1-0.5-1.5c-0.9-1.2-1.9-2.1-3.4-2.5c-0.1,0-0.1,0-0.2-0.1
		c-0.4-0.1-0.7-0.3-0.6-0.8c0.1-0.4,0.5-0.5,0.8-0.5c1.6,0,3.2,0,4.9,0c1.4,0,2.8,0.1,4.3,0.1c0.8,0,1.3,0.2,1.7,0.8
		c3.7,4.6,7.5,9.1,11.2,13.6c0.2,0.3,0.4,0.5,0.8,0.9c0.1-0.4,0.2-0.6,0.2-0.8c0-2.9,0-5.8,0-8.7c0-0.3,0-0.7-0.1-1
		c-0.3-1.8-1.2-3-3-3.4c-0.4-0.1-0.7-0.2-1-0.4c-0.1-0.1-0.2-0.4-0.2-0.6c0-0.1,0.2-0.3,0.4-0.4c0.3-0.1,0.5-0.1,0.8-0.1
		c1.3,0,2.7,0.1,4,0.1c1.2,0,2.5-0.1,3.7-0.1c0.3,0,0.6,0,0.8,0.1c0.2,0.1,0.4,0.3,0.5,0.4c0,0.2-0.1,0.5-0.3,0.6
		c-0.2,0.2-0.5,0.3-0.8,0.3c-1.8,0.4-2.8,1.6-3.1,3.4c-0.1,0.7-0.2,1.4-0.2,2.1c0,6.6,0,13.1,0,19.7c0,0.3,0,0.7,0,1
		c-0.1,0.5-0.4,0.7-0.9,0.4c-0.3-0.2-0.6-0.5-0.8-0.8c-3.4-4.1-6.7-8.1-10.1-12.2c-2.2-2.6-4.3-5.2-6.5-7.8
		c-0.2-0.3-0.4-0.5-0.7-0.7C123.4,7.4,123.3,7.4,123.2,7.5z"/>
	<path class="st95" d="M230,55.5c0-1.5,0-2.9,0-4.4c0-0.2,0-0.5,0-0.7c0-0.3,0-0.7,0.4-0.8c0.5-0.1,0.6,0.3,0.8,0.6
		c0.2,0.6,0.3,1.2,0.5,1.8c0.7,2.7,2,5,4.2,6.8c1.8,1.4,3.8,2,6.1,1.3c1.8-0.6,2.8-1.9,3-3.8c0.2-1.8-0.3-3.2-1.9-4.2
		c-0.9-0.6-2-1-3-1.4c-1.5-0.5-3.1-0.9-4.6-1.5c-0.9-0.3-1.7-0.7-2.4-1.2c-1.8-1.1-2.7-2.8-2.9-4.9c-0.4-4.8,2.5-8.5,7.4-9.6
		c2.5-0.6,4.9-0.3,7.3,0.5c0.5,0.2,1.1,0.4,1.6,0.5c0.9,0.2,1.1,0.1,1.4-0.6c0.1-0.1,0.1-0.3,0.2-0.4c0.3-0.4,0.7-0.3,0.9,0.1
		c0.1,0.2,0.1,0.5,0.2,0.8c0.1,2.6,0.2,5.1,0.3,7.7c0,0.1,0,0.1,0,0.2c0,0.3-0.1,0.8-0.5,0.8c-0.2,0-0.5-0.3-0.6-0.5
		c-0.6-1.2-1.1-2.5-1.8-3.7c-0.8-1.5-1.9-2.7-3.4-3.5c-1.7-1-3.5-1.1-5.3-0.4c-1.5,0.6-2.2,1.8-2.3,3.3c-0.1,1.5,0.6,2.5,1.8,3.1
		c1,0.5,2,0.9,3.1,1.2c1.5,0.5,3,0.9,4.5,1.4c0.7,0.2,1.3,0.5,2,0.8c3.5,1.7,4.9,4.6,4.4,8.5c-0.7,4.3-3.4,6.7-7.4,7.8
		c-3.2,0.9-6.3,0.6-9.4-0.4c-0.6-0.2-1.3-0.4-2-0.5c-0.6-0.1-1.1,0-1.4,0.7c0,0.1-0.1,0.2-0.2,0.3c-0.2,0.1-0.4,0.3-0.6,0.2
		c-0.1,0-0.3-0.3-0.3-0.4c-0.1-0.3,0-0.5,0-0.8C230,58.6,230,57,230,55.5z"/>
	<path class="st95" d="M285.2,39.5c0,1.4,0,2.8,0,4.2c0,0.2,0,0.4,0,0.6c-0.1,0.2-0.2,0.6-0.3,0.6c-0.3,0.2-0.5-0.2-0.7-0.4
		c-0.5-1.2-1-2.5-1.7-3.7c-1-1.8-2.2-3.5-3.8-4.8c-1.2-0.9-2.5-1.6-4.1-1.5c-1.1,0-2,0.4-2.7,1.1c-1.2,1.2-1.8,2.7-2.2,4.2
		c-0.8,3-0.9,6.1-0.8,9.2c0.1,2.2,0.2,4.3,0.8,6.4c0.2,0.6,0.4,1.2,0.6,1.8c1.2,2.8,3.7,3.8,6.5,2.7c1.6-0.6,3-1.7,4.2-3
		c1.4-1.5,2.6-3.2,3.1-5.3c0-0.1,0.1-0.2,0.1-0.3c0.1-0.3,0.3-0.6,0.7-0.5c0.4,0.1,0.4,0.4,0.4,0.7c0,2.8,0,5.6,0,8.4
		c0,0.3-0.2,0.6-0.4,0.7c-0.4,0.2-0.6-0.2-0.7-0.5c-0.5-0.9-0.7-1-1.7-0.7c-1,0.3-1.9,0.7-2.9,1c-3.7,1.3-7.4,1.3-11.1-0.1
		c-3.8-1.5-6.4-4.2-7.6-8c-1.2-3.8-1.2-7.6,0.6-11.3c2.3-4.8,6.2-7.2,11.4-7.8c2.5-0.3,4.8,0.3,7,1.3c0.6,0.3,1.2,0.5,1.9,0.8
		c0.3,0.1,0.6,0.2,0.9,0.2c0.8,0.1,1-0.1,1.3-0.8c0.2-0.4,0.2-0.9,0.8-0.9c0.4,0,0.6,0.4,0.6,1.1C285.2,36.6,285.2,38,285.2,39.5z"
		/>
	<path class="st95" d="M119,96.5c-1.9,0-3.7,0-5.7,0c0.1-0.3,0.2-0.5,0.3-0.5c0.6-0.2,0.8-0.6,0.8-1.2c0-2.1,0-4.3,0-6.4
		c0-0.9-0.2-1.1-1-1.4c-0.3,0.8-0.2,1.9-1.2,2.3c-1.1,0.4-1.6-0.5-2.3-1c-0.5,0.3-0.5,0.7-0.5,1.1c0,1.8,0,3.6,0,5.4
		c0,0.6,0.2,1,0.8,1.2c0.2,0.1,0.3,0.1,0.4,0.3c-1,0.5-2,0.3-2.9,0.3c-1,0-1.9,0-3.1,0c0.3-0.3,0.3-0.6,0.5-0.6
		c0.6-0.2,0.7-0.7,0.7-1.3c0-2,0-3.9,0-5.9c0-0.8-0.1-1.5-1-1.9c-0.1,0-0.2-0.2-0.3-0.3c0.2-0.1,0.2-0.2,0.4-0.2
		c1.4-0.2,2.8-0.5,4.3-0.7c0.1,0.5,0.2,0.9,0.2,1.5c0.6-0.6,0.9-1.4,1.7-1.5c0.8-0.1,1.5,0.1,2.1,0.9c1.7-0.3,3.3-0.5,4.9-0.8
		c0.1,0.4,0.1,0.7,0.2,1.1c0.3-0.2,0.6-0.4,0.9-0.6c0.8-0.5,1.6-0.7,2.5-0.6c1.1,0.1,1.9,0.7,2.2,1.8c0.1,0.5,0.2,1.1,0.2,1.6
		c0,1.8,0,3.5,0,5.3c0,0.9,0.1,1.6,1,2c0,0,0.1,0.1,0.1,0.3c-0.9,0.4-1.8,0.1-2.7,0.2c-0.9,0-1.9,0-3,0c0.2-0.3,0.2-0.6,0.3-0.6
		c0.5-0.3,0.6-0.7,0.6-1.2c0-2.1,0-4.1,0-6.2c0-0.1,0-0.2,0-0.3c-0.1-0.7-0.4-1.1-0.9-1.1c-0.5,0-1.2,0.6-1.3,1.1c0,0.4,0,0.9,0,1.3
		c0,1.7,0,3.3,0,5c0,0.6,0.1,1.2,0.7,1.5C118.9,96.1,118.9,96.2,119,96.5z"/>
	<path class="st95" d="M197.3,80.7c0.7-0.4,3.5-0.6,6.9-0.4c0.3,0,0.6-0.1,0.8,0.5c-0.2,0.1-0.5,0.3-0.7,0.4c-0.9,0.3-1,0.4-1,1.4
		c0,0.5,0,1,0,1.5c0,3.2,0,6.4,0,9.6c0,0.3,0,0.7,0,1c0.1,0.9,0.4,1.2,1.4,1.2c1,0,1.7-0.5,2.5-1.1c1.1-1,1.9-2.2,2.3-3.6
		c0.1-0.4,0.1-0.8,0.7-1c0,0.3,0.1,0.6,0.1,0.9c-0.3,1.6-0.6,3.3-0.9,4.9c-0.1,0.5-0.3,0.6-0.7,0.6c-0.3,0-0.5,0-0.8,0
		c-3.1,0-6.1,0-9.2,0c-0.4,0-0.8,0-1.1-0.1c-0.2-0.5,0.1-0.6,0.3-0.7c1.1-0.4,1.1-0.4,1.1-1.6c0-3.9,0-7.8,0-11.7
		c0-1.1,0-1.1-1.1-1.5C197.8,81,197.6,80.9,197.3,80.7z"/>
	<path class="st95" d="M70.3,96.2c0.2-0.1,0.3-0.2,0.5-0.3c0.7-0.3,0.9-0.5,0.6-1.2c-0.3-1-0.7-2.1-1-3.1c-0.1-0.5-0.4-0.7-0.9-0.7
		c-0.8,0-1.7,0-2.5,0c-0.5,0-0.8,0.2-0.9,0.7c-0.1,0.7-0.3,1.4-0.4,2.1c-0.1,1,0.3,1.7,1.2,2.2c0.2,0.1,0.3,0.3,0.5,0.4
		c-0.7,0.4-4.4,0.4-5.6,0.1c0.1-0.1,0.1-0.3,0.2-0.4c1.5-0.5,2.2-1.8,2.7-3.1c0.7-1.9,1.4-3.9,2.1-5.8c0.2-0.6,0.4-1.2,0.6-1.7
		c0.3-0.8,0.6-1.6-0.5-2.2c0.7-0.5,1.4-0.9,1.9-1.4c0.6-0.5,1-1.1,1.7-1.8c0.2,0.4,0.4,0.7,0.5,1c1.5,4.1,2.9,8.3,4.3,12.4
		c0.4,1.1,0.7,2.4,2,2.8c0,0,0,0.1,0.1,0.3c-0.8,0.3-1.6,0.1-2.3,0.1c-0.8,0-1.7,0-2.5,0C72,96.6,71.2,96.7,70.3,96.2z M66.8,90
		c1.2,0.3,2.6,0.3,3.1-0.1c-0.3-1.6-1.1-3.8-1.6-4.3C67.8,87.1,67.3,88.5,66.8,90z"/>
	<path class="st95" d="M169.9,83c0.6-0.5,1.3-0.9,1.9-1.4c0.5-0.5,1-1.1,1.6-1.7c0.2,0.3,0.3,0.6,0.4,0.8c1.4,4,2.8,8,4.2,11.9
		c0.2,0.5,0.3,1,0.5,1.4c0.3,0.8,0.6,1.6,1.5,1.9c0.1,0,0.2,0.1,0.2,0.2c0,0,0,0.1,0,0.2c-0.7,0.3-6.2,0.3-7.2,0.1
		c-0.1-0.4,0.2-0.4,0.4-0.5c0.7-0.2,0.9-0.4,0.7-1.1c-0.3-1.1-0.7-2.3-1.1-3.4c-0.1-0.3-0.4-0.5-0.7-0.5c-0.9,0-1.8,0-2.7,0
		c-0.4,0-0.6,0.2-0.7,0.6c-0.2,0.6-0.4,1.2-0.4,1.8c-0.1,1.1,0.2,2.1,1.3,2.6c0.2,0.1,0.3,0.3,0.4,0.4c-0.8,0.4-4.6,0.4-5.5,0
		c0.1-0.1,0.2-0.3,0.3-0.4c1.3-0.4,1.9-1.4,2.4-2.6c0.5-1.2,0.9-2.4,1.3-3.6c0.6-1.6,1.1-3.2,1.7-4.8c0.3-0.7,0.4-1.3-0.4-1.7
		C170,83.3,170,83.2,169.9,83z M169.4,90.1c1.2,0.1,2.1,0.1,3.1,0c0-1-1-3.8-1.6-4.5C170.5,87.1,170,88.6,169.4,90.1z"/>
	<path class="st95" d="M232,96.7c-0.2-0.3-0.4-0.7-0.5-1c-0.6-1.5-1.1-3-1.7-4.6c-0.1-0.3-0.2-0.5-0.4-0.9c-1.1,2.3-1.7,4.5-2.8,6.5
		c-0.7-0.1-0.7-0.5-0.9-0.9c-0.9-2.3-1.8-4.6-2.7-7c-0.2-0.6-0.4-1.2-0.7-1.7c-0.3-0.5-0.7-0.9-1.1-1.4c0.6-0.4,1.2-0.2,1.8-0.2
		c0.6,0,1.3,0,1.9,0c0.6,0,1.3-0.2,1.9,0.3c-0.1,0.2-0.3,0.3-0.4,0.5c-0.1,0.3-0.2,0.6-0.2,0.8c0.5,1.3,1,2.7,1.5,4
		c0.8-0.7,1.3-2,1-2.7c-0.4-0.9-0.8-1.8-1.2-2.7c0.8-0.3,4.4-0.3,5.2,0.1c-0.1,0.2-0.2,0.3-0.3,0.5c-0.1,0.2-0.3,0.5-0.2,0.7
		c0.4,1.4,1,2.8,1.6,4.2c0.6-1.1,1.2-2.2,1.3-3.5c0-0.6-0.1-1.1-0.6-1.4c-0.1-0.1-0.2-0.3-0.4-0.4c0.8-0.5,3-0.5,3.8,0
		c-0.1,0.1-0.2,0.3-0.3,0.4c-0.9,0.5-1.4,1.3-1.7,2.2c-1,2.5-2.1,5-3.1,7.5c-0.1,0.3-0.3,0.6-0.5,0.8
		C232.3,96.8,232.1,96.8,232,96.7z"/>
	<path class="st95" d="M220.5,95.4c0.5-0.4,0.8-0.6,1.1-0.9c0.3,0.7,0,1.3-0.8,1.8c-1.4,0.9-2.9,0.7-4.2-0.7
		c-0.3,0.2-0.5,0.4-0.8,0.5c-0.7,0.5-1.5,0.8-2.4,0.7c-1-0.1-1.8-0.5-2.1-1.5c-0.3-1-0.2-1.9,0.6-2.6c0.4-0.4,1-0.7,1.5-1
		c0.8-0.4,1.6-0.7,2.4-1.1c0.5-0.2,0.7-0.5,0.7-1c0-0.8,0-1.7,0-2.5c0-0.4,0-0.8-0.5-0.9c-0.4-0.1-0.9,0.3-1,0.8c0,0.2,0,0.5,0,0.7
		c0,0.5,0,0.9,0,1.4c-0.1,1.4-1.7,2.2-2.9,1.4c-0.5-0.3-0.7-1-0.6-1.7c0.2-0.7,0.6-1.3,1.1-1.7c1.5-1.2,3.2-1.8,5.1-1.7
		c1.7,0.1,2.6,1,2.6,2.8c0,2,0,3.9,0,5.9C220.4,94.5,220.4,94.8,220.5,95.4z M216.4,91.3c-0.3,0.1-0.5,0.1-0.6,0.2
		c-0.8,0.6-1.1,2.4-0.6,3.2c0.1,0.2,0.4,0.4,0.6,0.3c0.2-0.1,0.5-0.4,0.6-0.6C216.4,93.4,216.4,92.4,216.4,91.3z"/>
	<path class="st95" d="M92.9,91.2c-0.1-3.1,2.3-5.7,5.3-5.7c3.1-0.1,5.6,2.4,5.6,5.6c0.1,3.1-2.4,5.7-5.4,5.8
		C95.4,96.9,92.9,94.4,92.9,91.2z M96.9,91.1c0,0,0.1,0,0.1,0c0,0.8,0,1.7,0,2.5c0,0.6,0.2,1.1,0.3,1.7c0.1,0.4,0.5,0.7,1,0.7
		c0.4,0,0.7-0.3,0.9-0.7c0.1-0.5,0.3-1,0.3-1.5c0-1.7,0-3.5,0-5.2c0-0.4-0.1-0.7-0.2-1.1c-0.2-0.9-0.6-1.3-1.1-1.3
		c-0.5,0-0.9,0.4-1.1,1.3C97.1,88.7,97,89.9,96.9,91.1z"/>
	<path class="st95" d="M135.3,92.3c0,0.2,0,0.5,0,0.7c-0.7,3.4-4.7,4.9-7.4,2.8c-3-2.3-2.8-8.2,1-10c2.4-1.1,5.9-0.3,6.3,3.7
		c0.1,0.7-0.1,0.9-0.8,0.9c-1.2,0-2.4,0-3.5,0c-0.4,0-0.7,0-1.1,0c-0.2,1.2,0.4,2.7,1.3,3.2c0.8,0.5,1.6,0.5,2.3,0.1
		c0.6-0.4,1.1-1,1.7-1.5C135.2,92.3,135.2,92.3,135.3,92.3z M131.8,89.6c0.2-1,0.2-1.8-0.2-2.7c-0.2-0.4-0.4-0.8-0.9-0.7
		c-0.3,0.1-0.7,0.4-0.8,0.6c-0.4,0.8-0.4,1.7-0.3,2.7C130.4,89.6,131,89.6,131.8,89.6z"/>
	<path class="st95" d="M142.3,91.8c0.8-1.2,1.2-2.3,1.2-3.6c0-0.7-0.1-1.4-0.7-1.9c-0.1-0.1-0.2-0.3-0.3-0.4c0.7-0.4,3-0.4,3.7,0
		c-0.1,0.1-0.1,0.3-0.2,0.3c-0.9,0.8-1.4,1.8-1.8,2.9c-1.2,3.2-2.4,6.4-3.7,9.6c-0.3,0.8-0.8,1.7-1.3,2.4c-0.5,0.7-1.2,1.1-2.1,1
		c-0.8-0.1-1.3-0.6-1.5-1.5c-0.2-0.8,0.2-1.7,0.8-2c0.7-0.4,1.5-0.2,2,0.5c0.2,0.3,0.4,0.5,0.6,0.8c1.1-1,1.5-2.6,1-3.8
		c-1.1-2.8-2.2-5.5-3.4-8.2c-0.2-0.5-0.6-0.9-0.9-1.4c-0.1-0.1-0.2-0.3-0.3-0.5c0.2-0.1,0.3-0.2,0.5-0.3c1.3-0.1,4.5,0,5,0.2
		c-0.1,0.2-0.2,0.3-0.3,0.5c-0.1,0.3-0.3,0.6-0.2,0.8C141.1,88.7,141.7,90.3,142.3,91.8z"/>
	<path class="st95" d="M252.2,56.9c0-2.4,1.8-4.2,4.1-4.2c2.3,0,4.2,1.9,4.2,4.3c0,2.4-1.9,4.2-4.2,4.2
		C253.9,61.2,252.2,59.3,252.2,56.9z"/>
	<path class="st95" d="M295.5,57c0,2.4-1.9,4.3-4.2,4.2c-2.3,0-4.1-1.9-4.1-4.2c0-2.3,1.8-4.2,4.1-4.3
		C293.6,52.7,295.5,54.6,295.5,57z"/>
	<path class="st95" d="M147,91.6c0.2,0.5,0.3,0.8,0.4,1.1c0.3,0.7,0.6,1.5,1,2.2c0.4,0.7,1.1,1.2,2,1.2c0.8,0,1.5-0.3,1.7-1
		c0.2-0.7,0-1.3-0.8-1.7c-0.5-0.3-1-0.5-1.6-0.7c-0.5-0.2-1-0.4-1.5-0.7c-2-1.1-2.1-3.4-1.1-5c0.7-1,1.6-1.5,2.8-1.6
		c1.1-0.1,2.2,0.1,3.3,0.4c0.5,0.1,0.7,0.4,0.7,1c0,0.9,0,1.7,0,2.8c-0.3-0.2-0.5-0.3-0.6-0.4c-0.1-0.3-0.2-0.6-0.3-0.8
		c-0.3-0.7-0.7-1.4-1.3-1.9c-0.6-0.4-1.2-0.6-1.9-0.3c-0.5,0.2-0.8,0.6-0.8,1c0,0.3,0.3,0.8,0.5,1c0.4,0.3,1,0.5,1.4,0.7
		c0.6,0.3,1.2,0.5,1.8,0.8c2.5,1.3,2.7,4.3,0.5,6.1c-0.6,0.5-1.3,0.8-2.1,0.9c-1.4,0.2-2.7,0-4-0.5c-0.3-0.1-0.6-0.4-0.6-0.7
		c0-1.2,0-2.4,0-3.5C146.7,92,146.8,91.9,147,91.6z"/>
	<path class="st95" d="M77.2,87c1.6-1.7,3.1-3.2,4.7-4.9c0,1.2,0.1,2.3,0.1,3.4c0.8,0.1,1.5,0.1,2.2,0.2c0,1.2-0.1,1.3-1.1,1.4
		c-0.2,0-0.3,0-0.5,0c-0.4,0-0.6,0.2-0.6,0.7c0,2.2,0,4.4,0,6.6c0,0.4,0.1,0.8,0.6,0.9c0.4,0.1,0.8,0,1.1-0.4
		c0.3-0.4,0.5-0.8,0.8-1.2c0.1,0,0.2,0,0.2,0c0,0.2,0.1,0.5,0.1,0.7c-0.2,0.9-0.7,1.5-1.5,2c-1.2,0.6-2.4,0.6-3.6,0.2
		c-1-0.4-1.3-1.2-1.3-2.2c0-1.1,0-2.2,0-3.3c0-0.9,0-1.8,0-2.7C78.4,87.5,78.3,87,77.2,87z"/>
	<path class="st95" d="M86.1,87.3c-0.4-0.2-0.7-0.3-1-0.4c1.5-1.6,3-3.1,4.6-4.8c0,1.2,0.1,2.2,0.1,3.4c0.8,0.1,1.5,0.1,2.2,0.2
		c0,1.2-0.1,1.4-1.1,1.4c-0.3,0-0.5,0-0.8,0.1c-0.1,0-0.1,0.1-0.3,0.2c0,0.2-0.1,0.5-0.1,0.8c0,1.9,0,3.8,0,5.7c0,0.1,0,0.1,0,0.2
		c0,0.5,0,1.1,0.6,1.3c0.5,0.2,0.9-0.1,1.4-0.8c0.2-0.3,0.3-0.5,0.5-0.8c0.1,0,0.1,0,0.2,0.1c0,0.2,0.1,0.4,0.1,0.6
		c-0.2,0.9-0.7,1.6-1.5,2C90,97,88.7,97,87.4,96.5c-0.6-0.2-1-0.7-1.1-1.3c-0.1-0.5-0.1-0.9-0.2-1.4c0-1.8,0-3.5,0-5.3
		C86.1,88.1,86.1,87.7,86.1,87.3z"/>
	<path class="st95" d="M184.8,87.2c0,0.4-0.1,0.6-0.1,0.9c0,1.9,0,3.9,0,5.8c0,0.2,0,0.3,0,0.5c0.1,0.4,0.2,0.8,0.6,0.9
		c0.5,0.1,0.9-0.1,1.1-0.5c0.2-0.2,0.3-0.5,0.5-0.8c0.1-0.2,0.1-0.3,0.2-0.5c0.1,0.1,0.2,0.1,0.3,0.2c0,0.2,0.1,0.5,0,0.7
		c-0.3,1-0.8,1.7-1.8,2.1c-1,0.4-2,0.4-3.1,0.1c-0.9-0.3-1.4-0.8-1.5-1.7c-0.1-0.4-0.1-0.8-0.1-1.2c0-1.8,0-3.5,0-5.3
		c0-0.4,0-0.7-0.1-1.1c-0.3-0.1-0.6-0.2-1-0.4c1.5-1.6,3-3.1,4.5-4.6c0.4,1.1,0,2.2,0.3,3.2c0.7,0.1,1.4,0.1,2.1,0.2
		c0.2,1.1,0,1.4-1,1.4C185.5,87.1,185.2,87.1,184.8,87.2z"/>
	<path class="st95" d="M219.1,44.3c-2.9,0-5.4-2.5-5.4-5.5c0-3,2.4-5.5,5.4-5.5c2.9,0,5.4,2.5,5.3,5.5
		C224.4,41.8,221.9,44.3,219.1,44.3z M223.2,38.9c0-2.4-1.9-4.4-4.2-4.4c-2.1,0-4.2,1.8-4.2,4.3c0,2.4,1.8,4.3,4.1,4.3
		C221.3,43.2,223.2,41.3,223.2,38.9z"/>
	<path class="st95" d="M216.7,35.9c1.2-0.1,2.4-0.2,3.5,0.1c0.9,0.2,1.3,1.4,0.7,2.2c-0.2,0.2-0.4,0.5-0.6,0.7
		c0.5,0.9,0.9,1.7,1.4,2.5c-0.7,0.4-1.2,0.4-1.6-0.2c-0.2-0.3-0.3-0.7-0.5-1.1c-0.2-0.3-0.4-0.6-0.7-1.1c-0.6,1-0.3,1.7,0,2.6
		c-0.7,0-1.4,0-2,0c0.6-1.5,0.3-3.1,0.3-4.6C217.1,36.6,216.9,36.3,216.7,35.9z M218.5,37.4c0,0.1,0,0.2,0,0.3
		c0,0.3-0.1,0.7,0.4,0.8c0.4,0.1,0.8-0.2,0.9-0.7c0.1-0.3,0-0.7-0.1-1c-0.1-0.4-0.5-0.6-0.9-0.5c-0.4,0.1-0.3,0.4-0.4,0.7
		C218.5,37.2,218.5,37.3,218.5,37.4z"/>
</g>
</svg>
