<?xml version="1.0" encoding="utf-8"?>
<!-- Generator: Adobe Illustrator 22.1.0, SVG Export Plug-In . SVG Version: 6.00 Build 0)  -->
<svg version="1.1" id="Layer_1" xmlns="http://www.w3.org/2000/svg" xmlns:xlink="http://www.w3.org/1999/xlink" x="0px" y="0px"
	 width="116.4px" height="83.2px" viewBox="0 0 116.4 83.2" style="enable-background:new 0 0 116.4 83.2;" xml:space="preserve">
<style type="text/css">
	.st0{fill:url(#SVGID_1_);}
	.st1{fill:url(#SVGID_2_);}
	.st2{fill:url(#SVGID_3_);}
	.st3{fill:url(#SVGID_4_);}
	.st4{fill:url(#SVGID_5_);}
	.st5{fill:url(#SVGID_6_);}
	.st6{fill:url(#SVGID_7_);}
	.st7{fill:url(#SVGID_8_);}
	.st8{fill:url(#SVGID_9_);}
	.st9{fill:url(#SVGID_10_);}
	.st10{fill:url(#SVGID_11_);}
	.st11{fill:url(#SVGID_12_);}
	.st12{fill:url(#SVGID_13_);}
	.st13{fill:url(#SVGID_14_);}
	.st14{fill:url(#SVGID_15_);}
	.st15{fill:url(#SVGID_16_);}
	.st16{fill:url(#SVGID_17_);}
	.st17{fill:url(#SVGID_18_);}
	.st18{fill:url(#SVGID_19_);}
	.st19{fill:url(#SVGID_20_);}
	.st20{fill:url(#SVGID_21_);}
	.st21{fill:url(#SVGID_22_);}
	.st22{fill:url(#SVGID_23_);}
	.st23{fill:url(#SVGID_24_);}
	.st24{fill:url(#SVGID_25_);}
	.st25{fill:url(#SVGID_26_);}
	.st26{fill:url(#SVGID_27_);}
	.st27{fill:url(#SVGID_28_);}
	.st28{fill:url(#SVGID_29_);}
	.st29{fill:url(#SVGID_30_);}
	.st30{fill:url(#SVGID_31_);}
	.st31{fill:url(#SVGID_32_);}
	.st32{fill:url(#SVGID_33_);}
	.st33{fill:url(#SVGID_34_);}
	.st34{fill:url(#SVGID_35_);}
	.st35{fill:url(#SVGID_36_);}
	.st36{fill:url(#SVGID_37_);}
	.st37{fill:url(#SVGID_38_);}
	.st38{fill:url(#SVGID_39_);}
	.st39{fill:url(#SVGID_40_);}
	.st40{fill:url(#SVGID_41_);}
	.st41{fill:url(#SVGID_42_);}
	.st42{fill:url(#SVGID_43_);}
	.st43{fill:url(#SVGID_44_);}
	.st44{fill:url(#SVGID_45_);}
	.st45{fill:url(#SVGID_46_);}
	.st46{fill:url(#SVGID_47_);}
	.st47{fill:url(#SVGID_48_);}
	.st48{fill:url(#SVGID_49_);}
	.st49{fill:url(#SVGID_50_);}
	.st50{fill:url(#SVGID_51_);}
	.st51{fill:url(#SVGID_52_);}
	.st52{fill:url(#SVGID_53_);}
	.st53{fill:url(#SVGID_54_);}
	.st54{fill:url(#SVGID_55_);}
	.st55{fill:url(#SVGID_56_);}
	.st56{fill:url(#SVGID_57_);}
</style>
<g>
	<linearGradient id="SVGID_1_" gradientUnits="userSpaceOnUse" x1="114.8695" y1="83.0992" x2="114.8695" y2="-0.4962">
		<stop  offset="0" style="stop-color:#092C56"/>
		<stop  offset="1" style="stop-color:#045D95"/>
	</linearGradient>
	<rect x="113.4" y="81.2" class="st0" width="3" height="2"/>
	<linearGradient id="SVGID_2_" gradientUnits="userSpaceOnUse" x1="1.4819" y1="83.0992" x2="1.4819" y2="-0.4962">
		<stop  offset="0" style="stop-color:#092C56"/>
		<stop  offset="1" style="stop-color:#045D95"/>
	</linearGradient>
	<rect y="81.2" class="st1" width="3" height="2"/>
	<linearGradient id="SVGID_3_" gradientUnits="userSpaceOnUse" x1="44.5303" y1="83.0992" x2="44.5303" y2="-0.4962">
		<stop  offset="0" style="stop-color:#092C56"/>
		<stop  offset="1" style="stop-color:#045D95"/>
	</linearGradient>
	<path class="st2" d="M35.2,69.1h18.7V50.4H35.2V69.1z M37.2,52.4h14.6V67H37.2V52.4z"/>
	<linearGradient id="SVGID_4_" gradientUnits="userSpaceOnUse" x1="58.0919" y1="83.0992" x2="58.0919" y2="-0.4962">
		<stop  offset="0" style="stop-color:#092C56"/>
		<stop  offset="1" style="stop-color:#045D95"/>
	</linearGradient>
	<path class="st3" d="M95,45.3L95,45.3l6.3-6.3c0.2-0.2,0.3-0.5,0.3-0.8c0-0.3-0.1-0.5-0.3-0.7L58.5,0.2c-0.4-0.3-0.9-0.3-1.3,0
		l-20,17.6V7.3H24.8v21.4l-9.7,8.5c-0.2,0.2-0.3,0.4-0.3,0.7c0,0.3,0.1,0.5,0.3,0.7l5.8,6.5l0,36H7.3v2h101.5v-2H94.9L95,45.3z
		 M26.8,9.4h8.4v10.2L26.8,27V9.4z M83.7,81.2H64.6V52.4h19.1V81.2z M92.9,81.2h-7.2V50.4H62.6v30.8H22.8l0-35.9l0.1-0.1l35-30.9
		l0.2,0.2l34.9,30.8L92.9,81.2z M58.5,12.2c-0.4-0.3-1-0.3-1.3,0L21.9,43.4l-4.7-5.3l7.6-6.7v0L57.9,2.4l0.2,0.2l41,35.7l-5.2,5.2
		L58.5,12.2z"/>
	<linearGradient id="SVGID_5_" gradientUnits="userSpaceOnUse" x1="57.8729" y1="83.0992" x2="57.8729" y2="-0.4962">
		<stop  offset="0" style="stop-color:#092C56"/>
		<stop  offset="1" style="stop-color:#045D95"/>
	</linearGradient>
	<path class="st4" d="M50.8,35.3c0,3.9,3.2,7.1,7.1,7.1s7.1-3.2,7.1-7.1s-3.2-7.1-7.1-7.1S50.8,31.4,50.8,35.3z M63,35.3
		c0,2.8-2.3,5.1-5.1,5.1c-2.8,0-5.1-2.3-5.1-5.1c0-2.8,2.3-5.1,5.1-5.1C60.7,30.3,63,32.5,63,35.3z"/>
</g>
</svg>
