<?xml version="1.0" encoding="utf-8"?>
<!-- Generator: Adobe Illustrator 22.1.0, SVG Export Plug-In . SVG Version: 6.00 Build 0)  -->
<svg version="1.1" id="Layer_1" xmlns="http://www.w3.org/2000/svg" xmlns:xlink="http://www.w3.org/1999/xlink" x="0px" y="0px"
	 width="75.8px" height="79.6px" viewBox="0 0 75.8 79.6" style="enable-background:new 0 0 75.8 79.6;" xml:space="preserve">
<style type="text/css">
	.st0{fill:url(#SVGID_1_);}
	.st1{fill:url(#SVGID_2_);}
	.st2{fill:url(#SVGID_3_);}
	.st3{fill:url(#SVGID_4_);}
	.st4{fill:url(#SVGID_5_);}
	.st5{fill:url(#SVGID_6_);}
	.st6{fill:url(#SVGID_7_);}
	.st7{fill:url(#SVGID_8_);}
	.st8{fill:url(#SVGID_9_);}
	.st9{fill:url(#SVGID_10_);}
	.st10{fill:url(#SVGID_11_);}
	.st11{fill:url(#SVGID_12_);}
	.st12{fill:url(#SVGID_13_);}
	.st13{fill:url(#SVGID_14_);}
	.st14{fill:url(#SVGID_15_);}
	.st15{fill:url(#SVGID_16_);}
	.st16{fill:url(#SVGID_17_);}
	.st17{fill:url(#SVGID_18_);}
	.st18{fill:url(#SVGID_19_);}
	.st19{fill:url(#SVGID_20_);}
	.st20{fill:url(#SVGID_21_);}
	.st21{fill:url(#SVGID_22_);}
	.st22{fill:url(#SVGID_23_);}
	.st23{fill:url(#SVGID_24_);}
	.st24{fill:url(#SVGID_25_);}
	.st25{fill:url(#SVGID_26_);}
	.st26{fill:url(#SVGID_27_);}
	.st27{fill:url(#SVGID_28_);}
	.st28{fill:url(#SVGID_29_);}
	.st29{fill:url(#SVGID_30_);}
	.st30{fill:url(#SVGID_31_);}
	.st31{fill:url(#SVGID_32_);}
	.st32{fill:url(#SVGID_33_);}
	.st33{fill:url(#SVGID_34_);}
	.st34{fill:url(#SVGID_35_);}
	.st35{fill:url(#SVGID_36_);}
	.st36{fill:url(#SVGID_37_);}
	.st37{fill:url(#SVGID_38_);}
	.st38{fill:url(#SVGID_39_);}
	.st39{fill:url(#SVGID_40_);}
	.st40{fill:url(#SVGID_41_);}
	.st41{fill:url(#SVGID_42_);}
	.st42{fill:url(#SVGID_43_);}
	.st43{fill:url(#SVGID_44_);}
	.st44{fill:url(#SVGID_45_);}
	.st45{fill:url(#SVGID_46_);}
	.st46{fill:url(#SVGID_47_);}
	.st47{fill:url(#SVGID_48_);}
	.st48{fill:url(#SVGID_49_);}
	.st49{fill:url(#SVGID_50_);}
	.st50{fill:url(#SVGID_51_);}
	.st51{fill:url(#SVGID_52_);}
	.st52{fill:url(#SVGID_53_);}
	.st53{fill:url(#SVGID_54_);}
	.st54{fill:url(#SVGID_55_);}
	.st55{fill:url(#SVGID_56_);}
	.st56{fill:url(#SVGID_57_);}
</style>
<g>
	<linearGradient id="SVGID_1_" gradientUnits="userSpaceOnUse" x1="25.5772" y1="79.3869" x2="25.5772" y2="-0.317">
		<stop  offset="0" style="stop-color:#092C56"/>
		<stop  offset="1" style="stop-color:#045D95"/>
	</linearGradient>
	<path class="st0" d="M25.6,33.7C14.4,33.7,5.3,42.8,5.3,54c0,11.2,9.1,20.3,20.3,20.3S45.9,65.2,45.9,54
		C45.9,42.8,36.8,33.7,25.6,33.7z M44,53H27.9l11.4-11.4C42.1,44.8,43.7,48.8,44,53z M26.5,51.7V35.6c4.2,0.2,8.3,1.9,11.4,4.7
		L26.5,51.7z M39.2,66.3L27.9,54.9H44C43.7,59.1,42.1,63.2,39.2,66.3L39.2,66.3z M26.5,56.3l11.4,11.4c-3.1,2.8-7.2,4.5-11.4,4.7
		L26.5,56.3z M24.6,56.3v16.1c-4.2-0.2-8.3-1.9-11.4-4.7v0L24.6,56.3z M7.2,53c0.2-4.2,1.9-8.3,4.7-11.4L23.3,53H7.2z M23.3,54.9
		L11.9,66.3c-2.8-3.1-4.5-7.2-4.7-11.4v0H23.3z M24.6,51.7L13.2,40.3c3.1-2.8,7.2-4.5,11.4-4.7L24.6,51.7z"/>
	<linearGradient id="SVGID_2_" gradientUnits="userSpaceOnUse" x1="37.8909" y1="79.3869" x2="37.8909" y2="-0.317">
		<stop  offset="0" style="stop-color:#092C56"/>
		<stop  offset="1" style="stop-color:#045D95"/>
	</linearGradient>
	<path class="st1" d="M68.9,60.6L68.9,60.6l-0.1-15h0.6c1.3,0,2.4-1.1,2.4-2.4c0-5.9-4.8-10.8-10.8-10.8H39.2l0,0
		c-3.3-2-6.8-3.3-10.6-3.8l-0.1,0V25h22.7v-1.8c0-4.9-4-9-9-9H28.4v-1.6c0-2.4-1.2-4.6-3.2-5.9l-9.7-6.3c-0.6-0.4-1.3-0.5-2-0.4
		c-0.7,0.1-1.3,0.6-1.7,1.2c-0.4,0.6-0.5,1.3-0.4,2C11.6,4,12,4.6,12.6,5l9.6,6.3c0.5,0.3,0.8,0.9,0.8,1.5v1.5h-0.9
		c-1.2,0-2.1,0.9-2.1,2.1v6.5c0,1.2,0.9,2.1,2.1,2.1H23v3.6l-0.1,0C9.8,29.9,0,40.9,0,54c0,14.1,11.5,25.6,25.6,25.6
		S51.2,68.1,51.2,54c0-2.8-0.5-5.6-1.4-8.3l-0.1-0.2h13.7v15l-0.1,0c-4.1,1.2-6.9,5-6.9,9.3c0,5.3,4.4,9.7,9.7,9.7s9.7-4.4,9.7-9.7
		C75.8,65.6,72.9,61.8,68.9,60.6z M23.1,9.9l-9.6-6.3c-0.2-0.2-0.4-0.4-0.5-0.7c-0.1-0.3,0-0.6,0.2-0.8c0.3-0.5,1-0.6,1.5-0.3
		l9.7,6.3c1.5,1,2.4,2.7,2.4,4.5v1.6h-2.1v-1.5C24.6,11.6,24.1,10.5,23.1,9.9z M66.1,77.9c-4.4,0-8.1-3.6-8.1-8.1
		c0-4.4,3.6-8.1,8.1-8.1c4.4,0,8.1,3.6,8.1,8.1C74.1,74.3,70.5,77.9,66.1,77.9z M67,60.2c-0.3,0-0.6,0-0.9,0c-0.3,0-0.6,0-0.9,0
		l-0.1,0V45.6h2.1v14.7L67,60.2z M25.6,77.9C12.4,77.9,1.6,67.2,1.6,54s10.7-23.9,23.9-23.9c13.2,0,23.9,10.7,23.9,23.9
		S38.8,77.9,25.6,77.9z M69.4,43.9H49.1l0-0.1c-1.6-3.7-4.1-7-7.3-9.6L41.5,34H61c5,0,9.1,4.1,9.1,9.1
		C70.1,43.6,69.8,43.9,69.4,43.9z M21.6,16.3c0-0.3,0.2-0.5,0.5-0.5h20.1c4,0,7.3,3.3,7.3,7.3v0.1l-27.4,0c-0.3,0-0.5-0.2-0.5-0.5
		V16.3z M26.8,25v3.4h-2.1V25H26.8z"/>
	<linearGradient id="SVGID_3_" gradientUnits="userSpaceOnUse" x1="66.0806" y1="79.3869" x2="66.0806" y2="-0.317">
		<stop  offset="0" style="stop-color:#092C56"/>
		<stop  offset="1" style="stop-color:#045D95"/>
	</linearGradient>
	<path class="st2" d="M66.1,64.1c-3.2,0-5.8,2.6-5.8,5.8c0,3.2,2.6,5.8,5.8,5.8c3.2,0,5.8-2.6,5.8-5.8
		C71.9,66.7,69.3,64.1,66.1,64.1z M66.1,73.8c-2.1,0-3.9-1.7-3.9-3.9s1.7-3.9,3.9-3.9c2.1,0,3.9,1.7,3.9,3.9S68.2,73.8,66.1,73.8z"
		/>
</g>
</svg>
