<?xml version="1.0" encoding="utf-8"?>
<!-- Generator: Adobe Illustrator 22.1.0, SVG Export Plug-In . SVG Version: 6.00 Build 0)  -->
<svg version="1.1" id="Layer_1" xmlns="http://www.w3.org/2000/svg" xmlns:xlink="http://www.w3.org/1999/xlink" x="0px" y="0px"
	 width="128.1px" height="79.7px" viewBox="0 0 128.1 79.7" style="enable-background:new 0 0 128.1 79.7;" xml:space="preserve">
<style type="text/css">
	.st0{fill:url(#SVGID_1_);}
	.st1{fill:url(#SVGID_2_);}
	.st2{fill:url(#SVGID_3_);}
	.st3{fill:url(#SVGID_4_);}
	.st4{fill:url(#SVGID_5_);}
	.st5{fill:url(#SVGID_6_);}
	.st6{fill:url(#SVGID_7_);}
	.st7{fill:url(#SVGID_8_);}
	.st8{fill:url(#SVGID_9_);}
	.st9{fill:url(#SVGID_10_);}
	.st10{fill:url(#SVGID_11_);}
	.st11{fill:url(#SVGID_12_);}
	.st12{fill:url(#SVGID_13_);}
	.st13{fill:url(#SVGID_14_);}
	.st14{fill:url(#SVGID_15_);}
	.st15{fill:url(#SVGID_16_);}
	.st16{fill:url(#SVGID_17_);}
	.st17{fill:url(#SVGID_18_);}
	.st18{fill:url(#SVGID_19_);}
	.st19{fill:url(#SVGID_20_);}
	.st20{fill:url(#SVGID_21_);}
	.st21{fill:url(#SVGID_22_);}
	.st22{fill:url(#SVGID_23_);}
	.st23{fill:url(#SVGID_24_);}
	.st24{fill:url(#SVGID_25_);}
	.st25{fill:url(#SVGID_26_);}
	.st26{fill:url(#SVGID_27_);}
	.st27{fill:url(#SVGID_28_);}
	.st28{fill:url(#SVGID_29_);}
	.st29{fill:url(#SVGID_30_);}
	.st30{fill:url(#SVGID_31_);}
	.st31{fill:url(#SVGID_32_);}
	.st32{fill:url(#SVGID_33_);}
	.st33{fill:url(#SVGID_34_);}
	.st34{fill:url(#SVGID_35_);}
	.st35{fill:url(#SVGID_36_);}
	.st36{fill:url(#SVGID_37_);}
	.st37{fill:url(#SVGID_38_);}
	.st38{fill:url(#SVGID_39_);}
	.st39{fill:url(#SVGID_40_);}
	.st40{fill:url(#SVGID_41_);}
	.st41{fill:url(#SVGID_42_);}
	.st42{fill:url(#SVGID_43_);}
	.st43{fill:url(#SVGID_44_);}
	.st44{fill:url(#SVGID_45_);}
	.st45{fill:url(#SVGID_46_);}
	.st46{fill:url(#SVGID_47_);}
	.st47{fill:url(#SVGID_48_);}
	.st48{fill:url(#SVGID_49_);}
	.st49{fill:url(#SVGID_50_);}
	.st50{fill:url(#SVGID_51_);}
	.st51{fill:url(#SVGID_52_);}
	.st52{fill:url(#SVGID_53_);}
	.st53{fill:url(#SVGID_54_);}
	.st54{fill:url(#SVGID_55_);}
	.st55{fill:url(#SVGID_56_);}
	.st56{fill:url(#SVGID_57_);}
</style>
<g>
	<linearGradient id="SVGID_1_" gradientUnits="userSpaceOnUse" x1="7.2951" y1="79.424" x2="7.2951" y2="-0.5712">
		<stop  offset="0" style="stop-color:#092C56"/>
		<stop  offset="1" style="stop-color:#045D95"/>
	</linearGradient>
	<rect x="6.1" y="39.9" class="st0" width="2.4" height="2"/>
	<linearGradient id="SVGID_2_" gradientUnits="userSpaceOnUse" x1="7.2951" y1="79.424" x2="7.2951" y2="-0.5712">
		<stop  offset="0" style="stop-color:#092C56"/>
		<stop  offset="1" style="stop-color:#045D95"/>
	</linearGradient>
	<rect x="6.1" y="66.9" class="st1" width="2.4" height="2"/>
	<linearGradient id="SVGID_3_" gradientUnits="userSpaceOnUse" x1="1.179" y1="79.424" x2="1.179" y2="-0.5712">
		<stop  offset="0" style="stop-color:#092C56"/>
		<stop  offset="1" style="stop-color:#045D95"/>
	</linearGradient>
	<rect y="39.9" class="st2" width="2.4" height="2"/>
	<linearGradient id="SVGID_4_" gradientUnits="userSpaceOnUse" x1="38.6759" y1="79.424" x2="38.6759" y2="-0.5712">
		<stop  offset="0" style="stop-color:#092C56"/>
		<stop  offset="1" style="stop-color:#045D95"/>
	</linearGradient>
	<path class="st3" d="M23.8,8.7c0-2,1.6-3.6,3.6-3.6c0.3,0,0.7,0.1,1,0.2l0.7,0.2l0.4-0.6c1.3-1.9,3.4-3,5.6-3c2.3,0,4.4,1.1,5.6,3
		l0.6,0.9l0.8-0.7c0.8-0.6,1.8-1,2.8-1c2.5,0,4.5,2,4.5,4.5v1h10.1v-2h-8.2l-0.1-0.3c-0.6-3-3.3-5.2-6.3-5.2c-1,0-2,0.2-2.9,0.7
		l-0.2,0.1l-0.2-0.2C40,1.1,37.6,0,35.1,0c-2.6,0-5,1.1-6.7,3.1l-0.1,0.1l-0.2,0c-2.9-0.5-5.5,1.4-6.2,4.2l-0.1,0.3h-4.1v2h6V8.7z"
		/>
	<linearGradient id="SVGID_5_" gradientUnits="userSpaceOnUse" x1="12.0129" y1="79.424" x2="12.0129" y2="-0.5712">
		<stop  offset="0" style="stop-color:#092C56"/>
		<stop  offset="1" style="stop-color:#045D95"/>
	</linearGradient>
	<rect x="10.5" y="7.7" class="st4" width="3.1" height="2"/>
	<linearGradient id="SVGID_6_" gradientUnits="userSpaceOnUse" x1="65.4245" y1="79.424" x2="65.4245" y2="-0.5712">
		<stop  offset="0" style="stop-color:#092C56"/>
		<stop  offset="1" style="stop-color:#045D95"/>
	</linearGradient>
	<rect x="63.8" y="7.7" class="st5" width="3.2" height="2"/>
	<linearGradient id="SVGID_7_" gradientUnits="userSpaceOnUse" x1="94.9197" y1="79.424" x2="94.9197" y2="-0.5712">
		<stop  offset="0" style="stop-color:#092C56"/>
		<stop  offset="1" style="stop-color:#045D95"/>
	</linearGradient>
	<path class="st6" d="M84.1,17.2c0-2,1.6-3.6,3.6-3.6c0.3,0,0.7,0.1,1,0.2l0.7,0.2l0.4-0.6c1.3-1.9,3.4-3,5.6-3c2.3,0,4.4,1.1,5.6,3
		l0.6,0.9l0.8-0.7c0.8-0.6,1.8-1,2.8-1c2.4,0,4.3,1.8,4.5,4.2h2c-0.2-3.4-3-6.1-6.5-6.1c-1,0-2,0.2-2.9,0.7l-0.2,0.1l-0.2-0.2
		c-1.7-1.9-4-2.9-6.5-2.9c-2.6,0-5,1.1-6.7,3.1l-0.1,0.1l-0.2,0c-2.9-0.5-5.5,1.4-6.2,4.2l-0.1,0.3h-4.1v2h6V17.2z"/>
	<linearGradient id="SVGID_8_" gradientUnits="userSpaceOnUse" x1="72.3213" y1="79.424" x2="72.3213" y2="-0.5712">
		<stop  offset="0" style="stop-color:#092C56"/>
		<stop  offset="1" style="stop-color:#045D95"/>
	</linearGradient>
	<rect x="70.8" y="16.2" class="st7" width="3.1" height="2"/>
	<linearGradient id="SVGID_9_" gradientUnits="userSpaceOnUse" x1="70.1616" y1="79.424" x2="70.1616" y2="-0.5712">
		<stop  offset="0" style="stop-color:#092C56"/>
		<stop  offset="1" style="stop-color:#045D95"/>
	</linearGradient>
	<path class="st8" d="M125.6,66.9v-6.7c0-2.9-1.6-5.5-4.1-6.9l-2.3-1.2l0-0.1l-7.6-14.6c-1.9-3.6-5.5-5.8-9.5-5.8h-14v-5.1H20.4v2
		h6.8v11.5h-15v2h15v11.5h-9.5v2h9.5v11.5h-15v2h26.6l0,0.3c0,5.8,4.8,10.5,10.5,10.5c5.8,0,10.5-4.7,10.5-10.5l0-0.3h33.1l0,0.3
		c0,5.8,4.8,10.5,10.5,10.5c5.8,0,10.5-4.7,10.5-10.5l0-0.3h14.1v-2H125.6z M100,33.5h2.2c3.3,0,6.3,1.8,7.8,4.7l7,13.5h-12.5
		c-2.5,0-4.5-2-4.5-4.5V33.5z M49.4,77.7c-4.7,0-8.5-3.8-8.5-8.5c0-4.7,3.8-8.5,8.5-8.5s8.5,3.8,8.5,8.5
		C57.9,73.8,54.1,77.7,49.4,77.7z M86.1,66.9H59.6l-0.1-0.3c-1.2-4.7-5.4-8-10.2-8s-9,3.3-10.2,8l-0.1,0.3h-9.9V55.4H38v-2h-8.8
		V41.9H49v-2H29.2V28.5h56.9V66.9z M103.5,77.7c-4.7,0-8.5-3.8-8.5-8.5c0-4.7,3.8-8.5,8.5-8.5s8.5,3.8,8.5,8.5
		C112,73.8,108.2,77.7,103.5,77.7z M123.7,66.9h-9.9l-0.1-0.3c-1.2-4.7-5.4-8-10.2-8c-4.8,0-9,3.3-10.2,8l-0.1,0.3h-5.1V33.5H98
		v13.8c0,3.5,2.9,6.4,6.4,6.4l13.9,0l2.3,1.2c1.9,1,3.1,3,3.1,5.2V66.9z"/>
</g>
</svg>
