<?xml version="1.0" encoding="utf-8"?>
<!-- Generator: Adobe Illustrator 22.1.0, SVG Export Plug-In . SVG Version: 6.00 Build 0)  -->
<svg version="1.1" id="Layer_1" xmlns="http://www.w3.org/2000/svg" xmlns:xlink="http://www.w3.org/1999/xlink" x="0px" y="0px"
	 width="125px" height="67.2px" viewBox="0 0 125 67.2" style="enable-background:new 0 0 125 67.2;" xml:space="preserve">
<style type="text/css">
	.st0{fill:url(#SVGID_1_);}
	.st1{fill:url(#SVGID_2_);}
	.st2{fill:url(#SVGID_3_);}
	.st3{fill:url(#SVGID_4_);}
	.st4{fill:url(#SVGID_5_);}
	.st5{fill:url(#SVGID_6_);}
	.st6{fill:url(#SVGID_7_);}
	.st7{fill:url(#SVGID_8_);}
	.st8{fill:url(#SVGID_9_);}
	.st9{fill:url(#SVGID_10_);}
	.st10{fill:url(#SVGID_11_);}
	.st11{fill:url(#SVGID_12_);}
	.st12{fill:url(#SVGID_13_);}
	.st13{fill:url(#SVGID_14_);}
	.st14{fill:url(#SVGID_15_);}
	.st15{fill:url(#SVGID_16_);}
	.st16{fill:url(#SVGID_17_);}
	.st17{fill:url(#SVGID_18_);}
	.st18{fill:url(#SVGID_19_);}
	.st19{fill:url(#SVGID_20_);}
	.st20{fill:url(#SVGID_21_);}
	.st21{fill:url(#SVGID_22_);}
	.st22{fill:url(#SVGID_23_);}
	.st23{fill:url(#SVGID_24_);}
	.st24{fill:url(#SVGID_25_);}
	.st25{fill:url(#SVGID_26_);}
	.st26{fill:url(#SVGID_27_);}
	.st27{fill:url(#SVGID_28_);}
	.st28{fill:url(#SVGID_29_);}
	.st29{fill:url(#SVGID_30_);}
	.st30{fill:url(#SVGID_31_);}
	.st31{fill:url(#SVGID_32_);}
	.st32{fill:url(#SVGID_33_);}
	.st33{fill:url(#SVGID_34_);}
	.st34{fill:url(#SVGID_35_);}
	.st35{fill:url(#SVGID_36_);}
	.st36{fill:url(#SVGID_37_);}
	.st37{fill:url(#SVGID_38_);}
	.st38{fill:url(#SVGID_39_);}
	.st39{fill:url(#SVGID_40_);}
	.st40{fill:url(#SVGID_41_);}
	.st41{fill:url(#SVGID_42_);}
	.st42{fill:url(#SVGID_43_);}
	.st43{fill:url(#SVGID_44_);}
	.st44{fill:url(#SVGID_45_);}
	.st45{fill:url(#SVGID_46_);}
	.st46{fill:url(#SVGID_47_);}
	.st47{fill:url(#SVGID_48_);}
	.st48{fill:url(#SVGID_49_);}
	.st49{fill:url(#SVGID_50_);}
	.st50{fill:url(#SVGID_51_);}
	.st51{fill:url(#SVGID_52_);}
	.st52{fill:url(#SVGID_53_);}
	.st53{fill:url(#SVGID_54_);}
	.st54{fill:url(#SVGID_55_);}
	.st55{fill:url(#SVGID_56_);}
	.st56{fill:url(#SVGID_57_);}
</style>
<g>
	<linearGradient id="SVGID_1_" gradientUnits="userSpaceOnUse" x1="43.0856" y1="67.0712" x2="43.0856" y2="-2.3326">
		<stop  offset="0" style="stop-color:#092C56"/>
		<stop  offset="1" style="stop-color:#045D95"/>
	</linearGradient>
	<path class="st0" d="M43.8,42L43.8,42c-0.1,0-0.1,0-0.1,0c-0.1,0-0.3,0-0.4,0.1c-0.2,0.1-0.3,0.3-0.3,0.5l-1.3,7.9
		c0,0.2,0,0.4,0.1,0.5c0.1,0.2,0.3,0.3,0.5,0.3c0.4,0.1,0.8-0.2,0.8-0.6l1.3-7.9c0-0.2,0-0.4-0.1-0.5C44.2,42.1,44,42,43.8,42z"/>
	<linearGradient id="SVGID_2_" gradientUnits="userSpaceOnUse" x1="46.2835" y1="67.0712" x2="46.2835" y2="-2.3326">
		<stop  offset="0" style="stop-color:#092C56"/>
		<stop  offset="1" style="stop-color:#045D95"/>
	</linearGradient>
	<path class="st1" d="M46.9,43L46.9,43c-0.1,0-0.1,0-0.1,0c-0.1,0-0.3,0-0.4,0.1c-0.2,0.1-0.3,0.3-0.3,0.5L45,50.5
		c-0.1,0.4,0.2,0.8,0.6,0.8c0.4,0.1,0.8-0.2,0.8-0.6l1.1-6.9c0-0.2,0-0.4-0.1-0.5C47.3,43.1,47.1,43,46.9,43z"/>
	<linearGradient id="SVGID_3_" gradientUnits="userSpaceOnUse" x1="49.483" y1="67.0712" x2="49.483" y2="-2.3326">
		<stop  offset="0" style="stop-color:#092C56"/>
		<stop  offset="1" style="stop-color:#045D95"/>
	</linearGradient>
	<path class="st2" d="M50.1,44L50.1,44c-0.1,0-0.1,0-0.1,0c-0.1,0-0.3,0-0.4,0.1c-0.2,0.1-0.3,0.3-0.3,0.5l-0.9,5.8
		c0,0.2,0,0.4,0.1,0.5c0.1,0.2,0.3,0.3,0.5,0.3c0.4,0.1,0.8-0.2,0.8-0.6l0.9-5.8c0-0.2,0-0.4-0.1-0.5C50.4,44.2,50.3,44.1,50.1,44z"
		/>
	<linearGradient id="SVGID_4_" gradientUnits="userSpaceOnUse" x1="62.5145" y1="67.0712" x2="62.5145" y2="-2.3326">
		<stop  offset="0" style="stop-color:#092C56"/>
		<stop  offset="1" style="stop-color:#045D95"/>
	</linearGradient>
	<path class="st3" d="M124.3,31.8h-8.6l-3.7-3.1l8.3-7.8c0.2-0.2,0.3-0.5,0.2-0.7c-0.1-0.3-0.3-0.4-0.5-0.5l-10.8-2.2v0l-8.5-1.2
		l-0.1,0c-0.1,0-0.2,0-0.2,0c0,0-0.1,0-0.1,0c0,0-0.1,0-0.2,0.1l-0.2,0.2l-6.1,9.9l-15.1,1.3L74.7,20c0,0-0.1-0.1-0.1-0.1l-0.1-0.1
		c0,0-1.6-1.9-3.8-3.7c-1.9-1.5-6.3-3.2-6.5-3.3c-0.1-0.1-0.3-0.1-0.5,0l-12.5,3.6l-0.2-0.1c-0.4-0.2-0.9-0.4-1.3-0.4H41l-0.3-1.8
		l11.4-2.1c0.3-0.1,0.5-0.3,0.6-0.6l0.9-6.2c0-0.2,0-0.4-0.2-0.6c-0.1-0.2-0.4-0.2-0.6-0.2L46.5,5l-5.9-4.9C40.4,0,40-0.1,39.8,0.1
		c-0.6,0.4-13.9,8.8-20,14.8c-0.5,0.5-1,1-1.5,1.6l-0.2,0.2C13.9,21.9,14,26.3,14,27l0,0.1c0,0,0,0.1,0.1,0.2l0,0.1
		c0,0.1,0.1,0.1,0.1,0.2l0.1,0.1c0,0,0,0,0.1,0l3.9,2.4c0.1,0.1,0.2,0.1,0.4,0.1h5.6l2.5,2.2l-0.8,1.4l-0.5-0.2
		c-4.2-2.3-9.3-2.9-14-1.8c-0.4,0.1-0.6,0.5-0.5,0.9c0,0.2,0.2,0.3,0.3,0.4c0.2,0.1,0.3,0.1,0.5,0.1c4.3-1,9-0.4,12.9,1.6l0.5,0.3
		L24,37l-0.5-0.2c-2.3-1.2-4.8-1.8-7.4-1.8C7.2,34.9,0,42.2,0,51s7.2,16.1,16.1,16.1c8.9,0,16.1-7.2,16.1-16.1c0-5.1-2.5-10-6.6-13
		l-0.4-0.3l1.2-2l0.5,0.3c1.8,1.3,3.4,3,4.6,4.9c0.2,0.3,0.7,0.4,1,0.2c0.3-0.2,0.4-0.7,0.2-1c-1.4-2.1-3.1-3.9-5.1-5.3l-0.4-0.3
		l0.7-1.2L38.6,43l0,0.2l-1.2,7.3L33.6,56c-0.1,0.2-0.1,0.4-0.1,0.6c0.1,0.2,0.2,0.4,0.4,0.4c0.5,0.2,2.9,1.2,6.1,1.2h24.4
		c0.1,0,0.1,0,0.2,0l7.8-2.1c0.2,0,0.3-0.1,0.4-0.3l1.9-2.8l10.1-0.8l0.1,0.5c0.9,8.1,7.8,14.3,16,14.3c8.9,0,16.1-7.2,16.1-16.1
		c0-2.9-0.8-5.7-2.3-8.2l-0.1-0.2l1.6-5.8c0.1-0.2,0-0.5-0.1-0.7c-0.1-0.2-0.4-0.3-0.6-0.2l-7,0.9l-0.2-0.1
		c-2.3-1.2-4.8-1.8-7.3-1.8c-5.1,0-9.7,2.3-12.8,6.4l-0.3,0.4l-3.2-2.1l14-8.2l12.3-2l0.2,0.2l8.5,7.2c0.1,0.1,0.1,0.1,0.2,0.1
		c0.1,0,0.2,0,0.2,0h4.4c0.4,0,0.7-0.3,0.7-0.7v-3.8C125,32.1,124.7,31.8,124.3,31.8z M30.8,51c0,8.1-6.6,14.7-14.7,14.7
		S1.4,59.1,1.4,51c0-8.1,6.6-14.7,14.7-14.7c2.3,0,4.5,0.5,6.6,1.6l0.5,0.3l-1.3,2.1L21.5,40c-1.7-0.8-3.5-1.3-5.4-1.3
		C9.3,38.8,3.8,44.3,3.8,51s5.5,12.3,12.3,12.3c6.8,0,12.3-5.5,12.3-12.3c0-3.8-1.8-7.4-4.8-9.7L23.1,41l1.3-2.1l0.5,0.4
		C28.6,42.1,30.8,46.4,30.8,51z M15.7,51.6c0.3,0.2,0.8,0.1,1-0.2l2.4-3.9l0.5,0.6c0.7,0.9,1.1,1.9,1.1,3c0,2.5-2.1,4.6-4.6,4.6
		s-4.6-2.1-4.6-4.6s2.1-4.6,4.6-4.6c0.3,0,0.7,0,1.1,0.1l0.7,0.2l-2.4,3.9c-0.1,0.2-0.1,0.4-0.1,0.5C15.5,51.4,15.6,51.6,15.7,51.6z
		 M18.7,45.6l-0.4-0.2c-0.7-0.3-1.4-0.4-2.1-0.4c-3.3,0-6,2.7-6,6c0,3.3,2.7,6,6,6c3.3,0,6-2.7,6-6c0-1.7-0.7-3.3-2-4.4l-0.3-0.3
		l2.5-4.1l0.5,0.4c2.6,2.1,4.1,5.2,4.1,8.4c0,6-4.9,10.8-10.8,10.8S5.3,57,5.3,51c0-6,4.9-10.8,10.8-10.8c1.5,0,3.1,0.3,4.5,1
		l0.6,0.3L18.7,45.6z M100.9,17.7l7.1,1l-3.6,6.6l-0.1,0l-8.7,0.9L100.9,17.7z M73.7,23.2l0.3-1.5l3.8,7.1c0.1,0.2,0.4,0.4,0.7,0.4
		l15.4-1.3l-0.4,0.9c-0.6,1.2-1.6,2.7-3.2,3l-14.6,1.7L75.6,33c-0.4-1.2-1.2-3.6-1.8-6.1C73.4,25.7,73.4,24.5,73.7,23.2z M51.6,20.7
		c0.4-0.4,0.7-0.8,0.8-1.3c0.1-0.4,0.1-0.8,0-1.2l-0.1-0.5l11.6-3.4l0.2,0.1c0.7,0.3,4.2,1.8,5.7,2.9c1.3,1,2.4,2.1,3.1,2.9l0.3,0.3
		L73,20.7c-0.5,1.2-1.3,3.6-0.6,6.5c0.6,2.3,1.2,4.4,1.7,5.7l0.2,0.7l-7.6,0.9l-0.2-0.2L51.1,21.1L51.6,20.7z M25.6,11.8
		c5.2-4.1,11.6-8.3,14.1-10l0.3-0.2l4.9,4.1l-0.3,0.2l-9.1,5.9l-11.5,1.1L25.6,11.8z M21.3,15.5c0.3-0.3,0.6-0.5,0.9-0.8l0.1-0.1
		l0.1,0L36,13.2c0.1,0,0.2,0,0.3-0.1l10.3-6.6L52,5.9l-0.7,4.8l-11.6,2.1c-0.4,0.1-0.6,0.4-0.6,0.8l0.6,3.1c0.1,0.3,0.4,0.6,0.7,0.6
		h9.4c0.6,0,0.9,0.3,1,0.5c0.3,0.3,0.3,0.7,0.2,1.1c-0.2,0.6-0.8,1.1-1.4,1l-9.2-0.9c-0.1,0-0.2,0-0.3,0l-14.7,4.1l2.6-3.4
		c0.5-0.6,0.5-1.5,0.2-2.2c-0.4-0.7-1.1-1.1-1.9-1.1h-6.2L21.3,15.5z M15.5,25.2c0.2-1.3,0.9-4,3.3-7.1l0.2-0.2h7.7l0.4,0.8
		l-3.9,5.2l-7.8,2.2L15.5,25.2z M71.7,54.9l-7.4,2H40c-1.6,0-3.1-0.3-4-0.6l-0.7-0.2l3.4-5.1c0.1-0.1,0.1-0.2,0.1-0.3l1.3-7.9
		c0-0.2,0-0.5-0.2-0.6L25,29c-0.1-0.1-0.3-0.2-0.5-0.2h-5.6l-2.4-1.5l23.9-6.7l0,0l8.9,0.8l0.1,0.1L65.1,35l-10.8,5
		c-0.2,0.1-0.4,0.3-0.4,0.5c0,0.2,0,0.5,0.2,0.6l7.5,6.8c0.2,0.2,0.4,0.2,0.6,0.2l8.7-2l4.8,3L71.7,54.9z M114.5,45.8
		c0.7,1.7,1,3.5,1,5.2c0,8.1-6.6,14.7-14.7,14.7c-7.4,0-13.7-5.6-14.6-12.9l-0.1-0.6l3.6-0.3l0.1,0.5c0.7,5.5,5.5,9.7,11,9.7
		c6.1,0,11.2-5,11.2-11.2c0-1.4-0.3-2.7-0.7-4l-0.2-0.6l2.3-0.7c0.1,0,0.2-0.1,0.3-0.2l0.6-0.6L114.5,45.8z M97.5,50.7l0.1-0.9
		l2.8,1.8c0.1,0.1,0.3,0.1,0.5,0.1c0.2,0,0.4-0.1,0.4-0.3c0.1-0.2,0.1-0.3,0.1-0.5c0-0.2-0.2-0.3-0.3-0.5l-1.3-0.8l3.3-0.9l0.2,0.3
		c0.5,0.6,0.7,1.3,0.7,2.1c0,1.9-1.5,3.4-3.4,3.4c-1.9,0-3.4-1.5-3.4-3.4C97.5,50.9,97.5,50.8,97.5,50.7l0.3,0L97.5,50.7z
		 M100.9,55.8c2.6,0,4.8-2.1,4.8-4.8c0-0.7-0.2-1.5-0.5-2.2l-0.3-0.6l4.9-1.4l0.2,0.5c0.5,1.2,0.7,2.5,0.7,3.7
		c0,5.4-4.4,9.7-9.7,9.7c-4.8,0-8.9-3.6-9.6-8.3l-0.1-0.6l1.3-0.1c0,0,0.1,0,0.1,0l3.4-1l0.1,0.7C96.3,53.9,98.4,55.8,100.9,55.8z
		 M114.5,37.4l-1.9,7.1l-0.3,0.1l-19.9,5.7l-16.6,1.3l1.4-2l0.2,0l10.5-1.7c0.1,0,0.2,0,0.2-0.1l16.3-9.1L114.5,37.4z M88.5,43.1
		L88.5,43.1c2.8-4.2,7.4-6.7,12.4-6.7c0.7,0,1.5,0.1,2.4,0.2l1.6,0.3L99,40.1c-2.5,0.4-4.8,1.7-6.5,3.6l-0.1,0.1L86.7,47l0.6-1.5
		C87.6,44.6,88,43.8,88.5,43.1z M87,42.9l-0.2,0.5c-0.5,1-1,2.1-1.3,3.1l-0.1,0.3l-1.5,0.2v-6.2L87,42.9z M82.7,39.1
		C82.7,39.1,82.7,39.1,82.7,39.1l-0.2,0.2c0,0,0,0.1-0.1,0.1l0,0.1c0,0.1,0,0.2,0,0.2l0,7.6l-5.5,0.9l-5.5-3.4
		c-0.2-0.1-0.3-0.1-0.5-0.1l-8.7,2L62,46.5l-6.2-5.7l10.9-4.9l8.8-1l0,0l15.1-1.7c0.1,0,0.1-0.1,0.2-0.1l3.5-0.8L82.7,39.1z
		 M110.7,28l-0.2,0l-16.4,2.6l0.5-1c0.3-0.6,0.6-1.2,0.7-1.7l0.1-0.3l9.6-1c0.2,0,0.4-0.2,0.6-0.4l4-7.3l8.9,1.8L110.7,28z
		 M123.6,35.6h-3.5l-2.8-2.4h6.2V35.6z"/>
</g>
</svg>
