<?xml version="1.0" encoding="utf-8"?>
<!-- Generator: Adobe Illustrator 22.1.0, SVG Export Plug-In . SVG Version: 6.00 Build 0)  -->
<svg version="1.1" id="Layer_1" xmlns="http://www.w3.org/2000/svg" xmlns:xlink="http://www.w3.org/1999/xlink" x="0px" y="0px"
	 width="115.1px" height="83px" viewBox="0 0 115.1 83" style="enable-background:new 0 0 115.1 83;" xml:space="preserve">
<style type="text/css">
	.st0{fill:url(#SVGID_1_);}
	.st1{fill:url(#SVGID_2_);}
	.st2{fill:url(#SVGID_3_);}
	.st3{fill:url(#SVGID_4_);}
	.st4{fill:url(#SVGID_5_);}
	.st5{fill:url(#SVGID_6_);}
	.st6{fill:url(#SVGID_7_);}
	.st7{fill:url(#SVGID_8_);}
	.st8{fill:url(#SVGID_9_);}
	.st9{fill:url(#SVGID_10_);}
	.st10{fill:url(#SVGID_11_);}
	.st11{fill:url(#SVGID_12_);}
	.st12{fill:url(#SVGID_13_);}
	.st13{fill:url(#SVGID_14_);}
	.st14{fill:url(#SVGID_15_);}
	.st15{fill:url(#SVGID_16_);}
	.st16{fill:url(#SVGID_17_);}
	.st17{fill:url(#SVGID_18_);}
	.st18{fill:url(#SVGID_19_);}
	.st19{fill:url(#SVGID_20_);}
	.st20{fill:url(#SVGID_21_);}
	.st21{fill:url(#SVGID_22_);}
	.st22{fill:url(#SVGID_23_);}
	.st23{fill:url(#SVGID_24_);}
	.st24{fill:url(#SVGID_25_);}
	.st25{fill:url(#SVGID_26_);}
	.st26{fill:url(#SVGID_27_);}
	.st27{fill:url(#SVGID_28_);}
	.st28{fill:url(#SVGID_29_);}
	.st29{fill:url(#SVGID_30_);}
	.st30{fill:url(#SVGID_31_);}
	.st31{fill:url(#SVGID_32_);}
	.st32{fill:url(#SVGID_33_);}
	.st33{fill:url(#SVGID_34_);}
	.st34{fill:url(#SVGID_35_);}
	.st35{fill:url(#SVGID_36_);}
	.st36{fill:url(#SVGID_37_);}
	.st37{fill:url(#SVGID_38_);}
	.st38{fill:url(#SVGID_39_);}
	.st39{fill:url(#SVGID_40_);}
	.st40{fill:url(#SVGID_41_);}
	.st41{fill:url(#SVGID_42_);}
	.st42{fill:url(#SVGID_43_);}
	.st43{fill:url(#SVGID_44_);}
	.st44{fill:url(#SVGID_45_);}
	.st45{fill:url(#SVGID_46_);}
	.st46{fill:url(#SVGID_47_);}
	.st47{fill:url(#SVGID_48_);}
	.st48{fill:url(#SVGID_49_);}
	.st49{fill:url(#SVGID_50_);}
	.st50{fill:url(#SVGID_51_);}
	.st51{fill:url(#SVGID_52_);}
	.st52{fill:url(#SVGID_53_);}
	.st53{fill:url(#SVGID_54_);}
	.st54{fill:url(#SVGID_55_);}
	.st55{fill:url(#SVGID_56_);}
	.st56{fill:url(#SVGID_57_);}
</style>
<g>
	<linearGradient id="SVGID_1_" gradientUnits="userSpaceOnUse" x1="47.0696" y1="83" x2="47.0696" y2="-4.784153e-03">
		<stop  offset="0" style="stop-color:#092C56"/>
		<stop  offset="1" style="stop-color:#045D95"/>
	</linearGradient>
	<polygon class="st0" points="22.9,29.8 21.9,31.3 27.9,35.5 72.2,35.5 72.2,33.7 28.5,33.7 	"/>
	<linearGradient id="SVGID_2_" gradientUnits="userSpaceOnUse" x1="57.5593" y1="83" x2="57.5593" y2="-4.784153e-03">
		<stop  offset="0" style="stop-color:#092C56"/>
		<stop  offset="1" style="stop-color:#045D95"/>
	</linearGradient>
	<path class="st1" d="M113.5,43.3c0-2.8-1.5-5.3-3.8-6.6c-4.5-2.4-10.5-5-25.5-5.1c-2.1,0-4.2-0.7-5.9-1.8
		c-3.9-2.8-10.4-6.6-13.9-8.7c-1.9-1.1-4.1-1.7-6.3-1.7H33.9c-2.2,0-4.3,0.6-6.2,1.7l-12.3,7.2c-1.3,0.8-2.8,1.3-4.4,1.4l-9.6,1.1
		l-0.1,0.6c-0.1,0.5-1,5,0.9,7.4L2.3,39l-0.2,0.2C0.7,40.9,0,42.3,0,45.8c0,3.7,0.6,5.3,0.6,5.5l0.1,0.4l0.4,0.1
		c0.1,0,3.7,1.2,10.9,2.2l0.2,0l0,0.2c1.2,5,5.6,8.5,10.7,8.5c4.4,0,8.4-2.6,10.2-6.7l0.1-0.2l50.3,0l0.1,0.2
		c1.8,4,5.8,6.7,10.2,6.7c4.4,0,8.4-2.6,10.2-6.7L104,56h2.2c5.7,0,9-1.5,9-4.2v-3h-1.7V43.3z M23,61c-5.1,0-9.3-4.2-9.3-9.3
		s4.2-9.3,9.3-9.3s9.3,4.2,9.3,9.3S28.2,61,23,61z M93.8,61c-5.1,0-9.3-4.2-9.3-9.3s4.2-9.3,9.3-9.3c5.1,0,9.3,4.2,9.3,9.3
		S98.9,61,93.8,61z M113.4,51.8c0,1.7-3.6,2.5-7.2,2.5h-1.6l0.1-0.3c0.1-0.7,0.2-1.5,0.2-2.2c0-6.1-5-11.1-11.1-11.1
		c-6.1,0-11.1,5-11.1,11.1c0,0.7,0.1,1.4,0.2,2.2l0.1,0.3H33.8l0.1-0.3c0.1-0.7,0.2-1.5,0.2-2.2c0-6.1-5-11.1-11.1-11.1
		S12,45.6,12,51.7c0,0,0,0.1,0,0.1c0,0.1,0,0.1,0,0.2l0,0.3l-0.3-0.1c-5.2-0.8-8.2-1.6-9.3-1.9l-0.2,0l0-0.2C2,49.4,1.8,48,1.8,45.8
		c0-3.5,0.6-4.3,2.5-6.4l0.7-0.8L4,38.1c-1.7-1-1.3-4.5-1.2-5.6l0-0.2l8.3-1c1.8-0.2,3.5-0.7,5.1-1.6l12.3-7.2
		c1.6-0.9,3.5-1.4,5.3-1.4h24.2c1.9,0,3.7,0.5,5.4,1.5c3.5,2,9.9,5.9,13.8,8.6c2,1.4,4.4,2.1,6.9,2.2c15.9,0.1,21.4,3.1,24.7,4.9
		c1.8,1,2.9,2.9,2.9,5v7.2h1.7V51.8z"/>
	<linearGradient id="SVGID_3_" gradientUnits="userSpaceOnUse" x1="54.2534" y1="83" x2="54.2534" y2="-4.784153e-03">
		<stop  offset="0" style="stop-color:#092C56"/>
		<stop  offset="1" style="stop-color:#045D95"/>
	</linearGradient>
	<polygon class="st2" points="55.2,1.8 55.1,0 53.4,0.1 53.4,1.8 	"/>
	<linearGradient id="SVGID_4_" gradientUnits="userSpaceOnUse" x1="48.9191" y1="83" x2="48.9191" y2="-4.784153e-03">
		<stop  offset="0" style="stop-color:#092C56"/>
		<stop  offset="1" style="stop-color:#045D95"/>
	</linearGradient>
	<polygon class="st3" points="49.9,2.1 49.6,0.4 47.9,0.6 48.2,2.4 	"/>
	<linearGradient id="SVGID_5_" gradientUnits="userSpaceOnUse" x1="59.6093" y1="83" x2="59.6093" y2="-4.784153e-03">
		<stop  offset="0" style="stop-color:#092C56"/>
		<stop  offset="1" style="stop-color:#045D95"/>
	</linearGradient>
	<polygon class="st4" points="58.6,1.9 60.4,2.1 60.6,0.4 58.8,0.2 	"/>
	<linearGradient id="SVGID_6_" gradientUnits="userSpaceOnUse" x1="33.9145" y1="83" x2="33.9145" y2="-4.784153e-03">
		<stop  offset="0" style="stop-color:#092C56"/>
		<stop  offset="1" style="stop-color:#045D95"/>
	</linearGradient>
	<polygon class="st5" points="35.1,7.2 34.2,5.7 32.7,6.6 33.6,8.1 	"/>
	<linearGradient id="SVGID_7_" gradientUnits="userSpaceOnUse" x1="25.6276" y1="83" x2="25.6276" y2="-4.784153e-03">
		<stop  offset="0" style="stop-color:#092C56"/>
		<stop  offset="1" style="stop-color:#045D95"/>
	</linearGradient>
	<polygon class="st6" points="25.6,12.5 24.4,13.7 25.7,14.9 26.9,13.7 	"/>
	<linearGradient id="SVGID_8_" gradientUnits="userSpaceOnUse" x1="43.6817" y1="83" x2="43.6817" y2="-4.784153e-03">
		<stop  offset="0" style="stop-color:#092C56"/>
		<stop  offset="1" style="stop-color:#045D95"/>
	</linearGradient>
	<polygon class="st7" points="44.8,3.1 44.3,1.5 42.6,2 43.1,3.6 	"/>
	<linearGradient id="SVGID_9_" gradientUnits="userSpaceOnUse" x1="38.6511" y1="83" x2="38.6511" y2="-4.784153e-03">
		<stop  offset="0" style="stop-color:#092C56"/>
		<stop  offset="1" style="stop-color:#045D95"/>
	</linearGradient>
	<polygon class="st8" points="39.8,4.9 39.1,3.3 37.5,4 38.2,5.6 	"/>
	<linearGradient id="SVGID_10_" gradientUnits="userSpaceOnUse" x1="29.55" y1="83" x2="29.55" y2="-4.784153e-03">
		<stop  offset="0" style="stop-color:#092C56"/>
		<stop  offset="1" style="stop-color:#045D95"/>
	</linearGradient>
	<polygon class="st9" points="30.8,10.2 29.7,8.8 28.3,9.9 29.4,11.3 	"/>
	<linearGradient id="SVGID_11_" gradientUnits="userSpaceOnUse" x1="90.112" y1="83" x2="90.112" y2="-4.784153e-03">
		<stop  offset="0" style="stop-color:#092C56"/>
		<stop  offset="1" style="stop-color:#045D95"/>
	</linearGradient>
	<polygon class="st10" points="89.4,21.2 89.8,21.9 91.3,21 90.4,19.5 88.9,20.4 	"/>
	<linearGradient id="SVGID_12_" gradientUnits="userSpaceOnUse" x1="92.5529" y1="83" x2="92.5529" y2="-4.784153e-03">
		<stop  offset="0" style="stop-color:#092C56"/>
		<stop  offset="1" style="stop-color:#045D95"/>
	</linearGradient>
	<polygon class="st11" points="92.1,26.6 93.7,25.9 93,24.3 91.4,25 	"/>
	<linearGradient id="SVGID_13_" gradientUnits="userSpaceOnUse" x1="70.0073" y1="83" x2="70.0073" y2="-4.784153e-03">
		<stop  offset="0" style="stop-color:#092C56"/>
		<stop  offset="1" style="stop-color:#045D95"/>
	</linearGradient>
	<polygon class="st12" points="69.5,2.5 68.9,4.2 70.5,4.8 71.1,3.2 	"/>
	<linearGradient id="SVGID_14_" gradientUnits="userSpaceOnUse" x1="87.0671" y1="83" x2="87.0671" y2="-4.784153e-03">
		<stop  offset="0" style="stop-color:#092C56"/>
		<stop  offset="1" style="stop-color:#045D95"/>
	</linearGradient>
	<polygon class="st13" points="86.9,17.5 88.3,16.4 87.2,15.1 85.8,16.2 	"/>
	<linearGradient id="SVGID_15_" gradientUnits="userSpaceOnUse" x1="74.8726" y1="83" x2="74.8726" y2="-4.784153e-03">
		<stop  offset="0" style="stop-color:#092C56"/>
		<stop  offset="1" style="stop-color:#045D95"/>
	</linearGradient>
	<polygon class="st14" points="74.5,4.8 73.7,6.3 75.2,7.1 76.1,5.6 	"/>
	<linearGradient id="SVGID_16_" gradientUnits="userSpaceOnUse" x1="79.3768" y1="83" x2="79.3768" y2="-4.784153e-03">
		<stop  offset="0" style="stop-color:#092C56"/>
		<stop  offset="1" style="stop-color:#045D95"/>
	</linearGradient>
	<polygon class="st15" points="79.2,7.6 78.2,9 79.6,10.1 80.6,8.7 	"/>
	<linearGradient id="SVGID_17_" gradientUnits="userSpaceOnUse" x1="83.4701" y1="83" x2="83.4701" y2="-4.784153e-03">
		<stop  offset="0" style="stop-color:#092C56"/>
		<stop  offset="1" style="stop-color:#045D95"/>
	</linearGradient>
	<polygon class="st16" points="83.4,11.1 82.2,12.3 83.5,13.6 84.7,12.3 	"/>
	<linearGradient id="SVGID_18_" gradientUnits="userSpaceOnUse" x1="64.8958" y1="83" x2="64.8958" y2="-4.784153e-03">
		<stop  offset="0" style="stop-color:#092C56"/>
		<stop  offset="1" style="stop-color:#045D95"/>
	</linearGradient>
	<polygon class="st17" points="64.3,1 63.8,2.7 65.5,3.1 66,1.4 	"/>
	<linearGradient id="SVGID_19_" gradientUnits="userSpaceOnUse" x1="22.2203" y1="83" x2="22.2203" y2="-4.784153e-03">
		<stop  offset="0" style="stop-color:#092C56"/>
		<stop  offset="1" style="stop-color:#045D95"/>
	</linearGradient>
	<polygon class="st18" points="22,16.6 21,18 22.4,19.1 23.4,17.6 	"/>
	<linearGradient id="SVGID_20_" gradientUnits="userSpaceOnUse" x1="62.3295" y1="83" x2="62.3295" y2="-4.784153e-03">
		<stop  offset="0" style="stop-color:#092C56"/>
		<stop  offset="1" style="stop-color:#045D95"/>
	</linearGradient>
	<polygon class="st19" points="61.4,81.1 61.6,82.8 63.3,82.6 63.1,80.9 	"/>
	<linearGradient id="SVGID_21_" gradientUnits="userSpaceOnUse" x1="72.7029" y1="83" x2="72.7029" y2="-4.784153e-03">
		<stop  offset="0" style="stop-color:#092C56"/>
		<stop  offset="1" style="stop-color:#045D95"/>
	</linearGradient>
	<polygon class="st20" points="71.6,78.7 72.2,80.3 73.8,79.7 73.2,78.1 	"/>
	<linearGradient id="SVGID_22_" gradientUnits="userSpaceOnUse" x1="77.5335" y1="83" x2="77.5335" y2="-4.784153e-03">
		<stop  offset="0" style="stop-color:#092C56"/>
		<stop  offset="1" style="stop-color:#045D95"/>
	</linearGradient>
	<polygon class="st21" points="76.3,76.5 77.2,78.1 78.7,77.2 77.9,75.7 	"/>
	<linearGradient id="SVGID_23_" gradientUnits="userSpaceOnUse" x1="67.6142" y1="83" x2="67.6142" y2="-4.784153e-03">
		<stop  offset="0" style="stop-color:#092C56"/>
		<stop  offset="1" style="stop-color:#045D95"/>
	</linearGradient>
	<polygon class="st22" points="66.5,80.2 67,81.9 68.7,81.5 68.2,79.8 	"/>
	<linearGradient id="SVGID_24_" gradientUnits="userSpaceOnUse" x1="89.6448" y1="83" x2="89.6448" y2="-4.784153e-03">
		<stop  offset="0" style="stop-color:#092C56"/>
		<stop  offset="1" style="stop-color:#045D95"/>
	</linearGradient>
	<polygon class="st23" points="89.8,67.6 90.9,66.2 89.5,65.2 88.4,66.6 	"/>
	<linearGradient id="SVGID_25_" gradientUnits="userSpaceOnUse" x1="86.0762" y1="83" x2="86.0762" y2="-4.784153e-03">
		<stop  offset="0" style="stop-color:#092C56"/>
		<stop  offset="1" style="stop-color:#045D95"/>
	</linearGradient>
	<polygon class="st24" points="84.8,70.4 86.1,71.7 87.3,70.4 86.1,69.2 	"/>
	<linearGradient id="SVGID_26_" gradientUnits="userSpaceOnUse" x1="82.0143" y1="83" x2="82.0143" y2="-4.784153e-03">
		<stop  offset="0" style="stop-color:#092C56"/>
		<stop  offset="1" style="stop-color:#045D95"/>
	</linearGradient>
	<polygon class="st25" points="80.8,73.8 81.8,75.1 83.2,74.1 82.2,72.7 	"/>
	<linearGradient id="SVGID_27_" gradientUnits="userSpaceOnUse" x1="32.175" y1="83" x2="32.175" y2="-4.784153e-03">
		<stop  offset="0" style="stop-color:#092C56"/>
		<stop  offset="1" style="stop-color:#045D95"/>
	</linearGradient>
	<polygon class="st26" points="32.3,74.4 33.4,73.1 32,72 30.9,73.3 	"/>
	<linearGradient id="SVGID_28_" gradientUnits="userSpaceOnUse" x1="36.5748" y1="83" x2="36.5748" y2="-4.784153e-03">
		<stop  offset="0" style="stop-color:#092C56"/>
		<stop  offset="1" style="stop-color:#045D95"/>
	</linearGradient>
	<polygon class="st27" points="36.9,77.5 37.8,76 36.3,75.1 35.4,76.6 	"/>
	<linearGradient id="SVGID_29_" gradientUnits="userSpaceOnUse" x1="28.2213" y1="83" x2="28.2213" y2="-4.784153e-03">
		<stop  offset="0" style="stop-color:#092C56"/>
		<stop  offset="1" style="stop-color:#045D95"/>
	</linearGradient>
	<polygon class="st28" points="28.3,68.4 27,69.6 28.2,70.8 29.5,69.6 	"/>
	<linearGradient id="SVGID_30_" gradientUnits="userSpaceOnUse" x1="41.3359" y1="83" x2="41.3359" y2="-4.784153e-03">
		<stop  offset="0" style="stop-color:#092C56"/>
		<stop  offset="1" style="stop-color:#045D95"/>
	</linearGradient>
	<polygon class="st29" points="41.8,79.9 42.5,78.3 40.9,77.6 40.2,79.2 	"/>
	<linearGradient id="SVGID_31_" gradientUnits="userSpaceOnUse" x1="51.6296" y1="83" x2="51.6296" y2="-4.784153e-03">
		<stop  offset="0" style="stop-color:#092C56"/>
		<stop  offset="1" style="stop-color:#045D95"/>
	</linearGradient>
	<polygon class="st30" points="52.4,82.7 52.6,81 50.9,80.7 50.6,82.4 	"/>
	<linearGradient id="SVGID_32_" gradientUnits="userSpaceOnUse" x1="46.3882" y1="83" x2="46.3882" y2="-4.784153e-03">
		<stop  offset="0" style="stop-color:#092C56"/>
		<stop  offset="1" style="stop-color:#045D95"/>
	</linearGradient>
	<polygon class="st31" points="47,81.6 47.5,80 45.8,79.5 45.3,81.2 	"/>
	<linearGradient id="SVGID_33_" gradientUnits="userSpaceOnUse" x1="56.9838" y1="83" x2="56.9838" y2="-4.784153e-03">
		<stop  offset="0" style="stop-color:#092C56"/>
		<stop  offset="1" style="stop-color:#045D95"/>
	</linearGradient>
	<polygon class="st32" points="57.9,81.2 56.1,81.2 56.1,83 57.9,83 	"/>
</g>
</svg>
