<?xml version="1.0" encoding="utf-8"?>
<!-- Generator: Adobe Illustrator 22.1.0, SVG Export Plug-In . SVG Version: 6.00 Build 0)  -->
<svg version="1.1" id="Layer_1" xmlns="http://www.w3.org/2000/svg" xmlns:xlink="http://www.w3.org/1999/xlink" x="0px" y="0px"
	 width="99.9px" height="78.3px" viewBox="0 0 99.9 78.3" style="enable-background:new 0 0 99.9 78.3;" xml:space="preserve">
<style type="text/css">
	.st0{fill:url(#SVGID_1_);}
	.st1{fill:url(#SVGID_2_);}
	.st2{fill:url(#SVGID_3_);}
	.st3{fill:url(#SVGID_4_);}
	.st4{fill:url(#SVGID_5_);}
	.st5{fill:url(#SVGID_6_);}
	.st6{fill:url(#SVGID_7_);}
	.st7{fill:url(#SVGID_8_);}
	.st8{fill:url(#SVGID_9_);}
	.st9{fill:url(#SVGID_10_);}
	.st10{fill:url(#SVGID_11_);}
	.st11{fill:url(#SVGID_12_);}
	.st12{fill:url(#SVGID_13_);}
	.st13{fill:url(#SVGID_14_);}
	.st14{fill:url(#SVGID_15_);}
	.st15{fill:url(#SVGID_16_);}
	.st16{fill:url(#SVGID_17_);}
	.st17{fill:url(#SVGID_18_);}
	.st18{fill:url(#SVGID_19_);}
	.st19{fill:url(#SVGID_20_);}
	.st20{fill:url(#SVGID_21_);}
	.st21{fill:url(#SVGID_22_);}
	.st22{fill:url(#SVGID_23_);}
	.st23{fill:url(#SVGID_24_);}
	.st24{fill:url(#SVGID_25_);}
	.st25{fill:url(#SVGID_26_);}
	.st26{fill:url(#SVGID_27_);}
	.st27{fill:url(#SVGID_28_);}
	.st28{fill:url(#SVGID_29_);}
	.st29{fill:url(#SVGID_30_);}
	.st30{fill:url(#SVGID_31_);}
	.st31{fill:url(#SVGID_32_);}
	.st32{fill:url(#SVGID_33_);}
	.st33{fill:url(#SVGID_34_);}
	.st34{fill:url(#SVGID_35_);}
	.st35{fill:url(#SVGID_36_);}
	.st36{fill:url(#SVGID_37_);}
	.st37{fill:url(#SVGID_38_);}
	.st38{fill:url(#SVGID_39_);}
	.st39{fill:url(#SVGID_40_);}
	.st40{fill:url(#SVGID_41_);}
	.st41{fill:url(#SVGID_42_);}
	.st42{fill:url(#SVGID_43_);}
	.st43{fill:url(#SVGID_44_);}
	.st44{fill:url(#SVGID_45_);}
	.st45{fill:url(#SVGID_46_);}
	.st46{fill:url(#SVGID_47_);}
	.st47{fill:url(#SVGID_48_);}
	.st48{fill:url(#SVGID_49_);}
	.st49{fill:url(#SVGID_50_);}
	.st50{fill:url(#SVGID_51_);}
	.st51{fill:url(#SVGID_52_);}
	.st52{fill:url(#SVGID_53_);}
	.st53{fill:url(#SVGID_54_);}
	.st54{fill:url(#SVGID_55_);}
	.st55{fill:url(#SVGID_56_);}
	.st56{fill:url(#SVGID_57_);}
</style>
<g>
	<linearGradient id="SVGID_1_" gradientUnits="userSpaceOnUse" x1="49.9344" y1="78.7419" x2="49.9344" y2="-2.4193">
		<stop  offset="0" style="stop-color:#092C56"/>
		<stop  offset="1" style="stop-color:#045D95"/>
	</linearGradient>
	<polygon class="st0" points="63.4,40.4 59.8,29.4 55.2,45.9 49.4,17 43.8,41.2 39.6,27.4 34.9,40.4 0,40.4 0,42.3 36.2,42.3 
		39.4,33.3 44,48.4 49.3,25.8 54.9,53.9 60,35.9 62,42.3 99.9,42.3 99.9,40.4 	"/>
	<linearGradient id="SVGID_2_" gradientUnits="userSpaceOnUse" x1="50.6753" y1="78.7419" x2="50.6753" y2="-2.4193">
		<stop  offset="0" style="stop-color:#092C56"/>
		<stop  offset="1" style="stop-color:#045D95"/>
	</linearGradient>
	<polygon class="st1" points="50.6,75.7 50.4,75.5 20.6,45.7 19.3,47 50.6,78.3 82,46.9 80.7,45.6 	"/>
	<linearGradient id="SVGID_3_" gradientUnits="userSpaceOnUse" x1="50.6227" y1="78.7419" x2="50.6227" y2="-2.4193">
		<stop  offset="0" style="stop-color:#092C56"/>
		<stop  offset="1" style="stop-color:#045D95"/>
	</linearGradient>
	<path class="st2" d="M13.1,36.8c-5.3-9.4-3.8-20.6,3.7-28.1c9.1-9.1,24-9.1,33.1,0l0.7,0.7l0.7-0.7c9.1-9.1,24-9.1,33.1,0
		c7.5,7.5,9,18.8,3.7,28.1l1.6,0.9c5.7-10.1,4.1-22.3-4-30.4c-9.6-9.5-24.9-9.9-34.9-0.8l-0.2,0.2l-0.2-0.2C45.6,2.2,39.5,0,33.4,0
		c-6.5,0-12.9,2.5-17.8,7.4c-8.2,8.1-9.8,20.3-4,30.4L13.1,36.8z"/>
</g>
</svg>
