<?xml version="1.0" encoding="utf-8"?>
<!-- Generator: Adobe Illustrator 22.1.0, SVG Export Plug-In . SVG Version: 6.00 Build 0)  -->
<svg version="1.1" id="Layer_1" xmlns="http://www.w3.org/2000/svg" xmlns:xlink="http://www.w3.org/1999/xlink" x="0px" y="0px"
	 width="103.6px" height="101px" viewBox="0 0 103.6 101" style="enable-background:new 0 0 103.6 101;" xml:space="preserve">
<style type="text/css">
	.st0{fill:url(#SVGID_1_);}
	.st1{fill:url(#SVGID_2_);}
	.st2{fill:url(#SVGID_3_);}
	.st3{fill:url(#SVGID_4_);}
	.st4{fill:url(#SVGID_5_);}
	.st5{fill:url(#SVGID_6_);}
	.st6{fill:url(#SVGID_7_);}
	.st7{fill:url(#SVGID_8_);}
	.st8{fill:url(#SVGID_9_);}
	.st9{fill:url(#SVGID_10_);}
	.st10{fill:url(#SVGID_11_);}
	.st11{fill:url(#SVGID_12_);}
	.st12{fill:url(#SVGID_13_);}
	.st13{fill:url(#SVGID_14_);}
	.st14{fill:url(#SVGID_15_);}
	.st15{fill:url(#SVGID_16_);}
	.st16{fill:url(#SVGID_17_);}
	.st17{fill:url(#SVGID_18_);}
	.st18{fill:url(#SVGID_19_);}
	.st19{fill:url(#SVGID_20_);}
	.st20{fill:url(#SVGID_21_);}
	.st21{fill:url(#SVGID_22_);}
	.st22{fill:url(#SVGID_23_);}
	.st23{fill:url(#SVGID_24_);}
	.st24{fill:url(#SVGID_25_);}
	.st25{fill:url(#SVGID_26_);}
	.st26{fill:url(#SVGID_27_);}
	.st27{fill:url(#SVGID_28_);}
	.st28{fill:url(#SVGID_29_);}
	.st29{fill:url(#SVGID_30_);}
	.st30{fill:url(#SVGID_31_);}
	.st31{fill:url(#SVGID_32_);}
	.st32{fill:url(#SVGID_33_);}
	.st33{fill:url(#SVGID_34_);}
	.st34{fill:url(#SVGID_35_);}
	.st35{fill:url(#SVGID_36_);}
	.st36{fill:url(#SVGID_37_);}
	.st37{fill:url(#SVGID_38_);}
	.st38{fill:url(#SVGID_39_);}
	.st39{fill:url(#SVGID_40_);}
	.st40{fill:url(#SVGID_41_);}
	.st41{fill:url(#SVGID_42_);}
	.st42{fill:url(#SVGID_43_);}
	.st43{fill:url(#SVGID_44_);}
	.st44{fill:url(#SVGID_45_);}
	.st45{fill:url(#SVGID_46_);}
	.st46{fill:url(#SVGID_47_);}
	.st47{fill:url(#SVGID_48_);}
	.st48{fill:url(#SVGID_49_);}
	.st49{fill:url(#SVGID_50_);}
	.st50{fill:url(#SVGID_51_);}
	.st51{fill:url(#SVGID_52_);}
	.st52{fill:url(#SVGID_53_);}
	.st53{fill:url(#SVGID_54_);}
	.st54{fill:url(#SVGID_55_);}
	.st55{fill:url(#SVGID_56_);}
	.st56{fill:url(#SVGID_57_);}
	.st57{fill:url(#SVGID_58_);}
	.st58{fill:url(#SVGID_59_);}
	.st59{fill:url(#SVGID_60_);}
	.st60{fill:url(#SVGID_61_);}
	.st61{fill:url(#SVGID_62_);}
	.st62{fill:url(#SVGID_63_);}
	.st63{fill:url(#SVGID_64_);}
	.st64{fill:url(#SVGID_65_);}
	.st65{fill:url(#SVGID_66_);}
	.st66{fill:url(#SVGID_67_);}
	.st67{fill:url(#SVGID_68_);}
	.st68{fill:url(#SVGID_69_);}
	.st69{fill:url(#SVGID_70_);}
	.st70{fill:url(#SVGID_71_);}
	.st71{fill:url(#SVGID_72_);}
	.st72{fill:url(#SVGID_73_);}
	.st73{fill:url(#SVGID_74_);}
	.st74{fill:url(#SVGID_75_);}
	.st75{fill:url(#SVGID_76_);}
	.st76{fill:url(#SVGID_77_);}
	.st77{fill:url(#SVGID_78_);}
	.st78{fill:url(#SVGID_79_);}
	.st79{fill:url(#SVGID_80_);}
	.st80{fill:url(#SVGID_81_);}
	.st81{fill:url(#SVGID_82_);}
	.st82{fill:url(#SVGID_83_);}
	.st83{fill:url(#SVGID_84_);}
	.st84{fill:url(#SVGID_85_);}
	.st85{fill:url(#SVGID_86_);}
	.st86{fill:url(#SVGID_87_);}
	.st87{fill:url(#SVGID_88_);}
	.st88{fill:url(#SVGID_89_);}
	.st89{fill:url(#SVGID_90_);}
	.st90{fill:url(#SVGID_91_);}
	.st91{fill:url(#SVGID_92_);}
	.st92{fill:url(#SVGID_93_);}
	.st93{fill:url(#SVGID_94_);}
	.st94{fill:url(#SVGID_95_);}
	.st95{fill:url(#SVGID_96_);}
	.st96{fill:url(#SVGID_97_);}
	.st97{fill:url(#SVGID_98_);}
	.st98{fill:#FFFFFF;}
</style>
<g>
	<linearGradient id="SVGID_1_" gradientUnits="userSpaceOnUse" x1="128.0144" y1="74.1455" x2="26.6593" y2="-27.2096">
		<stop  offset="0" style="stop-color:#045D95"/>
		<stop  offset="1" style="stop-color:#BA2B2B"/>
	</linearGradient>
	<path class="st0" d="M63,21.9c0.1,0,0.2,0,0.2,0c0.3,0,0.6-0.2,0.7-0.5l6.3-17.4c0.1-0.4-0.1-0.8-0.4-0.9C69.4,3,69,3.2,68.9,3.6
		L62.6,21C62.4,21.3,62.6,21.7,63,21.9z"/>
	<linearGradient id="SVGID_2_" gradientUnits="userSpaceOnUse" x1="70.6471" y1="131.5129" x2="-30.7081" y2="30.1578">
		<stop  offset="0" style="stop-color:#045D95"/>
		<stop  offset="1" style="stop-color:#BA2B2B"/>
	</linearGradient>
	<path class="st1" d="M30.8,77.6c-0.3-0.3-0.7-0.2-1,0.1L17.9,91.9c-0.3,0.3-0.2,0.7,0.1,1c0.1,0.1,0.3,0.2,0.5,0.2
		c0.2,0,0.4-0.1,0.5-0.3l11.9-14.2C31.1,78.3,31.1,77.9,30.8,77.6z"/>
	<linearGradient id="SVGID_3_" gradientUnits="userSpaceOnUse" x1="130.7247" y1="71.4353" x2="29.3696" y2="-29.9199">
		<stop  offset="0" style="stop-color:#045D95"/>
		<stop  offset="1" style="stop-color:#BA2B2B"/>
	</linearGradient>
	<path class="st2" d="M72.8,27.5c0.1,0.1,0.3,0.2,0.5,0.2c0.2,0,0.4-0.1,0.5-0.3l11.9-14.2c0.3-0.3,0.2-0.7-0.1-1
		c-0.3-0.3-0.7-0.2-1,0.1L72.7,26.5C72.5,26.8,72.5,27.3,72.8,27.5z"/>
	<linearGradient id="SVGID_4_" gradientUnits="userSpaceOnUse" x1="71.5598" y1="130.6001" x2="-29.7953" y2="29.245">
		<stop  offset="0" style="stop-color:#045D95"/>
		<stop  offset="1" style="stop-color:#BA2B2B"/>
	</linearGradient>
	<path class="st3" d="M23.5,68.9c-0.2-0.3-0.6-0.5-1-0.3l-16,9.2c-0.3,0.2-0.5,0.6-0.3,1c0.1,0.2,0.4,0.4,0.6,0.4
		c0.1,0,0.2,0,0.4-0.1l16-9.2C23.6,69.7,23.7,69.3,23.5,68.9z"/>
	<linearGradient id="SVGID_5_" gradientUnits="userSpaceOnUse" x1="129.812" y1="72.348" x2="28.4568" y2="-29.0071">
		<stop  offset="0" style="stop-color:#045D95"/>
		<stop  offset="1" style="stop-color:#BA2B2B"/>
	</linearGradient>
	<path class="st4" d="M80.1,36.2c0.1,0.2,0.4,0.4,0.6,0.4c0.1,0,0.2,0,0.4-0.1l16-9.2c0.3-0.2,0.5-0.6,0.3-1c-0.2-0.3-0.6-0.5-1-0.3
		l-16,9.2C80,35.5,79.9,35.9,80.1,36.2z"/>
	<linearGradient id="SVGID_6_" gradientUnits="userSpaceOnUse" x1="75.9853" y1="126.1746" x2="-25.3698" y2="24.8195">
		<stop  offset="0" style="stop-color:#045D95"/>
		<stop  offset="1" style="stop-color:#BA2B2B"/>
	</linearGradient>
	<path class="st5" d="M19.6,58.3c-0.1-0.4-0.4-0.6-0.8-0.6L0.6,60.9C0.2,61-0.1,61.3,0,61.7c0.1,0.3,0.4,0.6,0.7,0.6
		c0,0,0.1,0,0.1,0L19,59.1C19.4,59,19.7,58.7,19.6,58.3z"/>
	<linearGradient id="SVGID_7_" gradientUnits="userSpaceOnUse" x1="125.3861" y1="76.7738" x2="24.031" y2="-24.5813">
		<stop  offset="0" style="stop-color:#045D95"/>
		<stop  offset="1" style="stop-color:#BA2B2B"/>
	</linearGradient>
	<path class="st6" d="M84,46.9c0.1,0.3,0.4,0.6,0.7,0.6c0,0,0.1,0,0.1,0l18.2-3.2c0.4-0.1,0.6-0.4,0.6-0.8c-0.1-0.4-0.4-0.6-0.8-0.6
		l-18.2,3.2C84.2,46.2,83.9,46.5,84,46.9z"/>
	<linearGradient id="SVGID_8_" gradientUnits="userSpaceOnUse" x1="83.3906" y1="118.7694" x2="-17.9645" y2="17.4142">
		<stop  offset="0" style="stop-color:#045D95"/>
		<stop  offset="1" style="stop-color:#BA2B2B"/>
	</linearGradient>
	<path class="st7" d="M0.6,44.3l18.2,3.2c0,0,0.1,0,0.1,0c0.3,0,0.6-0.2,0.7-0.6c0.1-0.4-0.2-0.8-0.6-0.8L0.8,42.9
		c-0.4-0.1-0.8,0.2-0.8,0.6C-0.1,43.8,0.2,44.2,0.6,44.3z"/>
	<linearGradient id="SVGID_9_" gradientUnits="userSpaceOnUse" x1="117.9814" y1="84.1785" x2="16.6263" y2="-17.1766">
		<stop  offset="0" style="stop-color:#045D95"/>
		<stop  offset="1" style="stop-color:#BA2B2B"/>
	</linearGradient>
	<path class="st8" d="M103,60.9l-18.2-3.2c-0.4-0.1-0.8,0.2-0.8,0.6c-0.1,0.4,0.2,0.8,0.6,0.8l18.2,3.2c0,0,0.1,0,0.1,0
		c0.3,0,0.6-0.2,0.7-0.6C103.7,61.3,103.4,61,103,60.9z"/>
	<linearGradient id="SVGID_10_" gradientUnits="userSpaceOnUse" x1="92.8816" y1="109.2784" x2="-8.4736" y2="7.9233">
		<stop  offset="0" style="stop-color:#045D95"/>
		<stop  offset="1" style="stop-color:#BA2B2B"/>
	</linearGradient>
	<path class="st9" d="M6.5,27.3l16,9.2c0.1,0.1,0.2,0.1,0.4,0.1c0.2,0,0.5-0.1,0.6-0.4c0.2-0.3,0.1-0.8-0.3-1L7.2,26
		c-0.3-0.2-0.8-0.1-1,0.3C6.1,26.6,6.2,27.1,6.5,27.3z"/>
	<linearGradient id="SVGID_11_" gradientUnits="userSpaceOnUse" x1="108.4902" y1="93.6697" x2="7.1351" y2="-7.6854">
		<stop  offset="0" style="stop-color:#045D95"/>
		<stop  offset="1" style="stop-color:#BA2B2B"/>
	</linearGradient>
	<path class="st10" d="M97.1,77.9l-16-9.2c-0.3-0.2-0.8-0.1-1,0.3c-0.2,0.3-0.1,0.8,0.3,1l16,9.2c0.1,0.1,0.2,0.1,0.4,0.1
		c0.2,0,0.5-0.1,0.6-0.4C97.5,78.5,97.4,78.1,97.1,77.9z"/>
	<linearGradient id="SVGID_12_" gradientUnits="userSpaceOnUse" x1="103.314" y1="98.846" x2="1.9588" y2="-2.5091">
		<stop  offset="0" style="stop-color:#045D95"/>
		<stop  offset="1" style="stop-color:#BA2B2B"/>
	</linearGradient>
	<path class="st11" d="M29.8,27.5c0.1,0.2,0.3,0.3,0.5,0.3c0.2,0,0.3-0.1,0.5-0.2c0.3-0.3,0.3-0.7,0.1-1L19,12.4
		c-0.3-0.3-0.7-0.3-1-0.1c-0.3,0.3-0.3,0.7-0.1,1L29.8,27.5z"/>
	<linearGradient id="SVGID_13_" gradientUnits="userSpaceOnUse" x1="98.0578" y1="104.1022" x2="-3.2973" y2="2.747">
		<stop  offset="0" style="stop-color:#045D95"/>
		<stop  offset="1" style="stop-color:#BA2B2B"/>
	</linearGradient>
	<path class="st12" d="M73.8,77.7c-0.3-0.3-0.7-0.3-1-0.1c-0.3,0.3-0.3,0.7-0.1,1l11.9,14.2c0.1,0.2,0.3,0.3,0.5,0.3
		c0.2,0,0.3-0.1,0.5-0.2c0.3-0.3,0.3-0.7,0.1-1L73.8,77.7z"/>
	<linearGradient id="SVGID_14_" gradientUnits="userSpaceOnUse" x1="113.4294" y1="88.7306" x2="12.0742" y2="-12.6245">
		<stop  offset="0" style="stop-color:#045D95"/>
		<stop  offset="1" style="stop-color:#BA2B2B"/>
	</linearGradient>
	<path class="st13" d="M39.7,21.4c0.1,0.3,0.4,0.5,0.7,0.5c0.1,0,0.2,0,0.2,0c0.4-0.1,0.6-0.5,0.4-0.9L34.7,3.6
		c-0.1-0.4-0.5-0.6-0.9-0.4c-0.4,0.1-0.6,0.5-0.4,0.9L39.7,21.4z"/>
	<linearGradient id="SVGID_15_" gradientUnits="userSpaceOnUse" x1="122.0078" y1="80.1522" x2="20.6527" y2="-21.203">
		<stop  offset="0" style="stop-color:#045D95"/>
		<stop  offset="1" style="stop-color:#BA2B2B"/>
	</linearGradient>
	<path class="st14" d="M51.8,19.9c0.4,0,0.7-0.3,0.7-0.7V0.7c0-0.4-0.3-0.7-0.7-0.7c-0.4,0-0.7,0.3-0.7,0.7v18.5
		C51.1,19.6,51.4,19.9,51.8,19.9z"/>
	<linearGradient id="SVGID_16_" gradientUnits="userSpaceOnUse" x1="74.4035" y1="127.7564" x2="-26.9516" y2="26.4013">
		<stop  offset="0" style="stop-color:#045D95"/>
		<stop  offset="1" style="stop-color:#BA2B2B"/>
	</linearGradient>
	<path class="st15" d="M35.5,80.9c-0.3-0.2-0.8-0.1-1,0.3L29.4,90c-0.2,0.3-0.1,0.8,0.3,1C29.8,91,29.9,91,30,91
		c0.2,0,0.5-0.1,0.6-0.4l5.1-8.8C35.9,81.5,35.8,81.1,35.5,80.9z"/>
	<linearGradient id="SVGID_17_" gradientUnits="userSpaceOnUse" x1="126.9684" y1="75.1916" x2="25.6132" y2="-26.1635">
		<stop  offset="0" style="stop-color:#045D95"/>
		<stop  offset="1" style="stop-color:#BA2B2B"/>
	</linearGradient>
	<path class="st16" d="M68.2,24.3c0.1,0.1,0.2,0.1,0.4,0.1c0.2,0,0.5-0.1,0.6-0.4l5.1-8.8c0.2-0.3,0.1-0.8-0.3-1
		c-0.3-0.2-0.8-0.1-1,0.3l-5.1,8.8C67.7,23.6,67.8,24.1,68.2,24.3z"/>
	<linearGradient id="SVGID_18_" gradientUnits="userSpaceOnUse" x1="73.5798" y1="128.5801" x2="-27.7753" y2="27.225">
		<stop  offset="0" style="stop-color:#045D95"/>
		<stop  offset="1" style="stop-color:#BA2B2B"/>
	</linearGradient>
	<path class="st17" d="M18.4,81.3c0.2,0,0.3-0.1,0.5-0.2l7.8-6.5c0.3-0.3,0.3-0.7,0.1-1c-0.3-0.3-0.7-0.3-1-0.1L18,80
		c-0.3,0.3-0.3,0.7-0.1,1C18,81.2,18.2,81.3,18.4,81.3z"/>
	<linearGradient id="SVGID_19_" gradientUnits="userSpaceOnUse" x1="127.7919" y1="74.368" x2="26.4368" y2="-26.9871">
		<stop  offset="0" style="stop-color:#045D95"/>
		<stop  offset="1" style="stop-color:#BA2B2B"/>
	</linearGradient>
	<path class="st18" d="M84.7,24.1l-7.8,6.5c-0.3,0.3-0.3,0.7-0.1,1c0.1,0.2,0.3,0.3,0.5,0.3c0.2,0,0.3-0.1,0.5-0.2l7.8-6.5
		c0.3-0.3,0.3-0.7,0.1-1C85.5,23.8,85,23.8,84.7,24.1z"/>
	<linearGradient id="SVGID_20_" gradientUnits="userSpaceOnUse" x1="76.0257" y1="126.1343" x2="-25.3295" y2="24.7792">
		<stop  offset="0" style="stop-color:#045D95"/>
		<stop  offset="1" style="stop-color:#BA2B2B"/>
	</linearGradient>
	<path class="st19" d="M10.2,67.7c0.1,0.3,0.4,0.5,0.7,0.5c0.1,0,0.2,0,0.2,0l9.5-3.5c0.4-0.1,0.6-0.5,0.4-0.9
		c-0.1-0.4-0.5-0.6-0.9-0.4l-9.5,3.5C10.3,67,10.1,67.4,10.2,67.7z"/>
	<linearGradient id="SVGID_21_" gradientUnits="userSpaceOnUse" x1="125.3461" y1="76.8138" x2="23.991" y2="-24.5413">
		<stop  offset="0" style="stop-color:#045D95"/>
		<stop  offset="1" style="stop-color:#BA2B2B"/>
	</linearGradient>
	<path class="st20" d="M93.4,37.5c-0.1-0.4-0.5-0.6-0.9-0.4L83,40.5c-0.4,0.1-0.6,0.5-0.4,0.9c0.1,0.3,0.4,0.5,0.7,0.5
		c0.1,0,0.2,0,0.2,0l9.5-3.5C93.3,38.2,93.5,37.8,93.4,37.5z"/>
	<linearGradient id="SVGID_22_" gradientUnits="userSpaceOnUse" x1="81.4458" y1="120.7141" x2="-19.9093" y2="19.359">
		<stop  offset="0" style="stop-color:#045D95"/>
		<stop  offset="1" style="stop-color:#BA2B2B"/>
	</linearGradient>
	<path class="st21" d="M18.4,51.9H8.2c-0.4,0-0.7,0.3-0.7,0.7c0,0.4,0.3,0.7,0.7,0.7h10.1c0.4,0,0.7-0.3,0.7-0.7
		C19.1,52.2,18.8,51.9,18.4,51.9z"/>
	<linearGradient id="SVGID_23_" gradientUnits="userSpaceOnUse" x1="119.926" y1="82.2339" x2="18.5709" y2="-19.1212">
		<stop  offset="0" style="stop-color:#045D95"/>
		<stop  offset="1" style="stop-color:#BA2B2B"/>
	</linearGradient>
	<path class="st22" d="M85.2,51.9c-0.4,0-0.7,0.3-0.7,0.7c0,0.4,0.3,0.7,0.7,0.7h10.1c0.4,0,0.7-0.3,0.7-0.7c0-0.4-0.3-0.7-0.7-0.7
		H85.2z"/>
	<linearGradient id="SVGID_24_" gradientUnits="userSpaceOnUse" x1="89.1867" y1="112.9733" x2="-12.1684" y2="11.6181">
		<stop  offset="0" style="stop-color:#045D95"/>
		<stop  offset="1" style="stop-color:#BA2B2B"/>
	</linearGradient>
	<path class="st23" d="M21.1,41.4c0.1-0.4-0.1-0.8-0.4-0.9L11.1,37c-0.4-0.1-0.8,0.1-0.9,0.4c-0.1,0.4,0.1,0.8,0.4,0.9l9.5,3.5
		c0.1,0,0.2,0,0.2,0C20.7,41.9,21,41.7,21.1,41.4z"/>
	<linearGradient id="SVGID_25_" gradientUnits="userSpaceOnUse" x1="112.1851" y1="89.9748" x2="10.83" y2="-11.3803">
		<stop  offset="0" style="stop-color:#045D95"/>
		<stop  offset="1" style="stop-color:#BA2B2B"/>
	</linearGradient>
	<path class="st24" d="M82.5,63.8c-0.1,0.4,0.1,0.8,0.4,0.9l9.5,3.5c0.1,0,0.2,0,0.2,0c0.3,0,0.6-0.2,0.7-0.5
		c0.1-0.4-0.1-0.8-0.4-0.9l-9.5-3.5C83.1,63.2,82.7,63.4,82.5,63.8z"/>
	<linearGradient id="SVGID_26_" gradientUnits="userSpaceOnUse" x1="98.3145" y1="103.8455" x2="-3.0407" y2="2.4904">
		<stop  offset="0" style="stop-color:#045D95"/>
		<stop  offset="1" style="stop-color:#BA2B2B"/>
	</linearGradient>
	<path class="st25" d="M25.8,31.7c0.1,0.1,0.3,0.2,0.5,0.2c0.2,0,0.4-0.1,0.5-0.3c0.3-0.3,0.2-0.7-0.1-1l-7.8-6.5
		c-0.3-0.3-0.7-0.2-1,0.1c-0.3,0.3-0.2,0.7,0.1,1L25.8,31.7z"/>
	<linearGradient id="SVGID_27_" gradientUnits="userSpaceOnUse" x1="103.0573" y1="99.1026" x2="1.7022" y2="-2.2525">
		<stop  offset="0" style="stop-color:#045D95"/>
		<stop  offset="1" style="stop-color:#BA2B2B"/>
	</linearGradient>
	<path class="st26" d="M77.8,73.5c-0.3-0.3-0.7-0.2-1,0.1c-0.3,0.3-0.2,0.7,0.1,1l7.8,6.5c0.1,0.1,0.3,0.2,0.5,0.2
		c0.2,0,0.4-0.1,0.5-0.3c0.3-0.3,0.2-0.7-0.1-1L77.8,73.5z"/>
	<linearGradient id="SVGID_28_" gradientUnits="userSpaceOnUse" x1="107.7283" y1="94.4317" x2="6.3731" y2="-6.9234">
		<stop  offset="0" style="stop-color:#045D95"/>
		<stop  offset="1" style="stop-color:#BA2B2B"/>
	</linearGradient>
	<path class="st27" d="M34.5,24c0.1,0.2,0.4,0.4,0.6,0.4c0.1,0,0.2,0,0.4-0.1c0.3-0.2,0.5-0.6,0.3-1l-5.1-8.8
		c-0.2-0.3-0.6-0.5-1-0.3c-0.3,0.2-0.5,0.6-0.3,1L34.5,24z"/>
	<linearGradient id="SVGID_29_" gradientUnits="userSpaceOnUse" x1="93.6437" y1="108.5163" x2="-7.7114" y2="7.1611">
		<stop  offset="0" style="stop-color:#045D95"/>
		<stop  offset="1" style="stop-color:#BA2B2B"/>
	</linearGradient>
	<path class="st28" d="M69.1,81.2c-0.2-0.3-0.6-0.5-1-0.3c-0.3,0.2-0.5,0.6-0.3,1l5.1,8.8c0.1,0.2,0.4,0.4,0.6,0.4
		c0.1,0,0.2,0,0.4-0.1c0.3-0.2,0.5-0.6,0.3-1L69.1,81.2z"/>
	<linearGradient id="SVGID_30_" gradientUnits="userSpaceOnUse" x1="116.2924" y1="85.8675" x2="14.9373" y2="-15.4876">
		<stop  offset="0" style="stop-color:#045D95"/>
		<stop  offset="1" style="stop-color:#BA2B2B"/>
	</linearGradient>
	<path class="st29" d="M45.3,19.8c0.1,0.3,0.4,0.6,0.7,0.6c0,0,0.1,0,0.1,0c0.4-0.1,0.6-0.4,0.6-0.8l-1.8-10
		c-0.1-0.4-0.4-0.6-0.8-0.6c-0.4,0.1-0.6,0.4-0.6,0.8L45.3,19.8z"/>
	<linearGradient id="SVGID_31_" gradientUnits="userSpaceOnUse" x1="122.9746" y1="79.1853" x2="21.6195" y2="-22.1698">
		<stop  offset="0" style="stop-color:#045D95"/>
		<stop  offset="1" style="stop-color:#BA2B2B"/>
	</linearGradient>
	<path class="st30" d="M57.5,20.4c0,0,0.1,0,0.1,0c0.3,0,0.6-0.2,0.7-0.6l1.8-10c0.1-0.4-0.2-0.8-0.6-0.8c-0.4-0.1-0.8,0.2-0.8,0.6
		l-1.8,10C56.8,20,57.1,20.3,57.5,20.4z"/>
	<linearGradient id="SVGID_32_" gradientUnits="userSpaceOnUse" x1="92.5345" y1="109.6255" x2="-8.8206" y2="8.2703">
		<stop  offset="0" style="stop-color:#045D95"/>
		<stop  offset="1" style="stop-color:#BA2B2B"/>
	</linearGradient>
	<path class="st31" d="M63.4,86.8h-8.6V68.1L68,75l-3.1-18L78,44.2l-18.1-2.6l-8.1-16.4l-8.1,16.4l-18.1,2.6l13.1,12.8l-3.1,18
		l13.1-6.9v18.8h-8.6v8.8H33v5.4h37.7v-5.4h-7.3V86.8z M65.8,70.8L53.7,54l9.8,3.2L65.8,70.8z M63.9,55.9l-9.8-3.2l19.7-6.4
		L63.9,55.9z M73.4,44.9l-19.8,6.4l6.1-8.4L73.4,44.9z M52.5,29.8l6.1,12.3l-6.1,8.4V29.8z M52.5,54.9l12.2,16.8l-12.2-6.4V54.9z
		 M53.5,67.3v19.5h-3.3V67.3l1.7-0.9L53.5,67.3z M51.1,29.8v20.7L45,42.1L51.1,29.8z M43.9,42.9l6.1,8.4l-19.8-6.4L43.9,42.9z
		 M29.8,46.3l19.7,6.4l-9.8,3.2L29.8,46.3z M40.1,57.2l9.8-3.2L37.8,70.8L40.1,57.2z M38.9,71.6l12.2-16.8v10.4L38.9,71.6z
		 M41.6,88.2h7.1h6.1H62v7.4H41.6V88.2z M69.3,97.1v2.5H34.4v-2.5h5.7h23.3H69.3z"/>
</g>
</svg>
