<?xml version="1.0" encoding="utf-8"?>
<!-- Generator: Adobe Illustrator 22.1.0, SVG Export Plug-In . SVG Version: 6.00 Build 0)  -->
<svg version="1.1" id="Layer_1" xmlns="http://www.w3.org/2000/svg" xmlns:xlink="http://www.w3.org/1999/xlink" x="0px" y="0px"
	 width="71.9px" height="72.8px" viewBox="0 0 71.9 72.8" style="enable-background:new 0 0 71.9 72.8;" xml:space="preserve">
<style type="text/css">
	.st0{fill:url(#SVGID_1_);}
	.st1{fill:url(#SVGID_2_);}
	.st2{fill:url(#SVGID_3_);}
	.st3{fill:url(#SVGID_4_);}
	.st4{fill:url(#SVGID_5_);}
	.st5{fill:url(#SVGID_6_);}
	.st6{fill:url(#SVGID_7_);}
	.st7{fill:url(#SVGID_8_);}
	.st8{fill:url(#SVGID_9_);}
	.st9{fill:url(#SVGID_10_);}
	.st10{fill:url(#SVGID_11_);}
	.st11{fill:url(#SVGID_12_);}
	.st12{fill:url(#SVGID_13_);}
	.st13{fill:url(#SVGID_14_);}
	.st14{fill:url(#SVGID_15_);}
	.st15{fill:url(#SVGID_16_);}
	.st16{fill:url(#SVGID_17_);}
	.st17{fill:url(#SVGID_18_);}
	.st18{fill:url(#SVGID_19_);}
	.st19{fill:url(#SVGID_20_);}
	.st20{fill:url(#SVGID_21_);}
	.st21{fill:url(#SVGID_22_);}
	.st22{fill:url(#SVGID_23_);}
	.st23{fill:url(#SVGID_24_);}
	.st24{fill:url(#SVGID_25_);}
	.st25{fill:url(#SVGID_26_);}
	.st26{fill:url(#SVGID_27_);}
	.st27{fill:url(#SVGID_28_);}
	.st28{fill:url(#SVGID_29_);}
	.st29{fill:url(#SVGID_30_);}
	.st30{fill:url(#SVGID_31_);}
	.st31{fill:url(#SVGID_32_);}
	.st32{fill:url(#SVGID_33_);}
	.st33{fill:url(#SVGID_34_);}
	.st34{fill:url(#SVGID_35_);}
	.st35{fill:url(#SVGID_36_);}
	.st36{fill:url(#SVGID_37_);}
	.st37{fill:url(#SVGID_38_);}
	.st38{fill:url(#SVGID_39_);}
	.st39{fill:url(#SVGID_40_);}
	.st40{fill:url(#SVGID_41_);}
	.st41{fill:url(#SVGID_42_);}
	.st42{fill:url(#SVGID_43_);}
	.st43{fill:url(#SVGID_44_);}
	.st44{fill:url(#SVGID_45_);}
	.st45{fill:url(#SVGID_46_);}
	.st46{fill:url(#SVGID_47_);}
	.st47{fill:url(#SVGID_48_);}
	.st48{fill:url(#SVGID_49_);}
	.st49{fill:url(#SVGID_50_);}
	.st50{fill:url(#SVGID_51_);}
	.st51{fill:url(#SVGID_52_);}
	.st52{fill:url(#SVGID_53_);}
	.st53{fill:url(#SVGID_54_);}
	.st54{fill:url(#SVGID_55_);}
	.st55{fill:url(#SVGID_56_);}
	.st56{fill:url(#SVGID_57_);}
	.st57{fill:url(#SVGID_58_);}
	.st58{fill:url(#SVGID_59_);}
	.st59{fill:url(#SVGID_60_);}
	.st60{fill:url(#SVGID_61_);}
	.st61{fill:url(#SVGID_62_);}
	.st62{fill:url(#SVGID_63_);}
	.st63{fill:url(#SVGID_64_);}
	.st64{fill:url(#SVGID_65_);}
	.st65{fill:url(#SVGID_66_);}
	.st66{fill:url(#SVGID_67_);}
	.st67{fill:url(#SVGID_68_);}
	.st68{fill:url(#SVGID_69_);}
	.st69{fill:url(#SVGID_70_);}
	.st70{fill:url(#SVGID_71_);}
	.st71{fill:url(#SVGID_72_);}
	.st72{fill:url(#SVGID_73_);}
	.st73{fill:url(#SVGID_74_);}
	.st74{fill:url(#SVGID_75_);}
	.st75{fill:url(#SVGID_76_);}
	.st76{fill:url(#SVGID_77_);}
	.st77{fill:url(#SVGID_78_);}
	.st78{fill:url(#SVGID_79_);}
	.st79{fill:url(#SVGID_80_);}
	.st80{fill:url(#SVGID_81_);}
	.st81{fill:url(#SVGID_82_);}
	.st82{fill:url(#SVGID_83_);}
	.st83{fill:url(#SVGID_84_);}
	.st84{fill:url(#SVGID_85_);}
	.st85{fill:url(#SVGID_86_);}
	.st86{fill:url(#SVGID_87_);}
	.st87{fill:url(#SVGID_88_);}
	.st88{fill:url(#SVGID_89_);}
	.st89{fill:url(#SVGID_90_);}
	.st90{fill:url(#SVGID_91_);}
	.st91{fill:url(#SVGID_92_);}
	.st92{fill:url(#SVGID_93_);}
	.st93{fill:url(#SVGID_94_);}
	.st94{fill:url(#SVGID_95_);}
	.st95{fill:url(#SVGID_96_);}
	.st96{fill:url(#SVGID_97_);}
	.st97{fill:url(#SVGID_98_);}
	.st98{fill:#FFFFFF;}
</style>
<g>
	<linearGradient id="SVGID_1_" gradientUnits="userSpaceOnUse" x1="90.4964" y1="53.1338" x2="19.9657" y2="-17.397">
		<stop  offset="0" style="stop-color:#045D95"/>
		<stop  offset="1" style="stop-color:#BA2B2B"/>
	</linearGradient>
	<path class="st0" d="M43.7,15.2c0.1,0,0.1,0,0.2,0c0.2,0,0.4-0.1,0.5-0.3l4.4-12c0.1-0.3,0-0.5-0.3-0.6c-0.3-0.1-0.5,0-0.6,0.3
		l-4.4,12C43.3,14.8,43.4,15.1,43.7,15.2z"/>
	<linearGradient id="SVGID_2_" gradientUnits="userSpaceOnUse" x1="50.7074" y1="92.9229" x2="-19.8234" y2="22.3921">
		<stop  offset="0" style="stop-color:#045D95"/>
		<stop  offset="1" style="stop-color:#BA2B2B"/>
	</linearGradient>
	<path class="st1" d="M21.4,53.9c-0.2-0.2-0.5-0.2-0.7,0.1l-8.2,9.8c-0.2,0.2-0.2,0.5,0.1,0.7c0.1,0.1,0.2,0.1,0.3,0.1
		c0.1,0,0.3-0.1,0.4-0.2l8.2-9.8C21.6,54.3,21.6,54,21.4,53.9z"/>
	<linearGradient id="SVGID_3_" gradientUnits="userSpaceOnUse" x1="92.3763" y1="51.254" x2="21.8455" y2="-19.2768">
		<stop  offset="0" style="stop-color:#045D95"/>
		<stop  offset="1" style="stop-color:#BA2B2B"/>
	</linearGradient>
	<path class="st2" d="M50.5,19.1c0.1,0.1,0.2,0.1,0.3,0.1c0.1,0,0.3-0.1,0.4-0.2l8.2-9.8c0.2-0.2,0.2-0.5-0.1-0.7
		c-0.2-0.2-0.5-0.2-0.7,0.1l-8.2,9.8C50.3,18.6,50.3,18.9,50.5,19.1z"/>
	<linearGradient id="SVGID_4_" gradientUnits="userSpaceOnUse" x1="51.3405" y1="92.2897" x2="-19.1902" y2="21.759">
		<stop  offset="0" style="stop-color:#045D95"/>
		<stop  offset="1" style="stop-color:#BA2B2B"/>
	</linearGradient>
	<path class="st3" d="M16.3,47.8c-0.1-0.2-0.4-0.3-0.7-0.2L4.5,54c-0.2,0.1-0.3,0.4-0.2,0.7C4.4,54.9,4.6,55,4.8,55
		c0.1,0,0.2,0,0.3-0.1l11.1-6.4C16.4,48.4,16.4,48.1,16.3,47.8z"/>
	<linearGradient id="SVGID_5_" gradientUnits="userSpaceOnUse" x1="91.7432" y1="51.8871" x2="21.2124" y2="-18.6437">
		<stop  offset="0" style="stop-color:#045D95"/>
		<stop  offset="1" style="stop-color:#BA2B2B"/>
	</linearGradient>
	<path class="st4" d="M55.6,25.2c0.1,0.2,0.3,0.3,0.4,0.3c0.1,0,0.2,0,0.3-0.1l11.1-6.4c0.2-0.1,0.3-0.4,0.2-0.7
		c-0.1-0.2-0.4-0.3-0.7-0.2l-11.1,6.4C55.5,24.6,55.4,24.9,55.6,25.2z"/>
	<linearGradient id="SVGID_6_" gradientUnits="userSpaceOnUse" x1="54.4103" y1="89.22" x2="-16.1205" y2="18.6892">
		<stop  offset="0" style="stop-color:#045D95"/>
		<stop  offset="1" style="stop-color:#BA2B2B"/>
	</linearGradient>
	<path class="st5" d="M13.6,40.4c0-0.3-0.3-0.5-0.6-0.4L0.4,42.2c-0.3,0-0.5,0.3-0.4,0.6c0,0.2,0.3,0.4,0.5,0.4c0,0,0.1,0,0.1,0
		L13.2,41C13.5,41,13.7,40.7,13.6,40.4z"/>
	<linearGradient id="SVGID_7_" gradientUnits="userSpaceOnUse" x1="88.6736" y1="54.9567" x2="18.1428" y2="-15.5741">
		<stop  offset="0" style="stop-color:#045D95"/>
		<stop  offset="1" style="stop-color:#BA2B2B"/>
	</linearGradient>
	<path class="st6" d="M58.3,32.6c0,0.2,0.3,0.4,0.5,0.4c0,0,0.1,0,0.1,0l12.6-2.2c0.3,0,0.5-0.3,0.4-0.6c0-0.3-0.3-0.5-0.6-0.4
		L58.7,32C58.4,32,58.2,32.3,58.3,32.6z"/>
	<linearGradient id="SVGID_8_" gradientUnits="userSpaceOnUse" x1="59.546" y1="84.0843" x2="-10.9848" y2="13.5535">
		<stop  offset="0" style="stop-color:#045D95"/>
		<stop  offset="1" style="stop-color:#BA2B2B"/>
	</linearGradient>
	<path class="st7" d="M0.4,30.7L13,33c0,0,0.1,0,0.1,0c0.2,0,0.5-0.2,0.5-0.4c0-0.3-0.1-0.5-0.4-0.6L0.6,29.7
		c-0.3,0-0.5,0.1-0.6,0.4C0,30.4,0.1,30.7,0.4,30.7z"/>
	<linearGradient id="SVGID_9_" gradientUnits="userSpaceOnUse" x1="83.5377" y1="60.0926" x2="13.0069" y2="-10.4382">
		<stop  offset="0" style="stop-color:#045D95"/>
		<stop  offset="1" style="stop-color:#BA2B2B"/>
	</linearGradient>
	<path class="st8" d="M71.5,42.2L58.8,40c-0.3,0-0.5,0.1-0.6,0.4c0,0.3,0.1,0.5,0.4,0.6l12.6,2.2c0,0,0.1,0,0.1,0
		c0.2,0,0.5-0.2,0.5-0.4C71.9,42.5,71.7,42.3,71.5,42.2z"/>
	<linearGradient id="SVGID_10_" gradientUnits="userSpaceOnUse" x1="66.1289" y1="77.5014" x2="-4.4019" y2="6.9706">
		<stop  offset="0" style="stop-color:#045D95"/>
		<stop  offset="1" style="stop-color:#BA2B2B"/>
	</linearGradient>
	<path class="st9" d="M4.5,18.9l11.1,6.4c0.1,0,0.2,0.1,0.3,0.1c0.2,0,0.3-0.1,0.4-0.3c0.1-0.2,0.1-0.5-0.2-0.7L5,18.1
		c-0.2-0.1-0.5-0.1-0.7,0.2C4.2,18.5,4.3,18.8,4.5,18.9z"/>
	<linearGradient id="SVGID_11_" gradientUnits="userSpaceOnUse" x1="76.9549" y1="66.6754" x2="6.4241" y2="-3.8554">
		<stop  offset="0" style="stop-color:#045D95"/>
		<stop  offset="1" style="stop-color:#BA2B2B"/>
	</linearGradient>
	<path class="st10" d="M67.4,54l-11.1-6.4c-0.2-0.1-0.5-0.1-0.7,0.2c-0.1,0.2-0.1,0.5,0.2,0.7l11.1,6.4c0.1,0,0.2,0.1,0.3,0.1
		c0.2,0,0.3-0.1,0.4-0.3C67.7,54.5,67.6,54.2,67.4,54z"/>
	<linearGradient id="SVGID_12_" gradientUnits="userSpaceOnUse" x1="73.3646" y1="70.2657" x2="2.8338" y2="-0.2651">
		<stop  offset="0" style="stop-color:#045D95"/>
		<stop  offset="1" style="stop-color:#BA2B2B"/>
	</linearGradient>
	<path class="st11" d="M20.7,19.1c0.1,0.1,0.2,0.2,0.4,0.2c0.1,0,0.2,0,0.3-0.1c0.2-0.2,0.2-0.5,0.1-0.7l-8.2-9.8
		c-0.2-0.2-0.5-0.2-0.7-0.1c-0.2,0.2-0.2,0.5-0.1,0.7L20.7,19.1z"/>
	<linearGradient id="SVGID_13_" gradientUnits="userSpaceOnUse" x1="69.7191" y1="73.9112" x2="-0.8117" y2="3.3804">
		<stop  offset="0" style="stop-color:#045D95"/>
		<stop  offset="1" style="stop-color:#BA2B2B"/>
	</linearGradient>
	<path class="st12" d="M51.2,53.9c-0.2-0.2-0.5-0.2-0.7-0.1c-0.2,0.2-0.2,0.5-0.1,0.7l8.2,9.8c0.1,0.1,0.2,0.2,0.4,0.2
		c0.1,0,0.2,0,0.3-0.1c0.2-0.2,0.2-0.5,0.1-0.7L51.2,53.9z"/>
	<linearGradient id="SVGID_14_" gradientUnits="userSpaceOnUse" x1="80.3806" y1="63.2497" x2="9.8498" y2="-7.2811">
		<stop  offset="0" style="stop-color:#045D95"/>
		<stop  offset="1" style="stop-color:#BA2B2B"/>
	</linearGradient>
	<path class="st13" d="M27.5,14.9c0.1,0.2,0.3,0.3,0.5,0.3c0.1,0,0.1,0,0.2,0c0.3-0.1,0.4-0.4,0.3-0.6l-4.4-12
		c-0.1-0.3-0.4-0.4-0.6-0.3c-0.3,0.1-0.4,0.4-0.3,0.6L27.5,14.9z"/>
	<linearGradient id="SVGID_15_" gradientUnits="userSpaceOnUse" x1="86.3303" y1="57.3" x2="15.7995" y2="-13.2308">
		<stop  offset="0" style="stop-color:#045D95"/>
		<stop  offset="1" style="stop-color:#BA2B2B"/>
	</linearGradient>
	<path class="st14" d="M35.9,13.8c0.3,0,0.5-0.2,0.5-0.5V0.5c0-0.3-0.2-0.5-0.5-0.5s-0.5,0.2-0.5,0.5v12.8
		C35.4,13.6,35.7,13.8,35.9,13.8z"/>
	<linearGradient id="SVGID_16_" gradientUnits="userSpaceOnUse" x1="53.3128" y1="90.3175" x2="-17.218" y2="19.7867">
		<stop  offset="0" style="stop-color:#045D95"/>
		<stop  offset="1" style="stop-color:#BA2B2B"/>
	</linearGradient>
	<path class="st15" d="M24.6,56.1c-0.2-0.1-0.5-0.1-0.7,0.2l-3.5,6.1c-0.1,0.2-0.1,0.5,0.2,0.7c0.1,0,0.2,0.1,0.3,0.1
		c0.2,0,0.3-0.1,0.4-0.3l3.5-6.1C24.9,56.6,24.8,56.3,24.6,56.1z"/>
	<linearGradient id="SVGID_17_" gradientUnits="userSpaceOnUse" x1="89.7709" y1="53.8594" x2="19.2401" y2="-16.6714">
		<stop  offset="0" style="stop-color:#045D95"/>
		<stop  offset="1" style="stop-color:#BA2B2B"/>
	</linearGradient>
	<path class="st16" d="M47.3,16.9c0.1,0,0.2,0.1,0.3,0.1c0.2,0,0.3-0.1,0.4-0.3l3.5-6.1c0.1-0.2,0.1-0.5-0.2-0.7
		c-0.2-0.1-0.5-0.1-0.7,0.2l-3.5,6.1C47,16.4,47,16.7,47.3,16.9z"/>
	<linearGradient id="SVGID_18_" gradientUnits="userSpaceOnUse" x1="52.7416" y1="90.8887" x2="-17.7892" y2="20.3579">
		<stop  offset="0" style="stop-color:#045D95"/>
		<stop  offset="1" style="stop-color:#BA2B2B"/>
	</linearGradient>
	<path class="st17" d="M12.8,56.4c0.1,0,0.2,0,0.3-0.1l5.4-4.5c0.2-0.2,0.2-0.5,0.1-0.7c-0.2-0.2-0.5-0.2-0.7-0.1l-5.4,4.5
		c-0.2,0.2-0.2,0.5-0.1,0.7C12.5,56.3,12.7,56.4,12.8,56.4z"/>
	<linearGradient id="SVGID_19_" gradientUnits="userSpaceOnUse" x1="90.342" y1="53.2882" x2="19.8113" y2="-17.2425">
		<stop  offset="0" style="stop-color:#045D95"/>
		<stop  offset="1" style="stop-color:#BA2B2B"/>
	</linearGradient>
	<path class="st18" d="M58.8,16.7l-5.4,4.5c-0.2,0.2-0.2,0.5-0.1,0.7c0.1,0.1,0.2,0.2,0.4,0.2c0.1,0,0.2,0,0.3-0.1l5.4-4.5
		c0.2-0.2,0.2-0.5,0.1-0.7C59.3,16.5,59,16.5,58.8,16.7z"/>
	<linearGradient id="SVGID_20_" gradientUnits="userSpaceOnUse" x1="54.4379" y1="89.1923" x2="-16.0928" y2="18.6616">
		<stop  offset="0" style="stop-color:#045D95"/>
		<stop  offset="1" style="stop-color:#BA2B2B"/>
	</linearGradient>
	<path class="st19" d="M14,43.9l-6.6,2.4C7.1,46.4,7,46.7,7.1,47c0.1,0.2,0.3,0.3,0.5,0.3c0.1,0,0.1,0,0.2,0l6.6-2.4
		c0.3-0.1,0.4-0.4,0.3-0.6C14.5,44,14.3,43.8,14,43.9z"/>
	<linearGradient id="SVGID_21_" gradientUnits="userSpaceOnUse" x1="88.6457" y1="54.9846" x2="18.1149" y2="-15.5462">
		<stop  offset="0" style="stop-color:#045D95"/>
		<stop  offset="1" style="stop-color:#BA2B2B"/>
	</linearGradient>
	<path class="st20" d="M64.8,26c-0.1-0.3-0.4-0.4-0.6-0.3l-6.6,2.4c-0.3,0.1-0.4,0.4-0.3,0.6c0.1,0.2,0.3,0.3,0.5,0.3
		c0.1,0,0.1,0,0.2,0l6.6-2.4C64.8,26.5,64.9,26.2,64.8,26z"/>
	<linearGradient id="SVGID_22_" gradientUnits="userSpaceOnUse" x1="58.1973" y1="85.4329" x2="-12.3334" y2="14.9022">
		<stop  offset="0" style="stop-color:#045D95"/>
		<stop  offset="1" style="stop-color:#BA2B2B"/>
	</linearGradient>
	<path class="st21" d="M5.7,36c-0.3,0-0.5,0.2-0.5,0.5S5.5,37,5.7,37h7c0.3,0,0.5-0.2,0.5-0.5S13,36,12.8,36H5.7z"/>
	<linearGradient id="SVGID_23_" gradientUnits="userSpaceOnUse" x1="84.8865" y1="58.7438" x2="14.3557" y2="-11.787">
		<stop  offset="0" style="stop-color:#045D95"/>
		<stop  offset="1" style="stop-color:#BA2B2B"/>
	</linearGradient>
	<path class="st22" d="M59.1,36c-0.3,0-0.5,0.2-0.5,0.5s0.2,0.5,0.5,0.5h7c0.3,0,0.5-0.2,0.5-0.5S66.4,36,66.1,36H59.1z"/>
	<linearGradient id="SVGID_24_" gradientUnits="userSpaceOnUse" x1="63.5661" y1="80.0642" x2="-6.9647" y2="9.5334">
		<stop  offset="0" style="stop-color:#045D95"/>
		<stop  offset="1" style="stop-color:#BA2B2B"/>
	</linearGradient>
	<path class="st23" d="M14.3,28.1l-6.6-2.4c-0.3-0.1-0.5,0-0.6,0.3c-0.1,0.3,0,0.5,0.3,0.6L14,29c0.1,0,0.1,0,0.2,0
		c0.2,0,0.4-0.1,0.5-0.3C14.7,28.5,14.6,28.2,14.3,28.1z"/>
	<linearGradient id="SVGID_25_" gradientUnits="userSpaceOnUse" x1="79.5176" y1="64.1127" x2="8.9868" y2="-6.4181">
		<stop  offset="0" style="stop-color:#045D95"/>
		<stop  offset="1" style="stop-color:#BA2B2B"/>
	</linearGradient>
	<path class="st24" d="M57.2,44.2c-0.1,0.3,0,0.5,0.3,0.6l6.6,2.4c0.1,0,0.1,0,0.2,0c0.2,0,0.4-0.1,0.5-0.3c0.1-0.3,0-0.5-0.3-0.6
		l-6.6-2.4C57.6,43.8,57.3,44,57.2,44.2z"/>
	<linearGradient id="SVGID_26_" gradientUnits="userSpaceOnUse" x1="69.897" y1="73.7333" x2="-0.6338" y2="3.2025">
		<stop  offset="0" style="stop-color:#045D95"/>
		<stop  offset="1" style="stop-color:#BA2B2B"/>
	</linearGradient>
	<path class="st25" d="M17.9,22c0.1,0.1,0.2,0.1,0.3,0.1c0.1,0,0.3-0.1,0.4-0.2c0.2-0.2,0.2-0.5-0.1-0.7l-5.4-4.5
		c-0.2-0.2-0.5-0.2-0.7,0.1c-0.2,0.2-0.2,0.5,0.1,0.7L17.9,22z"/>
	<linearGradient id="SVGID_27_" gradientUnits="userSpaceOnUse" x1="73.1867" y1="70.4436" x2="2.6559" y2="-8.719481e-02">
		<stop  offset="0" style="stop-color:#045D95"/>
		<stop  offset="1" style="stop-color:#BA2B2B"/>
	</linearGradient>
	<path class="st26" d="M54,51c-0.2-0.2-0.5-0.2-0.7,0.1c-0.2,0.2-0.2,0.5,0.1,0.7l5.4,4.5c0.1,0.1,0.2,0.1,0.3,0.1
		c0.1,0,0.3-0.1,0.4-0.2c0.2-0.2,0.2-0.5-0.1-0.7L54,51z"/>
	<linearGradient id="SVGID_28_" gradientUnits="userSpaceOnUse" x1="76.4263" y1="67.2039" x2="5.8955" y2="-3.3268">
		<stop  offset="0" style="stop-color:#045D95"/>
		<stop  offset="1" style="stop-color:#BA2B2B"/>
	</linearGradient>
	<path class="st27" d="M23.9,16.7c0.1,0.2,0.3,0.3,0.4,0.3c0.1,0,0.2,0,0.3-0.1c0.2-0.1,0.3-0.4,0.2-0.7l-3.5-6.1
		c-0.1-0.2-0.4-0.3-0.7-0.2c-0.2,0.1-0.3,0.4-0.2,0.7L23.9,16.7z"/>
	<linearGradient id="SVGID_29_" gradientUnits="userSpaceOnUse" x1="66.6574" y1="76.9729" x2="-3.8734" y2="6.4421">
		<stop  offset="0" style="stop-color:#045D95"/>
		<stop  offset="1" style="stop-color:#BA2B2B"/>
	</linearGradient>
	<path class="st28" d="M48,56.3c-0.1-0.2-0.4-0.3-0.7-0.2c-0.2,0.1-0.3,0.4-0.2,0.7l3.5,6.1c0.1,0.2,0.3,0.3,0.4,0.3
		c0.1,0,0.2,0,0.3-0.1c0.2-0.1,0.3-0.4,0.2-0.7L48,56.3z"/>
	<linearGradient id="SVGID_30_" gradientUnits="userSpaceOnUse" x1="82.3664" y1="61.2639" x2="11.8356" y2="-9.2669">
		<stop  offset="0" style="stop-color:#045D95"/>
		<stop  offset="1" style="stop-color:#BA2B2B"/>
	</linearGradient>
	<path class="st29" d="M31.4,13.8c0,0.2,0.3,0.4,0.5,0.4c0,0,0.1,0,0.1,0c0.3,0,0.5-0.3,0.4-0.6l-1.2-6.9c0-0.3-0.3-0.5-0.6-0.4
		c-0.3,0-0.5,0.3-0.4,0.6L31.4,13.8z"/>
	<linearGradient id="SVGID_31_" gradientUnits="userSpaceOnUse" x1="87.0009" y1="56.6294" x2="16.4701" y2="-13.9014">
		<stop  offset="0" style="stop-color:#045D95"/>
		<stop  offset="1" style="stop-color:#BA2B2B"/>
	</linearGradient>
	<path class="st30" d="M39.9,14.2C39.9,14.2,39.9,14.2,39.9,14.2c0.3,0,0.5-0.2,0.6-0.4l1.2-6.9c0-0.3-0.1-0.5-0.4-0.6
		c-0.3,0-0.5,0.1-0.6,0.4l-1.2,6.9C39.4,13.9,39.6,14.1,39.9,14.2z"/>
	<linearGradient id="SVGID_32_" gradientUnits="userSpaceOnUse" x1="71.8146" y1="71.8156" x2="1.2839" y2="1.2849">
		<stop  offset="0" style="stop-color:#045D95"/>
		<stop  offset="1" style="stop-color:#BA2B2B"/>
	</linearGradient>
	<path class="st31" d="M38.1,34.4v-9.6c3.1,0.7,4.4,2.9,4.4,4.9v1.6h0.7v-3.1c0-1.4,0.1-3,0.7-4h-0.7c-0.3,0.7-0.6,1.7-1.6,1.9
		c-0.8-0.9-2-1.5-3.5-1.8v-3.7h-0.7V24c-0.5-0.1-1.1-0.1-1.7-0.1c-0.3,0-0.6,0-0.9,0v-3.4h-0.7V24c-2.9,0.4-6,2.1-6,6.4
		c0,4.1,2.8,5.8,6,6.9V47c-3.1-0.7-5-3-5-4.8v-2.4h-0.7v4.1c0,1.4-0.1,3-0.5,4h0.7c0.3-0.9,0.8-2.1,1.6-2.2c1,0.9,2.3,1.7,3.9,2v3.9
		h0.7v-3.7c0.5,0,1,0.1,1.5,0.1c0.3,0,0.7,0,1,0v3.7h0.7v-3.8c3.9-0.6,6.3-3.1,6.3-6.6C44.4,37.1,41.4,35.5,38.1,34.4z M34.2,33.1
		c-2.5-0.8-4.5-1.9-4.5-4.2c0-2.5,1.9-4,4.5-4.4V33.1z M37.5,47.2c-0.3,0-0.7,0-1,0c-0.6,0-1.1,0-1.6-0.1v-9.5
		c0.9,0.3,1.7,0.6,2.6,0.8V47.2z M37.5,34.1l-2.6-0.8v-8.8c0.3,0,0.6,0,0.9,0c0.6,0,1.2,0,1.7,0.1V34.1z M38.1,47.1v-8.5
		c2.6,0.8,4.7,1.8,4.7,4.1C42.8,45.2,40.8,46.7,38.1,47.1z"/>
	<linearGradient id="SVGID_33_" gradientUnits="userSpaceOnUse" x1="52.6684" y1="90.9619" x2="-17.8624" y2="20.4311">
		<stop  offset="0" style="stop-color:#045D95"/>
		<stop  offset="1" style="stop-color:#BA2B2B"/>
	</linearGradient>
	<path class="st32" d="M28.2,57.6c-0.1,0-0.1,0-0.2,0c-0.2,0-0.4,0.1-0.5,0.3l-4.4,12c-0.1,0.3,0,0.5,0.3,0.6c0.3,0.1,0.5,0,0.6-0.3
		l4.4-12C28.6,58,28.4,57.7,28.2,57.6z"/>
	<linearGradient id="SVGID_34_" gradientUnits="userSpaceOnUse" x1="62.7843" y1="80.846" x2="-7.7465" y2="10.3152">
		<stop  offset="0" style="stop-color:#045D95"/>
		<stop  offset="1" style="stop-color:#BA2B2B"/>
	</linearGradient>
	<path class="st33" d="M44.3,57.9c-0.1-0.2-0.3-0.3-0.5-0.3c-0.1,0-0.1,0-0.2,0c-0.3,0.1-0.4,0.4-0.3,0.6l4.4,12
		c0.1,0.3,0.4,0.4,0.6,0.3c0.3-0.1,0.4-0.4,0.3-0.6L44.3,57.9z"/>
	<linearGradient id="SVGID_35_" gradientUnits="userSpaceOnUse" x1="56.8345" y1="86.7958" x2="-13.6963" y2="16.265">
		<stop  offset="0" style="stop-color:#045D95"/>
		<stop  offset="1" style="stop-color:#BA2B2B"/>
	</linearGradient>
	<path class="st34" d="M35.9,59c-0.3,0-0.5,0.2-0.5,0.5v12.8c0,0.3,0.2,0.5,0.5,0.5s0.5-0.2,0.5-0.5V59.5C36.4,59.2,36.2,59,35.9,59
		z"/>
	<linearGradient id="SVGID_36_" gradientUnits="userSpaceOnUse" x1="60.7984" y1="82.8318" x2="-9.7323" y2="12.301">
		<stop  offset="0" style="stop-color:#045D95"/>
		<stop  offset="1" style="stop-color:#BA2B2B"/>
	</linearGradient>
	<path class="st35" d="M40.5,59.1c0-0.2-0.3-0.4-0.5-0.4c0,0-0.1,0-0.1,0c-0.3,0-0.5,0.3-0.4,0.6l1.2,6.9c0,0.3,0.3,0.5,0.6,0.4
		c0.3,0,0.5-0.3,0.4-0.6L40.5,59.1z"/>
	<linearGradient id="SVGID_37_" gradientUnits="userSpaceOnUse" x1="56.1639" y1="87.4664" x2="-14.3669" y2="16.9356">
		<stop  offset="0" style="stop-color:#045D95"/>
		<stop  offset="1" style="stop-color:#BA2B2B"/>
	</linearGradient>
	<path class="st36" d="M32,58.6C32,58.6,31.9,58.6,32,58.6c-0.3,0-0.5,0.2-0.6,0.4L30.2,66c0,0.3,0.1,0.5,0.4,0.6
		c0.3,0,0.5-0.1,0.6-0.4l1.2-6.9C32.5,59,32.3,58.7,32,58.6z"/>
</g>
</svg>
