<?xml version="1.0" encoding="utf-8"?>
<!-- Generator: Adobe Illustrator 22.1.0, SVG Export Plug-In . SVG Version: 6.00 Build 0)  -->
<svg version="1.1" id="Layer_1" xmlns="http://www.w3.org/2000/svg" xmlns:xlink="http://www.w3.org/1999/xlink" x="0px" y="0px"
	 width="90.9px" height="96.4px" viewBox="0 0 90.9 96.4" style="enable-background:new 0 0 90.9 96.4;" xml:space="preserve">
<style type="text/css">
	.st0{fill:url(#SVGID_1_);}
	.st1{fill:url(#SVGID_2_);}
	.st2{fill:url(#SVGID_3_);}
	.st3{fill:url(#SVGID_4_);}
	.st4{fill:url(#SVGID_5_);}
	.st5{fill:url(#SVGID_6_);}
	.st6{fill:url(#SVGID_7_);}
	.st7{fill:url(#SVGID_8_);}
	.st8{fill:url(#SVGID_9_);}
	.st9{fill:url(#SVGID_10_);}
	.st10{fill:url(#SVGID_11_);}
	.st11{fill:url(#SVGID_12_);}
	.st12{fill:url(#SVGID_13_);}
	.st13{fill:url(#SVGID_14_);}
	.st14{fill:url(#SVGID_15_);}
	.st15{fill:url(#SVGID_16_);}
	.st16{fill:url(#SVGID_17_);}
	.st17{fill:url(#SVGID_18_);}
	.st18{fill:url(#SVGID_19_);}
	.st19{fill:url(#SVGID_20_);}
	.st20{fill:url(#SVGID_21_);}
	.st21{fill:url(#SVGID_22_);}
	.st22{fill:url(#SVGID_23_);}
	.st23{fill:url(#SVGID_24_);}
	.st24{fill:url(#SVGID_25_);}
	.st25{fill:url(#SVGID_26_);}
	.st26{fill:url(#SVGID_27_);}
	.st27{fill:url(#SVGID_28_);}
	.st28{fill:url(#SVGID_29_);}
	.st29{fill:url(#SVGID_30_);}
	.st30{fill:url(#SVGID_31_);}
	.st31{fill:url(#SVGID_32_);}
	.st32{fill:url(#SVGID_33_);}
	.st33{fill:url(#SVGID_34_);}
	.st34{fill:url(#SVGID_35_);}
	.st35{fill:url(#SVGID_36_);}
	.st36{fill:url(#SVGID_37_);}
	.st37{fill:url(#SVGID_38_);}
	.st38{fill:url(#SVGID_39_);}
	.st39{fill:url(#SVGID_40_);}
	.st40{fill:url(#SVGID_41_);}
	.st41{fill:url(#SVGID_42_);}
	.st42{fill:url(#SVGID_43_);}
	.st43{fill:url(#SVGID_44_);}
	.st44{fill:url(#SVGID_45_);}
	.st45{fill:url(#SVGID_46_);}
	.st46{fill:url(#SVGID_47_);}
	.st47{fill:url(#SVGID_48_);}
	.st48{fill:url(#SVGID_49_);}
	.st49{fill:url(#SVGID_50_);}
	.st50{fill:url(#SVGID_51_);}
	.st51{fill:url(#SVGID_52_);}
	.st52{fill:url(#SVGID_53_);}
	.st53{fill:url(#SVGID_54_);}
	.st54{fill:url(#SVGID_55_);}
	.st55{fill:url(#SVGID_56_);}
	.st56{fill:url(#SVGID_57_);}
	.st57{fill:url(#SVGID_58_);}
	.st58{fill:url(#SVGID_59_);}
	.st59{fill:url(#SVGID_60_);}
	.st60{fill:url(#SVGID_61_);}
	.st61{fill:url(#SVGID_62_);}
	.st62{fill:url(#SVGID_63_);}
	.st63{fill:url(#SVGID_64_);}
	.st64{fill:url(#SVGID_65_);}
	.st65{fill:url(#SVGID_66_);}
	.st66{fill:url(#SVGID_67_);}
	.st67{fill:url(#SVGID_68_);}
	.st68{fill:url(#SVGID_69_);}
	.st69{fill:url(#SVGID_70_);}
	.st70{fill:url(#SVGID_71_);}
	.st71{fill:url(#SVGID_72_);}
	.st72{fill:url(#SVGID_73_);}
	.st73{fill:url(#SVGID_74_);}
	.st74{fill:url(#SVGID_75_);}
	.st75{fill:url(#SVGID_76_);}
	.st76{fill:url(#SVGID_77_);}
	.st77{fill:url(#SVGID_78_);}
	.st78{fill:url(#SVGID_79_);}
	.st79{fill:url(#SVGID_80_);}
	.st80{fill:url(#SVGID_81_);}
	.st81{fill:url(#SVGID_82_);}
	.st82{fill:url(#SVGID_83_);}
	.st83{fill:url(#SVGID_84_);}
	.st84{fill:url(#SVGID_85_);}
	.st85{fill:url(#SVGID_86_);}
	.st86{fill:url(#SVGID_87_);}
	.st87{fill:url(#SVGID_88_);}
	.st88{fill:url(#SVGID_89_);}
	.st89{fill:url(#SVGID_90_);}
	.st90{fill:url(#SVGID_91_);}
	.st91{fill:url(#SVGID_92_);}
	.st92{fill:url(#SVGID_93_);}
	.st93{fill:url(#SVGID_94_);}
	.st94{fill:url(#SVGID_95_);}
	.st95{fill:url(#SVGID_96_);}
	.st96{fill:url(#SVGID_97_);}
	.st97{fill:url(#SVGID_98_);}
	.st98{fill:#FFFFFF;}
</style>
<g>
	<linearGradient id="SVGID_1_" gradientUnits="userSpaceOnUse" x1="71.7681" y1="123.4028" x2="-25.7043" y2="25.9305">
		<stop  offset="0" style="stop-color:#045D95"/>
		<stop  offset="1" style="stop-color:#BA2B2B"/>
	</linearGradient>
	<rect x="6.3" y="63.9" class="st0" width="13.7" height="1.7"/>
	<linearGradient id="SVGID_2_" gradientUnits="userSpaceOnUse" x1="64.9389" y1="130.232" x2="-32.5335" y2="32.7597">
		<stop  offset="0" style="stop-color:#045D95"/>
		<stop  offset="1" style="stop-color:#BA2B2B"/>
	</linearGradient>
	<rect x="6.3" y="77.6" class="st1" width="13.7" height="1.7"/>
	<linearGradient id="SVGID_3_" gradientUnits="userSpaceOnUse" x1="65.8355" y1="129.3354" x2="-31.6369" y2="31.8631">
		<stop  offset="0" style="stop-color:#045D95"/>
		<stop  offset="1" style="stop-color:#BA2B2B"/>
	</linearGradient>
	<rect x="6.3" y="70.8" class="st2" width="3.6" height="1.7"/>
	<linearGradient id="SVGID_4_" gradientUnits="userSpaceOnUse" x1="69.6769" y1="125.494" x2="-27.7955" y2="28.0217">
		<stop  offset="0" style="stop-color:#045D95"/>
		<stop  offset="1" style="stop-color:#BA2B2B"/>
	</linearGradient>
	<rect x="11.6" y="70.8" class="st3" width="8.4" height="1.7"/>
	<linearGradient id="SVGID_5_" gradientUnits="userSpaceOnUse" x1="106.7253" y1="88.4456" x2="9.2529" y2="-9.0267">
		<stop  offset="0" style="stop-color:#045D95"/>
		<stop  offset="1" style="stop-color:#BA2B2B"/>
	</linearGradient>
	<rect x="81.3" y="63.9" class="st4" width="3.6" height="1.7"/>
	<linearGradient id="SVGID_6_" gradientUnits="userSpaceOnUse" x1="102.8838" y1="92.2871" x2="5.4115" y2="-5.1853">
		<stop  offset="0" style="stop-color:#045D95"/>
		<stop  offset="1" style="stop-color:#BA2B2B"/>
	</linearGradient>
	<rect x="71.2" y="63.9" class="st5" width="8.4" height="1.7"/>
	<linearGradient id="SVGID_7_" gradientUnits="userSpaceOnUse" x1="100.7922" y1="94.3787" x2="3.3199" y2="-3.0937">
		<stop  offset="0" style="stop-color:#045D95"/>
		<stop  offset="1" style="stop-color:#BA2B2B"/>
	</linearGradient>
	<rect x="71.2" y="70.8" class="st6" width="13.7" height="1.7"/>
	<linearGradient id="SVGID_8_" gradientUnits="userSpaceOnUse" x1="99.8961" y1="95.2748" x2="2.4237" y2="-2.1975">
		<stop  offset="0" style="stop-color:#045D95"/>
		<stop  offset="1" style="stop-color:#BA2B2B"/>
	</linearGradient>
	<rect x="81.3" y="77.6" class="st7" width="3.6" height="1.7"/>
	<linearGradient id="SVGID_9_" gradientUnits="userSpaceOnUse" x1="96.0546" y1="99.1163" x2="-1.4177" y2="1.6439">
		<stop  offset="0" style="stop-color:#045D95"/>
		<stop  offset="1" style="stop-color:#BA2B2B"/>
	</linearGradient>
	<rect x="71.2" y="77.6" class="st8" width="8.4" height="1.7"/>
	<linearGradient id="SVGID_10_" gradientUnits="userSpaceOnUse" x1="118.0911" y1="77.0798" x2="20.6187" y2="-20.3925">
		<stop  offset="0" style="stop-color:#045D95"/>
		<stop  offset="1" style="stop-color:#BA2B2B"/>
	</linearGradient>
	<polygon class="st9" points="46.7,4.6 46.7,0 44.5,0 44.5,4.6 44.5,9.2 46.7,9.2 	"/>
	<linearGradient id="SVGID_11_" gradientUnits="userSpaceOnUse" x1="108.5505" y1="86.6204" x2="11.0781" y2="-10.8519">
		<stop  offset="0" style="stop-color:#045D95"/>
		<stop  offset="1" style="stop-color:#BA2B2B"/>
	</linearGradient>
	<polygon class="st10" points="32.5,10.8 31.3,6.3 29.1,6.9 30.2,11.3 	"/>
	<linearGradient id="SVGID_12_" gradientUnits="userSpaceOnUse" x1="99.1929" y1="95.978" x2="1.7206" y2="-1.4944">
		<stop  offset="0" style="stop-color:#045D95"/>
		<stop  offset="1" style="stop-color:#BA2B2B"/>
	</linearGradient>
	<polygon class="st11" points="17.1,17.1 19.1,16 16.8,12 14.5,8 12.5,9.2 14.8,13.1 	"/>
	<linearGradient id="SVGID_13_" gradientUnits="userSpaceOnUse" x1="88.2827" y1="106.8882" x2="-9.1897" y2="9.4158">
		<stop  offset="0" style="stop-color:#045D95"/>
		<stop  offset="1" style="stop-color:#BA2B2B"/>
	</linearGradient>
	<polygon class="st12" points="7.5,24.5 4.3,21.2 2.6,22.9 5.9,26.1 	"/>
	<linearGradient id="SVGID_14_" gradientUnits="userSpaceOnUse" x1="128.8177" y1="66.3532" x2="31.3453" y2="-31.1191">
		<stop  offset="0" style="stop-color:#045D95"/>
		<stop  offset="1" style="stop-color:#BA2B2B"/>
	</linearGradient>
	<polygon class="st13" points="88.6,22.9 86.9,21.2 83.7,24.5 85.3,26.1 	"/>
	<linearGradient id="SVGID_15_" gradientUnits="userSpaceOnUse" x1="129.0019" y1="66.169" x2="31.5295" y2="-31.3033">
		<stop  offset="0" style="stop-color:#045D95"/>
		<stop  offset="1" style="stop-color:#BA2B2B"/>
	</linearGradient>
	<polygon class="st14" points="76.4,13.1 78.7,9.2 76.7,8 74.4,12 72.1,16 74.1,17.1 	"/>
	<linearGradient id="SVGID_16_" gradientUnits="userSpaceOnUse" x1="123.3867" y1="71.7843" x2="25.9143" y2="-25.6881">
		<stop  offset="0" style="stop-color:#045D95"/>
		<stop  offset="1" style="stop-color:#BA2B2B"/>
	</linearGradient>
	<polygon class="st15" points="62.1,6.9 59.9,6.3 58.7,10.8 60.9,11.3 	"/>
	<linearGradient id="SVGID_17_" gradientUnits="userSpaceOnUse" x1="74.4157" y1="120.7552" x2="-23.0566" y2="23.2828">
		<stop  offset="0" style="stop-color:#045D95"/>
		<stop  offset="1" style="stop-color:#BA2B2B"/>
	</linearGradient>
	<rect x="31.9" y="81" class="st16" width="7.2" height="1.7"/>
	<linearGradient id="SVGID_18_" gradientUnits="userSpaceOnUse" x1="82.0986" y1="113.0723" x2="-15.3738" y2="15.5999">
		<stop  offset="0" style="stop-color:#045D95"/>
		<stop  offset="1" style="stop-color:#BA2B2B"/>
	</linearGradient>
	<rect x="42.5" y="81" class="st17" width="16.7" height="1.7"/>
	<linearGradient id="SVGID_19_" gradientUnits="userSpaceOnUse" x1="91.317" y1="103.8539" x2="-6.1553" y2="6.3815">
		<stop  offset="0" style="stop-color:#045D95"/>
		<stop  offset="1" style="stop-color:#BA2B2B"/>
	</linearGradient>
	<rect x="52.1" y="67.4" class="st18" width="7.2" height="1.7"/>
	<linearGradient id="SVGID_20_" gradientUnits="userSpaceOnUse" x1="83.6342" y1="111.5368" x2="-13.8382" y2="14.0644">
		<stop  offset="0" style="stop-color:#045D95"/>
		<stop  offset="1" style="stop-color:#BA2B2B"/>
	</linearGradient>
	<rect x="31.9" y="67.4" class="st19" width="16.7" height="1.7"/>
	<linearGradient id="SVGID_21_" gradientUnits="userSpaceOnUse" x1="82.7955" y1="112.3754" x2="-14.6768" y2="14.903">
		<stop  offset="0" style="stop-color:#045D95"/>
		<stop  offset="1" style="stop-color:#BA2B2B"/>
	</linearGradient>
	<rect x="31.9" y="74.3" class="st20" width="27.3" height="1.7"/>
	<linearGradient id="SVGID_22_" gradientUnits="userSpaceOnUse" x1="88.0742" y1="107.0967" x2="-9.3982" y2="9.6244">
		<stop  offset="0" style="stop-color:#045D95"/>
		<stop  offset="1" style="stop-color:#BA2B2B"/>
	</linearGradient>
	<rect x="31.9" y="53.7" class="st21" width="7.2" height="1.7"/>
	<linearGradient id="SVGID_23_" gradientUnits="userSpaceOnUse" x1="95.757" y1="99.4139" x2="-1.7153" y2="1.9415">
		<stop  offset="0" style="stop-color:#045D95"/>
		<stop  offset="1" style="stop-color:#BA2B2B"/>
	</linearGradient>
	<rect x="42.5" y="53.7" class="st22" width="16.7" height="1.7"/>
	<linearGradient id="SVGID_24_" gradientUnits="userSpaceOnUse" x1="89.7664" y1="105.4045" x2="-7.7059" y2="7.9321">
		<stop  offset="0" style="stop-color:#045D95"/>
		<stop  offset="1" style="stop-color:#BA2B2B"/>
	</linearGradient>
	<rect x="31.9" y="60.4" class="st23" width="27.3" height="1.7"/>
	<linearGradient id="SVGID_25_" gradientUnits="userSpaceOnUse" x1="87.095" y1="108.0759" x2="-10.3773" y2="10.6035">
		<stop  offset="0" style="stop-color:#045D95"/>
		<stop  offset="1" style="stop-color:#BA2B2B"/>
	</linearGradient>
	<path class="st24" d="M70.4,50V26.4H35l-0.3,0.3L21.1,40.3l0.6,1.5h13.7l0.9-0.9V28.1h32.4v66.6H22.6V44.3h-1.7v5.9L0,50.5
		l0.1,35.5h20.7v10.3h49.5V85.9h20.6V50H70.4z M34.5,40H23.8l10.7-10.7V40z M20.7,84.4H1.8L1.7,52.2l19-0.3V84.4z M89.2,84.1H70.4
		V51.7h18.9V84.1z"/>
</g>
</svg>
