<?xml version="1.0" encoding="utf-8"?>
<!-- Generator: Adobe Illustrator 22.1.0, SVG Export Plug-In . SVG Version: 6.00 Build 0)  -->
<svg version="1.1" id="Layer_1" xmlns="http://www.w3.org/2000/svg" xmlns:xlink="http://www.w3.org/1999/xlink" x="0px" y="0px"
	 width="103.3px" height="96.6px" viewBox="0 0 103.3 96.6" style="enable-background:new 0 0 103.3 96.6;" xml:space="preserve">
<style type="text/css">
	.st0{fill:url(#SVGID_1_);}
	.st1{fill:url(#SVGID_2_);}
	.st2{fill:url(#SVGID_3_);}
	.st3{fill:url(#SVGID_4_);}
	.st4{fill:url(#SVGID_5_);}
	.st5{fill:url(#SVGID_6_);}
	.st6{fill:url(#SVGID_7_);}
	.st7{fill:url(#SVGID_8_);}
	.st8{fill:url(#SVGID_9_);}
	.st9{fill:url(#SVGID_10_);}
	.st10{fill:url(#SVGID_11_);}
	.st11{fill:url(#SVGID_12_);}
	.st12{fill:url(#SVGID_13_);}
	.st13{fill:url(#SVGID_14_);}
	.st14{fill:url(#SVGID_15_);}
	.st15{fill:url(#SVGID_16_);}
	.st16{fill:url(#SVGID_17_);}
	.st17{fill:url(#SVGID_18_);}
	.st18{fill:url(#SVGID_19_);}
	.st19{fill:url(#SVGID_20_);}
	.st20{fill:url(#SVGID_21_);}
	.st21{fill:url(#SVGID_22_);}
	.st22{fill:url(#SVGID_23_);}
	.st23{fill:url(#SVGID_24_);}
	.st24{fill:url(#SVGID_25_);}
	.st25{fill:url(#SVGID_26_);}
	.st26{fill:url(#SVGID_27_);}
	.st27{fill:url(#SVGID_28_);}
	.st28{fill:url(#SVGID_29_);}
	.st29{fill:url(#SVGID_30_);}
	.st30{fill:url(#SVGID_31_);}
	.st31{fill:url(#SVGID_32_);}
	.st32{fill:url(#SVGID_33_);}
	.st33{fill:url(#SVGID_34_);}
	.st34{fill:url(#SVGID_35_);}
	.st35{fill:url(#SVGID_36_);}
	.st36{fill:url(#SVGID_37_);}
	.st37{fill:url(#SVGID_38_);}
	.st38{fill:url(#SVGID_39_);}
	.st39{fill:url(#SVGID_40_);}
	.st40{fill:url(#SVGID_41_);}
	.st41{fill:url(#SVGID_42_);}
	.st42{fill:url(#SVGID_43_);}
	.st43{fill:url(#SVGID_44_);}
	.st44{fill:url(#SVGID_45_);}
	.st45{fill:url(#SVGID_46_);}
	.st46{fill:url(#SVGID_47_);}
	.st47{fill:url(#SVGID_48_);}
	.st48{fill:url(#SVGID_49_);}
	.st49{fill:url(#SVGID_50_);}
	.st50{fill:url(#SVGID_51_);}
	.st51{fill:url(#SVGID_52_);}
	.st52{fill:url(#SVGID_53_);}
	.st53{fill:url(#SVGID_54_);}
	.st54{fill:url(#SVGID_55_);}
	.st55{fill:url(#SVGID_56_);}
	.st56{fill:url(#SVGID_57_);}
	.st57{fill:url(#SVGID_58_);}
	.st58{fill:url(#SVGID_59_);}
	.st59{fill:url(#SVGID_60_);}
	.st60{fill:url(#SVGID_61_);}
	.st61{fill:url(#SVGID_62_);}
	.st62{fill:url(#SVGID_63_);}
	.st63{fill:url(#SVGID_64_);}
	.st64{fill:url(#SVGID_65_);}
	.st65{fill:url(#SVGID_66_);}
	.st66{fill:url(#SVGID_67_);}
	.st67{fill:url(#SVGID_68_);}
	.st68{fill:url(#SVGID_69_);}
	.st69{fill:url(#SVGID_70_);}
	.st70{fill:url(#SVGID_71_);}
	.st71{fill:url(#SVGID_72_);}
	.st72{fill:url(#SVGID_73_);}
	.st73{fill:url(#SVGID_74_);}
	.st74{fill:url(#SVGID_75_);}
	.st75{fill:url(#SVGID_76_);}
	.st76{fill:url(#SVGID_77_);}
	.st77{fill:url(#SVGID_78_);}
	.st78{fill:url(#SVGID_79_);}
	.st79{fill:url(#SVGID_80_);}
	.st80{fill:url(#SVGID_81_);}
	.st81{fill:url(#SVGID_82_);}
	.st82{fill:url(#SVGID_83_);}
	.st83{fill:url(#SVGID_84_);}
	.st84{fill:url(#SVGID_85_);}
	.st85{fill:url(#SVGID_86_);}
	.st86{fill:url(#SVGID_87_);}
	.st87{fill:url(#SVGID_88_);}
	.st88{fill:url(#SVGID_89_);}
	.st89{fill:url(#SVGID_90_);}
	.st90{fill:url(#SVGID_91_);}
	.st91{fill:url(#SVGID_92_);}
	.st92{fill:url(#SVGID_93_);}
	.st93{fill:url(#SVGID_94_);}
	.st94{fill:url(#SVGID_95_);}
	.st95{fill:url(#SVGID_96_);}
	.st96{fill:url(#SVGID_97_);}
	.st97{fill:url(#SVGID_98_);}
	.st98{fill:#FFFFFF;}
</style>
<g>
	<linearGradient id="SVGID_1_" gradientUnits="userSpaceOnUse" x1="98.9265" y1="97.5591" x2="5.3718" y2="4.0044">
		<stop  offset="0" style="stop-color:#045D95"/>
		<stop  offset="1" style="stop-color:#BA2B2B"/>
	</linearGradient>
	<path class="st0" d="M67.1,61h-6.4V24.5h-8.1l-0.2,0.3c-1,1.5-2.7,2.7-5.1,3.8c-2.4,1.1-5,1.6-7.8,1.6c-0.3,0-0.5,0-0.8,0l-0.8-0.1
		V40l0.6,0.1c0.5,0.1,1.1,0.1,1.8,0.1c1.7,0,3-0.1,4.2-0.3V61h-6.6v10.4h29.2V61z M65.6,69.9H39.4v-7.4H46V38l-0.9,0.2
		c-1.1,0.3-2.7,0.4-4.7,0.4c-0.3,0-0.6,0-0.9,0v-6.9c0,0,0.1,0,0.1,0c3,0,5.8-0.6,8.4-1.8c2.5-1.1,4.3-2.5,5.5-4h5.8v36.6h6.4V69.9z
		"/>
	<linearGradient id="SVGID_2_" gradientUnits="userSpaceOnUse" x1="98.853" y1="97.6327" x2="5.2983" y2="4.078">
		<stop  offset="0" style="stop-color:#045D95"/>
		<stop  offset="1" style="stop-color:#BA2B2B"/>
	</linearGradient>
	<path class="st1" d="M55.9,28.9h-1.5V29c-3.7,5.2-12,5.3-12.1,5.3l0,1.5c0.2,0,3.5,0,6.9-1.3v30.9h-6.9V67H63v-1.5h-7.1V28.9z
		 M54.4,65.4h-3.6V33.9c1.3-0.6,2.5-1.4,3.6-2.5V65.4z"/>
	<linearGradient id="SVGID_3_" gradientUnits="userSpaceOnUse" x1="121.0778" y1="75.4079" x2="27.5231" y2="-18.1468">
		<stop  offset="0" style="stop-color:#045D95"/>
		<stop  offset="1" style="stop-color:#BA2B2B"/>
	</linearGradient>
	<path class="st2" d="M61.8,14.2l4-11.8l-7.6,4L52,0l-6.2,6.5l-7.6-4l4,11.8H61.8z M60.7,12.7H43.3l-0.4-1.3h18.3L60.7,12.7z
		 M46.1,8.4L52,2.2l5.9,6.2l5.2-2.8l-1.5,4.4H42.4l-1.5-4.4L46.1,8.4z"/>
	<linearGradient id="SVGID_4_" gradientUnits="userSpaceOnUse" x1="98.8702" y1="97.6154" x2="5.3155" y2="4.0607">
		<stop  offset="0" style="stop-color:#045D95"/>
		<stop  offset="1" style="stop-color:#BA2B2B"/>
	</linearGradient>
	<path class="st3" d="M102.5,55.1c0,0-0.2,0-0.6,0.1c-0.3,0-0.9,0.1-1.5,0.3c-1.1,0.3-2.7,0.9-4,2.1c-0.6,0.5-1.1,1.2-1.6,1.9
		c-0.4,0.5-0.7,1.2-1,1.8c-0.2,0.5-0.4,1-0.5,1.4c0,0.1-0.1,0.2-0.1,0.3c0,0-0.1,0.1-0.1,0.1c-0.1,0.1-0.3,0.2-0.4,0.2
		c1-3.3,1.6-6.7,1.8-10.1c0.5-0.6,1-1.1,1.5-1.7c0,0,0.1-0.1,0.1-0.1c0.4-0.1,1-0.2,1.8-0.5c0.7-0.3,1.3-0.6,1.9-1
		c0.8-0.6,1.4-1.2,1.8-1.9c0.9-1.4,1.3-3.2,1.3-4.9c0-0.7-0.1-1.3-0.1-1.7c0-0.3-0.1-0.4-0.1-0.6l-0.2-1l-0.8,0.3
		c0,0-0.2,0.1-0.6,0.2c-0.3,0.1-0.8,0.4-1.4,0.7c-1,0.6-2.4,1.7-3.3,3.2c-0.5,0.8-0.8,1.6-1,2.2c-0.2,0.7-0.3,1.4-0.4,2
		c-0.1,0.8-0.1,1.5-0.1,1.8c0,0-0.1,0.1-0.1,0.1c-0.1,0.1-0.2,0.2-0.3,0.4c0-3.4-0.3-6.9-1.1-10.2c0.3-0.6,0.6-1.2,0.9-1.9l0.2-0.3
		c0.3-0.2,0.9-0.5,1.6-1c0.6-0.5,1.1-1,1.6-1.5c0.5-0.7,0.9-1.5,1.2-2.3v0c0.1-0.4,0.2-0.9,0.3-1.3c0-0.2,0-0.4,0-0.7
		c0-0.2,0-0.5,0-0.7c-0.1-0.8-0.2-1.5-0.4-2.3C98.5,28,98.2,27.4,98,27l0-0.1c-0.2-0.4-0.3-0.7-0.3-0.7l-0.4-0.7l-0.7,0.5
		c0,0-0.8,0.6-1.6,1.5c-0.5,0.6-0.9,1.1-1.2,1.7c-0.5,0.8-0.8,1.5-1,2.3c-0.2,0.9-0.3,1.7-0.3,2.4c0,0.7,0.1,1.4,0.2,2.1
		c0,0.2,0.1,0.4,0.1,0.6l0.1,0.2c0,0.2,0.1,0.5,0.1,0.7c0,0.1,0.1,0.2,0.1,0.3l-0.1,0.3c0,0.1-0.1,0.1-0.1,0.2c-1-3.3-2.3-6.5-4-9.4
		c0.1-0.7,0.2-1.5,0.4-2.3c0-0.1,0-0.1,0-0.2c0.3-0.3,0.8-0.7,1.2-1.4c1-1.4,1.5-2.9,1.5-4.4v0c0-0.8-0.2-1.7-0.5-2.6
		c-0.1-0.4-0.3-0.8-0.5-1.1c-0.2-0.3-0.4-0.7-0.6-1c-0.4-0.6-0.8-1.1-1.1-1.4C89,14.2,88.8,14,88.8,14l-0.6-0.6l-0.5,0.7
		c0,0-0.6,0.8-1.1,1.9c-0.5,1.1-1,2.7-1,4.5c0,0.8,0.2,1.6,0.4,2.4c0.1,0.3,0.2,0.7,0.4,1l0.1,0.1c0.1,0.3,0.2,0.5,0.3,0.7
		c0.4,0.7,0.7,1.3,0.9,1.6c0,0,0,0.1,0,0.1c0,0.1,0,0.3-0.1,0.4l0,0c-0.1-0.2-0.2-0.3-0.3-0.5L86.2,25c-0.2-0.3-0.5-0.6-0.7-0.9
		c-0.1-0.1-0.2-0.2-0.3-0.4l-1-1.2l-1.1-1.2c-0.1-0.1-0.3-0.3-0.4-0.4c-0.1-0.1-0.2-0.2-0.3-0.3c0-0.4-0.1-1.2-0.4-2.2
		c-0.1-0.3-0.2-0.7-0.4-1.1c-0.2-0.4-0.4-0.8-0.6-1.2c-0.4-0.7-1-1.5-1.9-2.2c-0.4-0.3-0.8-0.5-1.2-0.8c-0.2-0.1-0.4-0.2-0.6-0.3
		c-0.2-0.1-0.5-0.2-0.7-0.2c-0.8-0.2-1.6-0.3-2.4-0.4c-0.7,0-1.4,0.1-1.8,0.1c-0.4,0.1-0.7,0.1-0.7,0.2l-0.7,0.2l0.2,0.7
		c0,0,0.1,0.3,0.2,0.7c0.1,0.4,0.4,0.9,0.7,1.5c0.4,0.7,0.7,1.4,1.2,2l0.1,0.1c0.2,0.3,0.4,0.5,0.7,0.8c0.3,0.3,0.6,0.6,1,0.9l0,0
		c0.8,0.6,1.5,0.9,2.2,1.2c0.3,0.1,0.7,0.2,1.1,0.3c0.3,0.1,0.6,0.2,1,0.3c0.9,0.2,1.7,0.2,2.1,0.3c0.1,0.1,0.2,0.2,0.3,0.3
		c0.1,0.1,0.3,0.3,0.4,0.4l1.1,1.2l1,1.2c0.1,0.1,0.2,0.2,0.3,0.4c0.2,0.3,0.4,0.5,0.6,0.8l1.1,1.6c0.1,0.1,0.2,0.3,0.3,0.4l0,0
		c-0.2,0-0.3-0.1-0.5-0.1c0,0-0.1,0-0.1,0c-0.2-0.3-0.6-0.8-1.1-1.3c-0.2-0.2-0.4-0.4-0.7-0.6c-0.3-0.2-0.6-0.4-0.9-0.6
		c-0.8-0.4-1.5-0.6-2.2-0.7c-1.4-0.1-2.8,0.2-4.3,1c-1.1,0.6-1.8,1.1-1.8,1.2l-0.6,0.5l0.4,0.6c0,0,0.1,0.2,0.3,0.4
		c0.2,0.2,0.5,0.5,0.9,0.8c0.2,0.1,0.4,0.3,0.7,0.4c0.2,0.1,0.5,0.3,0.8,0.4c0.6,0.3,1.3,0.5,2,0.5c0.3,0,0.6,0.1,1,0.1
		c1,0,2-0.2,3.2-0.5c0.8-0.2,1.4-0.5,1.7-0.6c0,0,0.1,0,0.1,0c0.7,0.2,1.3,0.4,2,0.6c1.6,2.9,2.9,5.9,3.9,9.1
		c-0.1-0.1-0.2-0.1-0.3-0.2l-0.2-0.1c0-0.1,0-0.2-0.1-0.3c-0.1-0.2-0.1-0.4-0.2-0.6c-0.1-0.3-0.3-0.5-0.4-0.8
		c-0.3-0.6-0.7-1.1-1.2-1.6c-0.5-0.5-1.2-1-1.9-1.3c-0.7-0.3-1.5-0.5-2.3-0.5c-0.7,0-1.3,0-2.1,0.2c-1.2,0.2-2,0.6-2.1,0.6L80,34.7
		l0.3,0.7c0,0,0.1,0.2,0.2,0.5c0.1,0.2,0.3,0.4,0.4,0.7l0.2,0.3c0.4,0.5,0.7,0.9,1.2,1.3c0.1,0.1,0.3,0.2,0.4,0.3
		c0.1,0.1,0.2,0.2,0.4,0.3c0.3,0.2,0.6,0.4,1,0.5h0c0.6,0.3,1.4,0.5,2.2,0.6c0.6,0.1,1.3,0.2,2,0.2c0.1,0,0.1,0,0.2,0
		c0.7,0,1.3-0.1,1.7-0.1l0.3,0.2c0.6,0.4,1.1,0.7,1.7,1.1c0.7,3.2,1.1,6.5,1.1,9.8c-0.1-0.1-0.2-0.2-0.3-0.3c0,0-0.1-0.1-0.1-0.1
		c0-0.4,0-1-0.2-1.7c-0.1-0.6-0.4-1.2-0.7-1.9c-0.3-0.6-0.8-1.3-1.5-1.8c-1-0.8-2.4-1.4-4-1.5c-0.5-0.1-1-0.1-1.5-0.1
		c-0.4,0-0.6,0-0.6,0l-0.8,0.1l0.2,1c0,0,0,0.1,0,0.1l0,0.1c0.1,0.4,0.2,0.8,0.3,1.2c0.4,1,1,2.1,2.1,3.1l0,0
		c0.6,0.5,1.2,0.9,1.9,1.2c0.6,0.3,1.2,0.5,1.9,0.7c0.8,0.2,1.4,0.4,1.8,0.4c0,0,0.1,0.1,0.1,0.1c0.5,0.5,0.9,1.1,1.3,1.6
		c-0.2,3.3-0.8,6.6-1.8,9.7c-0.1-0.1-0.1-0.3-0.2-0.4c0,0,0-0.1-0.1-0.1c0-0.1,0-0.2,0.1-0.3l0-0.1c0.1-0.3,0.2-0.8,0.2-1.4
		c0-0.7,0-1.3-0.1-2c-0.2-0.8-0.5-1.5-0.9-2.2c-0.7-1.1-1.9-2-3.5-2.6c-0.5-0.2-0.9-0.4-1.4-0.5c-0.4-0.1-0.6-0.1-0.6-0.1l-0.8-0.2
		l-0.2,1.2c0,0.4,0,0.8,0,1.3l0,0.2c0,0.4,0.1,0.9,0.3,1.4c0.2,0.5,0.4,1.2,0.9,1.9l0,0c0.9,1.3,2.1,2.3,3,2.9
		c0.7,0.5,1.3,0.8,1.6,0.9c0,0,0,0.1,0.1,0.1c0.2,0.6,0.5,1.2,0.8,1.9c-1.1,3.1-2.7,6-4.5,8.8c0-0.1,0-0.3-0.1-0.4c0,0,0-0.1,0-0.1
		c0-0.1,0.1-0.1,0.1-0.2l0-0.1c0.2-0.3,0.4-0.7,0.6-1.3c0.2-0.7,0.4-1.3,0.5-1.9c0.1-0.8,0-1.6-0.2-2.3c-0.4-1.3-1.3-2.5-2.6-3.5
		c-0.9-0.8-1.8-1.2-1.8-1.2l-0.7-0.4l-0.3,0.7c0,0-0.1,0.2-0.2,0.4c-0.2,0.4-0.3,0.8-0.4,1.2l0,0.2c-0.1,0.4-0.2,0.9-0.2,1.5
		c0,0.5,0,1.2,0.3,2l0,0c0.5,1.5,1.4,2.8,2.1,3.7c0.5,0.6,1,1.1,1.3,1.3c0,0.1,0,0.1,0,0.2c0.1,0.6,0.2,1.3,0.2,2.1
		c-2,2.6-4.3,5-6.8,7.1c0-0.2,0.1-0.3,0.1-0.5c0,0,0-0.1,0-0.1c0.3-0.2,0.7-0.7,1.2-1.2c0.4-0.6,0.8-1.1,1-1.7
		c0.3-0.7,0.4-1.5,0.4-2.3c0-1.3-0.5-2.7-1.4-4.1c-0.3-0.4-0.6-0.8-0.9-1.2c-0.3-0.3-0.4-0.5-0.4-0.5l-0.6-0.6l-0.8,1
		c-0.3,0.3-0.5,0.7-0.7,1c-0.6,1.1-1,2.3-1,3.6v0c0,1.6,0.5,3.1,0.9,4.1c0.3,0.8,0.6,1.3,0.8,1.7c0,0.1,0,0.1,0,0.2
		c-0.1,0.7-0.2,1.4-0.4,2.1c-1.6,1.2-3.3,2.2-5,3.2c-1.1,0.6-2.3,1.2-3.6,1.7c0.1-0.1,0.1-0.3,0.2-0.4c0,0,0-0.1,0.1-0.1
		c0.3-0.1,0.9-0.4,1.5-0.8c0.6-0.4,1.1-0.9,1.5-1.4c0.5-0.6,0.9-1.3,1.1-2.1c0.4-1.3,0.3-2.7-0.2-4.4c-0.4-1.1-0.8-2-0.8-2l-0.4-0.7
		l-0.7,0.4c0,0-0.1,0.1-0.4,0.2c-0.3,0.2-0.7,0.5-1,0.8c-0.6,0.6-1.5,1.6-2,3.1l0,0c-0.1,0.3-0.2,0.7-0.2,1.1
		c-0.1,0.3-0.1,0.7-0.1,1.1c0,0.6,0,1.3,0.1,2c0.1,0.8,0.2,1.5,0.3,1.8c0,0,0,0.1-0.1,0.1c-0.3,0.6-0.6,1.3-1,1.9
		c-1.8,0.6-3.8,1.2-6,1.6c-1.1,0.2-2.5,0.4-4,0.5c-0.4-1.7-1.9-2.9-3.6-2.9c-1.8,0-3.3,1.3-3.6,2.9c-1.4-0.1-2.9-0.3-4-0.5
		c-2.2-0.4-4.1-1-6-1.6c-0.3-0.6-0.7-1.3-1-1.9c0,0,0-0.1-0.1-0.1c0.1-0.4,0.2-1,0.3-1.8c0.1-0.7,0.1-1.4,0.1-2
		c0-0.4-0.1-0.7-0.1-1.1c-0.1-0.4-0.1-0.8-0.2-1.1l0,0c-0.5-1.5-1.3-2.5-2-3.1c-0.3-0.3-0.6-0.6-1-0.8c-0.2-0.2-0.4-0.2-0.4-0.2
		l-0.7-0.4L32.7,78c0,0-0.5,0.8-0.8,2c-0.5,1.6-0.6,3.1-0.2,4.4c0.2,0.7,0.6,1.5,1.1,2.1c0.4,0.5,0.9,0.9,1.5,1.4
		c0.6,0.4,1.2,0.7,1.5,0.8c0,0,0,0.1,0.1,0.1c0.1,0.1,0.1,0.3,0.2,0.4c-1.2-0.5-2.4-1.1-3.6-1.7c-1.7-0.9-3.4-2-5-3.2
		c-0.1-0.7-0.3-1.4-0.4-2.1c0-0.1,0-0.1,0-0.2c0.2-0.3,0.5-0.9,0.8-1.7c0.4-1,0.9-2.5,0.9-4.1v0c0-1.3-0.4-2.5-1-3.6
		c-0.2-0.4-0.4-0.7-0.7-1l-0.8-1l-0.6,0.6c0,0-0.2,0.2-0.4,0.5c-0.3,0.4-0.7,0.8-0.9,1.2c-0.9,1.4-1.4,2.8-1.4,4.1
		c0,0.8,0.2,1.5,0.4,2.3c0.2,0.6,0.6,1.1,1,1.7c0.5,0.6,0.9,1,1.2,1.2c0,0,0,0.1,0,0.1c0,0.1,0.1,0.3,0.1,0.5
		c-2.5-2.1-4.8-4.5-6.8-7.1c0.1-0.8,0.1-1.5,0.2-2.1c0-0.1,0-0.1,0-0.2c0.3-0.2,0.7-0.7,1.3-1.3c0.7-0.8,1.6-2.2,2.1-3.7l0,0
		c0.2-0.8,0.3-1.6,0.3-2c0-0.6-0.1-1.1-0.2-1.5l0-0.2c-0.1-0.4-0.2-0.8-0.4-1.2c-0.1-0.3-0.2-0.4-0.2-0.4l-0.3-0.7l-0.7,0.4
		c0,0-0.8,0.4-1.8,1.2c-1.3,1.1-2.1,2.3-2.6,3.5c-0.2,0.7-0.3,1.5-0.2,2.3c0.1,0.6,0.2,1.3,0.5,1.9c0.2,0.5,0.5,1,0.6,1.3l0,0.1
		c0.1,0.1,0.1,0.2,0.1,0.2c0,0,0,0.1,0,0.1c0,0.1,0,0.3-0.1,0.4c-1.8-2.7-3.4-5.7-4.5-8.8c0.3-0.8,0.6-1.4,0.8-1.9
		c0,0,0-0.1,0.1-0.1c0.3-0.2,0.9-0.5,1.6-0.9c0.9-0.6,2.2-1.6,3-2.9l0,0c0.4-0.7,0.7-1.4,0.9-1.9c0.2-0.5,0.2-1,0.3-1.4l0-0.2
		c0-0.4,0-0.8,0-1.3l-0.2-1.2l-0.8,0.2c0,0-0.2,0-0.6,0.1c-0.5,0.1-1,0.3-1.4,0.5c-1.6,0.7-2.7,1.5-3.5,2.6
		c-0.4,0.6-0.7,1.3-0.9,2.2c-0.1,0.6-0.2,1.3-0.1,2c0,0.6,0.1,1.1,0.2,1.4l0,0.1c0,0.1,0.1,0.2,0.1,0.3c0,0,0,0.1-0.1,0.1
		c-0.1,0.1-0.1,0.3-0.2,0.4c-1-3.1-1.6-6.4-1.8-9.7c0.4-0.6,0.9-1.1,1.3-1.6c0,0,0.1-0.1,0.1-0.1c0.4-0.1,1-0.2,1.8-0.4
		c0.7-0.2,1.3-0.5,1.9-0.7c0.7-0.3,1.3-0.7,1.9-1.2l0,0c1.2-1,1.7-2.1,2.1-3.1c0.1-0.4,0.3-0.8,0.3-1.2l0-0.1c0-0.1,0-0.1,0-0.1
		l0.2-1l-0.8-0.1c0,0-0.2,0-0.6,0c-0.5,0-1,0-1.5,0.1c-1.6,0.2-3,0.7-4,1.5c-0.7,0.6-1.1,1.2-1.5,1.8c-0.3,0.6-0.6,1.3-0.7,1.9
		c-0.1,0.7-0.2,1.4-0.2,1.7c0,0-0.1,0.1-0.1,0.1c-0.1,0.1-0.2,0.2-0.3,0.3c0-3.3,0.3-6.6,1.1-9.8c0.5-0.4,1.1-0.7,1.7-1.1l0.3-0.2
		c0.3,0,0.9,0.1,1.7,0.1c0.1,0,0.1,0,0.2,0c0.7,0,1.4-0.1,2-0.2c0.8-0.1,1.5-0.3,2.2-0.6h0c0.3-0.1,0.7-0.3,1-0.5
		c0.1-0.1,0.3-0.2,0.4-0.3c0.1-0.1,0.3-0.2,0.4-0.3c0.4-0.4,0.8-0.8,1.2-1.3l0.2-0.3c0.2-0.3,0.3-0.5,0.4-0.7
		c0.2-0.3,0.2-0.5,0.2-0.5l0.3-0.7l-0.7-0.3c0,0-0.9-0.4-2.1-0.6c-0.7-0.1-1.4-0.2-2.1-0.2c-0.8,0-1.6,0.2-2.3,0.5
		c-0.8,0.3-1.4,0.8-1.9,1.3c-0.4,0.5-0.8,1-1.2,1.6c-0.1,0.2-0.3,0.5-0.4,0.8c-0.1,0.2-0.2,0.4-0.2,0.6c0,0.1-0.1,0.2-0.1,0.3
		l-0.2,0.1c-0.1,0.1-0.2,0.1-0.3,0.2c0.9-3.2,2.2-6.2,3.9-9.1c0.7-0.2,1.4-0.4,2-0.6c0,0,0.1,0,0.1,0c0.3,0.1,1,0.4,1.7,0.6
		c1.2,0.3,2.2,0.5,3.2,0.5c0.3,0,0.7,0,1-0.1c0.7-0.1,1.4-0.3,2-0.5c0.3-0.1,0.5-0.3,0.8-0.4c0.3-0.1,0.5-0.3,0.7-0.4
		c0.4-0.3,0.8-0.6,0.9-0.8c0.2-0.2,0.3-0.4,0.3-0.4l0.4-0.6l-0.6-0.5c0,0-0.7-0.6-1.8-1.2c-1.5-0.8-2.9-1.1-4.3-1
		c-0.7,0.1-1.4,0.3-2.2,0.7c-0.3,0.2-0.6,0.3-0.9,0.6c-0.3,0.2-0.5,0.4-0.7,0.6c-0.5,0.5-0.9,1-1.1,1.3c0,0-0.1,0-0.1,0
		c-0.1,0-0.3,0.1-0.5,0.1l0,0c0.1-0.1,0.2-0.3,0.3-0.4l1.1-1.6c0.2-0.3,0.4-0.5,0.6-0.8c0.1-0.1,0.2-0.3,0.3-0.4l1-1.2l1.1-1.2
		c0.1-0.1,0.3-0.3,0.4-0.4c0.1-0.1,0.2-0.2,0.3-0.3c0.4,0,1.2-0.1,2.1-0.3c0.4-0.1,0.8-0.2,1-0.3c0.4-0.1,0.8-0.2,1.1-0.3
		c0.7-0.3,1.4-0.6,2.2-1.2l0,0c0.3-0.3,0.7-0.6,1-0.9c0.2-0.3,0.5-0.5,0.7-0.8l0.1-0.1c0.4-0.6,0.8-1.2,1.2-2
		c0.3-0.6,0.5-1.1,0.7-1.5c0.2-0.4,0.2-0.7,0.2-0.7l0.2-0.7l-0.7-0.2c0,0-0.3-0.1-0.7-0.2c-0.4-0.1-1.1-0.2-1.8-0.1
		c-0.8,0-1.6,0.2-2.4,0.4c-0.2,0.1-0.4,0.1-0.7,0.2c-0.2,0.1-0.4,0.2-0.6,0.3c-0.4,0.2-0.9,0.5-1.2,0.8c-0.9,0.6-1.5,1.5-1.9,2.2
		c-0.2,0.4-0.4,0.7-0.6,1.2c-0.2,0.4-0.3,0.8-0.4,1.1c-0.3,1-0.4,1.8-0.4,2.2c-0.1,0.1-0.2,0.2-0.3,0.3c-0.1,0.1-0.2,0.3-0.4,0.4
		l-1.1,1.2l-1,1.2c-0.1,0.1-0.2,0.2-0.3,0.4c-0.2,0.3-0.5,0.6-0.7,0.9L16,26.6c-0.1,0.2-0.2,0.3-0.3,0.5l0,0c0-0.1,0-0.3-0.1-0.4
		c0,0,0-0.1,0-0.1c0.2-0.3,0.6-0.9,0.9-1.6c0.1-0.2,0.2-0.5,0.3-0.7l0.1-0.1c0.2-0.3,0.3-0.7,0.4-1c0.2-0.8,0.4-1.6,0.4-2.4
		c0.1-1.8-0.5-3.4-1-4.5c-0.5-1.2-1.1-1.9-1.1-1.9l-0.5-0.7L14.6,14c0,0-0.2,0.2-0.5,0.5c-0.3,0.3-0.7,0.8-1.1,1.4
		c-0.2,0.3-0.4,0.7-0.6,1c-0.2,0.4-0.4,0.8-0.5,1.1c-0.3,0.9-0.5,1.8-0.5,2.6v0c0,1.5,0.5,3.1,1.5,4.4c0.5,0.7,1,1.2,1.2,1.4
		c0,0.1,0,0.1,0,0.2c0.1,0.8,0.2,1.5,0.4,2.3c-1.7,3-3,6.2-4,9.4c0-0.1-0.1-0.1-0.1-0.2l-0.1-0.3c0-0.1,0.1-0.2,0.1-0.3
		c0-0.2,0.1-0.4,0.1-0.7l0.1-0.2c0-0.2,0.1-0.4,0.1-0.6c0.1-0.7,0.2-1.4,0.2-2.1c0-0.7,0-1.6-0.3-2.4c-0.2-0.7-0.5-1.5-1-2.3
		c-0.3-0.6-0.8-1.2-1.2-1.7c-0.8-1-1.6-1.5-1.6-1.5l-0.7-0.5l-0.4,0.7c0,0-0.1,0.2-0.3,0.7l0,0.1c-0.2,0.4-0.4,0.9-0.6,1.6
		c-0.2,0.8-0.4,1.6-0.4,2.3c0,0.2,0,0.4,0,0.7c0,0.2,0,0.4,0,0.7c0.1,0.5,0.1,0.9,0.3,1.3v0c0.2,0.8,0.6,1.6,1.2,2.3
		c0.4,0.5,1,1.1,1.6,1.5c0.7,0.5,1.3,0.8,1.6,1L9,38.9c0.3,0.6,0.6,1.2,0.9,1.9C9.1,44.1,8.8,47.5,8.8,51c-0.1-0.1-0.2-0.2-0.3-0.4
		c0,0-0.1-0.1-0.1-0.1c0-0.4,0-1-0.1-1.8c-0.1-0.7-0.2-1.3-0.4-2c-0.2-0.7-0.5-1.4-1-2.2c-0.9-1.5-2.3-2.6-3.3-3.2
		c-0.6-0.4-1.1-0.6-1.4-0.7c-0.4-0.2-0.6-0.2-0.6-0.2l-0.8-0.3l-0.2,1c0,0.1-0.1,0.3-0.1,0.6c-0.1,0.4-0.1,1-0.1,1.7
		c-0.1,1.7,0.4,3.5,1.3,4.9c0.4,0.7,1,1.3,1.8,1.9c0.6,0.4,1.2,0.7,1.9,1c0.8,0.3,1.5,0.5,1.8,0.5c0,0,0.1,0.1,0.1,0.1
		c0.5,0.6,1,1.2,1.5,1.7c0.2,3.4,0.8,6.8,1.8,10.1c-0.1-0.1-0.3-0.2-0.4-0.2c0,0-0.1-0.1-0.1-0.1c0-0.1-0.1-0.2-0.1-0.3
		c-0.1-0.4-0.3-1-0.5-1.4c-0.3-0.7-0.6-1.3-1-1.8c-0.5-0.7-1-1.4-1.6-1.9c-1.3-1.2-2.9-1.8-4-2.1c-0.6-0.2-1.2-0.3-1.5-0.3
		c-0.4-0.1-0.6-0.1-0.6-0.1l-0.8,0l0,0.8c0,0,0,0.3,0.1,0.8c0.1,0.4,0.2,1,0.4,1.7c0.2,0.7,0.5,1.4,0.9,2.2c0.4,0.8,1,1.5,1.7,2.1
		c1.1,1,2.6,1.6,4.4,1.7c0.3,0,0.5,0,0.8,0c0.5,0,0.9,0,1.1-0.1c0,0,0.1,0.1,0.1,0.1c0.6,0.4,1.2,0.7,2,1.2c1.2,3.2,2.8,6.3,4.7,9.1
		c-0.2,0-0.3-0.1-0.5-0.1c0,0-0.1,0-0.1,0c0-0.1-0.1-0.2-0.2-0.3c-0.2-0.3-0.5-0.6-0.9-1.2c-0.5-0.6-1-1.1-1.5-1.5
		c-0.6-0.6-1.3-1-2.1-1.4c-1.6-0.8-3.3-0.9-4.5-0.9c-1.3,0-2.2,0.2-2.2,0.3l-0.8,0.2l0.2,0.8c0,0,0.1,0.3,0.3,0.7
		c0.2,0.4,0.5,0.9,0.9,1.5c0.4,0.6,0.9,1.2,1.5,1.9c0.6,0.6,1.4,1.2,2.2,1.5c0.8,0.4,1.8,0.6,2.8,0.6c0.6,0,1.2-0.1,1.9-0.2
		c0.8-0.2,1.5-0.4,1.8-0.6c0.1,0,0.1,0,0.2,0.1c0.7,0.2,1.4,0.4,2.2,0.6c2.1,2.7,4.4,5.2,7.1,7.4c-0.1,0-0.3,0-0.4,0
		c-0.1,0-0.1,0-0.2,0c-0.3-0.2-0.8-0.7-1.5-1.1c-0.6-0.4-1.2-0.7-1.8-1c-0.8-0.4-1.6-0.6-2.4-0.7c-1.8-0.3-3.5,0.1-4.6,0.5
		c-0.6,0.2-1.1,0.4-1.4,0.6c-0.4,0.2-0.6,0.3-0.6,0.3L11.1,83l0.4,0.7c0,0,0.2,0.3,0.5,0.6c0.3,0.3,0.7,0.8,1.3,1.2
		c1,0.9,2.7,1.9,4.6,2.1c0.3,0,0.5,0.1,0.8,0.1c0.6,0,1.2-0.1,1.8-0.2c0.7-0.2,1.4-0.5,2-0.8c0.7-0.4,1.3-0.8,1.6-1.1
		c0.1,0,0.1,0,0.2,0c0.8,0,1.5,0,2.3-0.1c1.7,1.2,3.4,2.3,5.2,3.3c1.2,0.6,2.4,1.2,3.7,1.8c-0.1,0-0.3,0.1-0.4,0.1c0,0-0.1,0-0.1,0
		c-0.3-0.2-1-0.4-1.7-0.6c-0.7-0.2-1.4-0.4-2.1-0.4c-0.6-0.1-1.5-0.1-2.4,0c-1.8,0.3-3.3,1.1-4.2,1.7c-1,0.7-1.7,1.4-1.7,1.4
		l-0.5,0.6l0.6,0.5c0,0,0.2,0.2,0.6,0.4c0.3,0.2,0.9,0.5,1.6,0.8c1,0.4,2.3,0.8,3.8,0.8c0.4,0,0.8,0,1.2-0.1
		c0.4-0.1,0.9-0.2,1.3-0.4c0.4-0.2,0.8-0.3,1.1-0.6c0.6-0.4,1.2-0.8,1.7-1.4c0.6-0.6,1-1.2,1.2-1.5c0.1,0,0.1,0,0.2,0
		c0.7-0.2,1.4-0.5,2.1-0.7c1.9,0.7,3.9,1.2,6.2,1.7c1.1,0.2,2.7,0.4,4.2,0.6c0.3,1.7,1.8,3,3.7,3s3.3-1.3,3.7-3
		c1.5-0.1,3.1-0.3,4.2-0.6c2.3-0.5,4.3-1,6.2-1.7c0.7,0.3,1.4,0.5,2.1,0.7c0.1,0,0.1,0,0.2,0c0.2,0.3,0.6,0.9,1.2,1.5
		c0.5,0.5,1.1,1,1.7,1.4c0.4,0.2,0.7,0.4,1.1,0.6c0.4,0.2,0.9,0.3,1.3,0.4c0.4,0.1,0.8,0.1,1.2,0.1c1.5,0,2.8-0.4,3.8-0.8
		c0.7-0.3,1.2-0.6,1.6-0.8c0.4-0.2,0.6-0.4,0.6-0.4l0.6-0.5l-0.5-0.6c0,0-0.6-0.7-1.7-1.4c-0.9-0.6-2.4-1.5-4.2-1.7
		c-1-0.1-1.9-0.1-2.4,0c-0.7,0.1-1.4,0.2-2.1,0.4c-0.8,0.2-1.4,0.5-1.7,0.6c0,0-0.1,0-0.1,0c-0.1,0-0.3-0.1-0.4-0.1
		c1.3-0.5,2.6-1.1,3.7-1.8c1.8-1,3.6-2.1,5.2-3.3c0.7,0,1.5,0.1,2.3,0.1c0.1,0,0.1,0,0.2,0c0.3,0.2,0.8,0.7,1.6,1.1
		c0.7,0.4,1.3,0.6,2,0.8c0.6,0.2,1.2,0.2,1.8,0.2c0.3,0,0.5,0,0.8-0.1c1.9-0.2,3.5-1.3,4.6-2.1c0.6-0.5,1-0.9,1.3-1.2
		c0.3-0.3,0.5-0.6,0.5-0.6l0.4-0.7l-0.7-0.4c0,0-0.2-0.1-0.6-0.3c-0.3-0.1-0.8-0.4-1.4-0.6c-1.1-0.4-2.8-0.7-4.6-0.5
		c-0.8,0.1-1.5,0.3-2.4,0.7c-0.6,0.3-1.2,0.6-1.8,1c-0.7,0.4-1.2,0.8-1.5,1.1c-0.1,0-0.1,0-0.2,0c-0.1,0-0.3,0-0.4,0
		c2.6-2.2,5-4.7,7.1-7.4c0.8-0.2,1.5-0.4,2.2-0.6c0.1,0,0.1,0,0.2-0.1c0.3,0.2,1,0.4,1.8,0.6c0.6,0.1,1.3,0.2,1.9,0.2
		c1,0,2-0.2,2.8-0.6c0.8-0.4,1.6-0.9,2.2-1.5c0.6-0.6,1.2-1.3,1.5-1.9c0.4-0.6,0.7-1.2,0.9-1.5c0.2-0.4,0.3-0.7,0.3-0.7l0.2-0.8
		l-0.8-0.2c0,0-0.9-0.2-2.2-0.3c-1.2,0-2.9,0.1-4.5,0.9c-0.7,0.3-1.4,0.8-2.1,1.4c-0.5,0.4-1,0.9-1.5,1.5c-0.5,0.6-0.7,0.9-0.9,1.2
		c-0.1,0.1-0.1,0.2-0.2,0.3c0,0-0.1,0-0.1,0c-0.1,0-0.3,0.1-0.5,0.1c1.9-2.9,3.5-5.9,4.7-9.1c0.7-0.4,1.4-0.8,2-1.2
		c0,0,0.1-0.1,0.1-0.1c0.3,0,0.6,0.1,1.1,0.1c0.2,0,0.5,0,0.8,0c1.7-0.1,3.3-0.7,4.4-1.7c0.7-0.6,1.3-1.3,1.7-2.1
		c0.4-0.8,0.8-1.6,0.9-2.2c0.2-0.7,0.3-1.3,0.4-1.7c0.1-0.4,0.1-0.7,0.1-0.8l0-0.8L102.5,55.1z M96.6,48.9c0.1-0.5,0.1-1.2,0.3-1.8
		c0.2-0.6,0.4-1.2,0.8-1.9c0.7-1.2,1.9-2.1,2.8-2.7c0.3-0.2,0.6-0.4,0.8-0.5c0,0.3,0.1,0.8,0.1,1.3c0,1.4-0.3,2.9-1,4.1l0,0
		c-0.3,0.5-0.8,1-1.4,1.4c-0.5,0.3-1,0.6-1.6,0.8c-0.3,0.1-0.7,0.2-0.9,0.3C96.5,49.8,96.5,49.2,96.6,48.9z M94.2,32
		c0.2-0.6,0.4-1.2,0.8-1.9c0.3-0.5,0.7-1,1.1-1.5c0.2-0.3,0.5-0.5,0.7-0.7c0.1,0.3,0.3,0.7,0.4,1.2c0.2,0.7,0.3,1.4,0.4,2.1
		c0,0.2,0,0.4,0,0.5c0,0.2,0,0.3,0,0.5c0,0.4-0.1,0.7-0.2,1.1c-0.2,0.6-0.5,1.2-0.9,1.8c-0.3,0.4-0.8,0.9-1.3,1.3
		c-0.3,0.2-0.6,0.4-0.8,0.5c0,0-0.1-0.5-0.1-0.5c0-0.2-0.1-0.3-0.1-0.5C94,35.3,94,34.7,94,34.1C94,33.4,94,32.7,94.2,32z
		 M79.7,19.9c-0.3-0.1-0.5-0.1-0.9-0.2c-0.4-0.1-0.7-0.2-1-0.3c-0.6-0.2-1.2-0.5-1.9-1c-0.3-0.2-0.5-0.4-0.8-0.7
		c-0.2-0.2-0.4-0.5-0.6-0.7l-0.1-0.1c-0.4-0.5-0.7-1-1-1.7c-0.2-0.5-0.4-0.9-0.5-1.2c0.3,0,0.7-0.1,1.1-0.1c0.1,0,0.1,0,0.2,0
		c0.7,0,1.4,0.1,2.1,0.3c0.2,0,0.4,0.1,0.5,0.2c0.2,0.1,0.3,0.1,0.5,0.2c0.4,0.2,0.7,0.4,1,0.6c0.7,0.5,1.2,1.2,1.5,1.8
		c0.2,0.3,0.4,0.6,0.5,1c0.1,0.3,0.2,0.7,0.3,0.9c0.1,0.5,0.2,0.9,0.3,1.3C80.6,20,80.1,20,79.7,19.9z M83.2,28.3
		c-0.9,0.3-2.3,0.6-3.6,0.4l0,0c-0.6-0.1-1.1-0.2-1.6-0.4c-0.2-0.1-0.4-0.2-0.6-0.3c-0.2-0.1-0.4-0.3-0.6-0.4
		c-0.2-0.1-0.3-0.2-0.4-0.3c0.2-0.2,0.5-0.3,0.9-0.5c0.8-0.4,2.1-0.9,3.4-0.8c0.5,0.1,1,0.2,1.6,0.5c0.2,0.1,0.5,0.3,0.7,0.4
		c0.2,0.1,0.4,0.3,0.5,0.5c0.2,0.2,0.4,0.4,0.5,0.6C84.1,28,83.5,28.2,83.2,28.3z M88.1,24.2c-0.1-0.2-0.2-0.4-0.3-0.7l-0.1-0.2
		c-0.1-0.3-0.2-0.6-0.3-0.9c-0.2-0.6-0.3-1.3-0.3-2c-0.1-1.5,0.4-2.9,0.8-3.8c0.1-0.3,0.3-0.6,0.4-0.8c0.2,0.3,0.5,0.6,0.8,1
		c0.2,0.3,0.4,0.6,0.5,0.9c0.2,0.3,0.3,0.6,0.4,1c0.3,0.8,0.4,1.5,0.4,2.1c0,1.2-0.4,2.4-1.2,3.6c-0.2,0.3-0.4,0.6-0.6,0.8
		C88.6,25.1,88.3,24.5,88.1,24.2z M88.2,38.4c-0.6,0-1.2-0.1-1.8-0.2c-0.7-0.1-1.3-0.3-1.8-0.5h0c-0.3-0.1-0.5-0.2-0.7-0.4
		c-0.1-0.1-0.2-0.1-0.3-0.2c-0.1-0.1-0.2-0.2-0.3-0.3c-0.3-0.3-0.7-0.6-0.9-1l-0.2-0.3c0-0.1-0.1-0.1-0.1-0.2
		c0.3-0.1,0.6-0.2,0.9-0.2c0.6-0.1,1.2-0.2,1.7-0.2c0.6,0,1.2,0.1,1.7,0.4c0.6,0.2,1.1,0.6,1.4,1c0.3,0.4,0.7,0.8,1,1.3
		c0.1,0.2,0.2,0.4,0.3,0.6c0,0,0,0.1,0,0.1C89.2,38.4,88.5,38.4,88.2,38.4z M90.1,49.6c-0.6-0.2-1.2-0.4-1.7-0.6
		c-0.6-0.3-1.1-0.6-1.6-1c-0.9-0.7-1.3-1.6-1.7-2.5c-0.1-0.2-0.1-0.3-0.1-0.5c0.3,0,0.7,0,1,0.1c0.9,0.1,2.3,0.4,3.3,1.2
		c0.5,0.4,0.8,0.9,1.1,1.3c0.3,0.5,0.5,1,0.6,1.5c0.1,0.3,0.1,0.5,0.1,0.8C91.1,49.8,90.4,49.7,90.1,49.6z M89.6,61.3
		c0,0-0.6-0.3-0.8-0.5c-0.8-0.5-1.9-1.4-2.6-2.5c-0.3-0.5-0.5-1.1-0.7-1.5c-0.1-0.4-0.2-0.8-0.2-1.1l0-0.2c0-0.2,0-0.3,0-0.5
		c0.3,0.1,0.6,0.2,0.9,0.3c0.9,0.4,2.1,1,2.8,2.1c0.3,0.5,0.5,1,0.7,1.6c0.1,0.5,0.1,1,0.1,1.6C89.7,60.8,89.7,61.1,89.6,61.3z
		 M67.4,84.1c0-0.3,0-0.6,0.1-0.9c0-0.3,0.1-0.6,0.2-0.9c0.4-1.2,1.1-2,1.6-2.5c0.1-0.1,0.3-0.2,0.4-0.4c0.1,0.3,0.2,0.6,0.3,0.9
		c0.3,0.9,0.5,2.3,0.2,3.5c-0.2,0.6-0.4,1.1-0.8,1.5c-0.3,0.4-0.7,0.8-1.2,1.1c-0.2,0.2-0.4,0.3-0.6,0.4c0,0-0.1-0.7-0.1-1
		C67.4,85.3,67.4,84.7,67.4,84.1z M35.9,85.9c0,0.3-0.1,0.9-0.1,1c-0.2-0.1-0.4-0.2-0.6-0.4c-0.5-0.3-0.8-0.7-1.2-1.1
		c-0.4-0.4-0.6-1-0.8-1.5c-0.4-1.2-0.1-2.6,0.2-3.5c0.1-0.4,0.2-0.7,0.3-0.9c0.1,0.1,0.3,0.2,0.4,0.4c0.5,0.5,1.2,1.3,1.6,2.5
		c0.1,0.3,0.1,0.6,0.2,0.9c0,0.3,0.1,0.6,0.1,0.9C36,84.7,35.9,85.3,35.9,85.9z M13.7,59c0.1-0.6,0.4-1.2,0.7-1.6
		c0.7-1.1,1.9-1.7,2.8-2.1c0.3-0.1,0.6-0.2,0.9-0.3c0,0.2,0,0.3,0,0.5l0,0.2c0,0.4-0.1,0.8-0.2,1.1c-0.1,0.4-0.3,1-0.7,1.5
		c-0.7,1.1-1.8,2-2.6,2.5c-0.3,0.2-0.8,0.5-0.8,0.5c0-0.2-0.1-0.5-0.1-0.7C13.6,60,13.6,59.5,13.7,59z M12.4,49.1
		c0.1-0.5,0.3-1,0.6-1.5c0.3-0.5,0.6-1,1.1-1.3c1-0.8,2.3-1.1,3.3-1.2c0.3,0,0.7-0.1,1-0.1c0,0.1-0.1,0.3-0.1,0.5
		c-0.4,0.8-0.8,1.7-1.7,2.5c-0.5,0.4-1,0.7-1.6,1c-0.5,0.2-1.1,0.5-1.7,0.6c-0.3,0.1-0.9,0.2-0.9,0.3C12.3,49.6,12.3,49.3,12.4,49.1
		z M14.2,38.3c0.1-0.2,0.2-0.3,0.3-0.6c0.3-0.5,0.6-0.9,1-1.3c0.4-0.4,0.9-0.7,1.4-1c0.5-0.2,1.1-0.3,1.7-0.4c0.5,0,1.1,0,1.7,0.2
		c0.4,0.1,0.7,0.2,0.9,0.2c0,0-0.1,0.1-0.1,0.2L21,35.9c-0.3,0.4-0.6,0.7-0.9,1c-0.1,0.1-0.2,0.2-0.3,0.3c-0.1,0.1-0.2,0.2-0.3,0.2
		c-0.2,0.2-0.5,0.3-0.7,0.4h0c-0.5,0.2-1.1,0.4-1.8,0.5c-0.6,0.1-1.1,0.1-1.8,0.2c-0.3,0-1,0-1,0C14.1,38.4,14.1,38.3,14.2,38.3z
		 M19.7,27.4c0.2-0.2,0.4-0.3,0.5-0.5c0.2-0.2,0.5-0.3,0.7-0.4c0.6-0.3,1.1-0.5,1.6-0.5c1.3-0.1,2.6,0.4,3.4,0.8
		c0.3,0.2,0.6,0.3,0.9,0.5c-0.1,0.1-0.3,0.2-0.4,0.3c-0.2,0.1-0.3,0.2-0.6,0.4c-0.2,0.1-0.4,0.2-0.6,0.3c-0.5,0.2-1,0.4-1.6,0.4l0,0
		c-1.2,0.2-2.6-0.1-3.6-0.4c-0.3-0.1-0.9-0.3-0.9-0.3C19.4,27.8,19.5,27.6,19.7,27.4z M22.7,18.8c0.1-0.3,0.2-0.6,0.3-0.9
		c0.2-0.3,0.3-0.7,0.5-1c0.3-0.6,0.8-1.3,1.5-1.8c0.3-0.2,0.7-0.4,1-0.6c0.2-0.1,0.4-0.2,0.5-0.2c0.2-0.1,0.4-0.1,0.5-0.2
		c0.7-0.2,1.4-0.3,2.1-0.3c0.1,0,0.1,0,0.2,0c0.4,0,0.8,0,1.1,0.1c-0.1,0.3-0.3,0.7-0.5,1.2c-0.3,0.7-0.6,1.2-1,1.7l-0.1,0.1
		c-0.2,0.2-0.4,0.5-0.6,0.7c-0.2,0.3-0.5,0.5-0.8,0.7c-0.7,0.5-1.3,0.8-1.9,1c-0.3,0.1-0.6,0.2-1,0.3c-0.4,0.1-0.7,0.2-0.9,0.2
		c-0.5,0.1-0.9,0.2-1.3,0.2C22.5,19.7,22.5,19.3,22.7,18.8z M14.1,24.3c-0.8-1.1-1.2-2.3-1.2-3.6c0-0.7,0.2-1.4,0.4-2.1
		c0.1-0.3,0.3-0.7,0.4-1c0.1-0.3,0.3-0.5,0.5-0.9c0.3-0.4,0.5-0.7,0.8-1c0.1,0.2,0.3,0.5,0.4,0.8c0.4,0.9,0.9,2.3,0.8,3.8
		c0,0.7-0.1,1.4-0.3,2c-0.1,0.3-0.2,0.6-0.3,0.9l-0.1,0.2c-0.1,0.2-0.2,0.5-0.3,0.7c-0.1,0.3-0.5,0.9-0.5,0.9
		C14.5,24.9,14.3,24.6,14.1,24.3z M9.2,35.9c0,0.2-0.1,0.4-0.1,0.5c0,0-0.1,0.5-0.1,0.5c-0.2-0.1-0.5-0.3-0.8-0.5
		c-0.5-0.4-0.9-0.8-1.3-1.3c-0.4-0.6-0.7-1.2-0.9-1.8c-0.1-0.3-0.2-0.7-0.2-1.1c0-0.2,0-0.4,0-0.5c0-0.2,0-0.4,0-0.5
		c0.1-0.6,0.2-1.3,0.4-2.1c0.1-0.4,0.3-0.8,0.4-1.2c0.2,0.2,0.4,0.4,0.7,0.7c0.4,0.5,0.8,1,1.1,1.5C8.7,30.8,9,31.4,9.1,32
		c0.2,0.7,0.2,1.4,0.2,2C9.4,34.7,9.3,35.3,9.2,35.9z M6,49.5c-0.6-0.2-1.1-0.5-1.6-0.8c-0.6-0.4-1.1-0.9-1.4-1.4l0,0
		c-0.7-1.1-1.1-2.6-1-4.1c0-0.5,0-0.9,0.1-1.3c0.2,0.1,0.5,0.3,0.8,0.5c0.9,0.5,2,1.4,2.8,2.7C6,45.8,6.3,46.5,6.4,47
		c0.2,0.7,0.3,1.3,0.3,1.8c0,0.3,0.1,1,0.1,1C6.6,49.8,6.3,49.7,6,49.5z M7.6,62.9c-1.4-0.1-2.6-0.6-3.5-1.3l0,0
		c-0.5-0.5-1-1-1.4-1.7c-0.4-0.7-0.7-1.3-0.8-1.9c-0.1-0.5-0.2-0.9-0.3-1.2c0.3,0,0.6,0.1,0.9,0.2c0.9,0.3,2.3,0.8,3.4,1.8
		c0.5,0.4,0.9,0.9,1.3,1.6c0.3,0.5,0.6,1,0.9,1.6c0.1,0.3,0.4,0.9,0.4,1C8.3,62.9,8,62.9,7.6,62.9z M13,75.1
		c-1.4,0.3-2.7,0.2-3.8-0.3l0,0c-0.6-0.3-1.3-0.7-1.8-1.2c-0.6-0.5-1-1.1-1.3-1.6c-0.3-0.4-0.5-0.8-0.6-1.1c0.3,0,0.6-0.1,1-0.1
		c1,0,2.5,0.1,3.8,0.7c0.6,0.3,1.2,0.6,1.7,1.1c0.5,0.4,0.9,0.8,1.3,1.3c0.2,0.2,0.6,0.8,0.6,0.8C13.7,74.9,13.4,75,13,75.1z
		 M18.1,71.2c-0.2-0.5-0.3-1.1-0.4-1.5c0-0.6,0-1.2,0.2-1.7c0.4-1.2,1.3-2.2,2.1-2.8c0.3-0.2,0.6-0.4,0.8-0.6
		c0.1,0.2,0.1,0.3,0.1,0.5l0,0.1c0.1,0.4,0.1,0.8,0.1,1.2c0,0.6-0.1,1.1-0.2,1.6c-0.4,1.3-1.2,2.4-1.8,3.2c-0.2,0.2-0.6,0.7-0.7,0.7
		C18.3,71.7,18.2,71.5,18.1,71.2z M21.7,85.3c-0.5,0.3-1.1,0.5-1.7,0.7c-0.7,0.2-1.3,0.2-2,0.1l0,0c-1.6-0.2-2.9-1.1-3.8-1.8
		c-0.4-0.3-0.7-0.6-0.9-0.9c0.2-0.1,0.5-0.2,0.9-0.3c0.9-0.3,2.4-0.6,3.9-0.4c0.6,0.1,1.3,0.3,2,0.6c0.5,0.2,1.1,0.5,1.6,0.9
		c0.3,0.2,0.8,0.6,0.8,0.6C22.3,84.9,22,85.1,21.7,85.3z M26.4,79.8c-0.1,0.3-0.4,0.9-0.4,0.9c-0.2-0.2-0.3-0.3-0.5-0.6
		c-0.3-0.5-0.6-0.9-0.8-1.4c-0.2-0.6-0.3-1.1-0.3-1.7c0-1.3,0.6-2.5,1.2-3.3c0.2-0.3,0.4-0.5,0.6-0.8c0.1,0.1,0.2,0.3,0.3,0.5
		c0.5,0.9,0.8,1.9,0.8,2.9C27.2,77.6,26.8,78.9,26.4,79.8z M33,92.6c-0.4,0.4-0.9,0.8-1.4,1.1c-0.3,0.2-0.6,0.3-0.9,0.4
		c-0.3,0.1-0.7,0.2-1,0.3l0,0c-1.5,0.3-3.1-0.2-4.1-0.6c-0.4-0.2-0.8-0.4-1.1-0.6c0.2-0.2,0.5-0.4,0.8-0.6c0.8-0.6,2.1-1.3,3.6-1.5
		c0.6-0.1,1.2-0.1,2.1,0c0.6,0.1,1.2,0.2,1.8,0.4c0.3,0.1,0.9,0.3,1,0.3C33.5,92.1,33.2,92.3,33,92.6z M51.7,95.1
		c-1.2,0-2.2-1-2.2-2.2c0-1.2,1-2.2,2.2-2.2s2.2,1,2.2,2.2C53.9,94.1,52.9,95.1,51.7,95.1z M70.7,91.5c0.6-0.2,1.2-0.3,1.8-0.4
		c0.8-0.1,1.4-0.1,2.1,0c1.5,0.2,2.8,0.9,3.6,1.5c0.3,0.2,0.6,0.4,0.8,0.6c-0.3,0.2-0.7,0.4-1.1,0.6c-1,0.4-2.6,0.9-4.1,0.6l0,0
		c-0.3-0.1-0.7-0.2-1-0.3c-0.3-0.1-0.6-0.3-0.9-0.4c-0.5-0.3-1-0.7-1.4-1.1c-0.3-0.3-0.5-0.5-0.6-0.7C69.7,91.8,70.3,91.6,70.7,91.5
		z M76.9,79.8c-0.4-0.9-0.8-2.2-0.8-3.5c0-1,0.3-2,0.8-2.9c0.1-0.2,0.2-0.3,0.3-0.5c0.2,0.3,0.4,0.5,0.6,0.8c0.5,0.8,1.2,2,1.2,3.3
		c0,0.6-0.1,1.2-0.3,1.7c-0.2,0.4-0.5,0.9-0.8,1.4c-0.2,0.2-0.3,0.4-0.5,0.6C77.3,80.6,77.1,80.1,76.9,79.8z M81.6,84.2
		c0.5-0.4,1.1-0.7,1.6-0.9c0.7-0.3,1.3-0.5,2-0.6c1.5-0.2,2.9,0.1,3.9,0.4c0.4,0.1,0.7,0.2,0.9,0.3c-0.2,0.2-0.5,0.5-0.9,0.9
		c-0.9,0.7-2.2,1.6-3.8,1.8l0,0c-0.7,0.1-1.3,0-2-0.1c-0.6-0.1-1.1-0.4-1.7-0.7c-0.3-0.2-0.6-0.4-0.8-0.5
		C80.8,84.8,81.3,84.4,81.6,84.2z M85.6,69.7c-0.1,0.5-0.2,1-0.4,1.5c-0.1,0.3-0.2,0.5-0.3,0.7c0,0-0.5-0.5-0.7-0.7
		c-0.6-0.7-1.4-1.9-1.8-3.2c-0.1-0.5-0.2-1-0.2-1.6c0-0.4,0.1-0.8,0.1-1.2l0-0.1c0-0.2,0.1-0.3,0.1-0.5c0.2,0.2,0.5,0.4,0.8,0.6
		c0.7,0.6,1.7,1.6,2.1,2.8C85.6,68.4,85.6,69,85.6,69.7z M90,74.1c0.4-0.5,0.8-0.9,1.3-1.3c0.6-0.5,1.1-0.9,1.7-1.1
		c1.4-0.7,2.8-0.8,3.8-0.7c0.4,0,0.7,0,1,0.1c-0.2,0.3-0.4,0.7-0.6,1.1c-0.3,0.5-0.8,1.1-1.3,1.6c-0.5,0.5-1.1,0.9-1.8,1.2l0,0
		c-1.1,0.5-2.3,0.6-3.8,0.3c-0.4-0.1-0.7-0.2-0.9-0.3C89.4,74.8,89.8,74.3,90,74.1z M101.4,57.9c-0.1,0.6-0.4,1.2-0.8,1.9
		c-0.3,0.6-0.8,1.2-1.4,1.7l0,0c-0.9,0.8-2.1,1.2-3.5,1.3c-0.4,0-0.7,0-1,0c0,0,0.3-0.7,0.4-1c0.2-0.6,0.5-1.1,0.9-1.6
		c0.4-0.6,0.8-1.2,1.3-1.6c1.1-1,2.5-1.5,3.4-1.8c0.4-0.1,0.7-0.2,0.9-0.2C101.6,57,101.6,57.5,101.4,57.9z"/>
</g>
</svg>
